%TF.GenerationSoftware,KiCad,Pcbnew,(6.0.4)*%
%TF.CreationDate,2022-04-13T05:55:54+02:00*%
%TF.ProjectId,circuit,63697263-7569-4742-9e6b-696361645f70,rev?*%
%TF.SameCoordinates,Original*%
%TF.FileFunction,Copper,L1,Top*%
%TF.FilePolarity,Positive*%
%FSLAX46Y46*%
G04 Gerber Fmt 4.6, Leading zero omitted, Abs format (unit mm)*
G04 Created by KiCad (PCBNEW (6.0.4)) date 2022-04-13 05:55:54*
%MOMM*%
%LPD*%
G01*
G04 APERTURE LIST*
%TA.AperFunction,ComponentPad*%
%ADD10R,2.200000X2.200000*%
%TD*%
%TA.AperFunction,ComponentPad*%
%ADD11O,2.200000X2.200000*%
%TD*%
%TA.AperFunction,ComponentPad*%
%ADD12C,1.400000*%
%TD*%
%TA.AperFunction,ComponentPad*%
%ADD13R,1.700000X1.700000*%
%TD*%
%TA.AperFunction,ComponentPad*%
%ADD14O,1.700000X1.700000*%
%TD*%
%TA.AperFunction,Conductor*%
%ADD15C,0.400000*%
%TD*%
G04 APERTURE END LIST*
D10*
%TO.P,D2,1,K*%
%TO.N,S2_D*%
X147320000Y-87884000D03*
D11*
%TO.P,D2,2,A*%
%TO.N,GND*%
X147320000Y-98044000D03*
%TD*%
D10*
%TO.P,D6,1,K*%
%TO.N,S2_F*%
X86868000Y-87376000D03*
D11*
%TO.P,D6,2,A*%
%TO.N,GND*%
X86868000Y-97536000D03*
%TD*%
D10*
%TO.P,D3,1,K*%
%TO.N,S1_E*%
X94996000Y-78740000D03*
D11*
%TO.P,D3,2,A*%
%TO.N,GND*%
X94996000Y-68580000D03*
%TD*%
D12*
%TO.P,K2,1,COIL+*%
%TO.N,S2_D*%
X143256000Y-88900000D03*
%TO.P,K2,4,COM_1*%
%TO.N,S2_11*%
X135636000Y-88900000D03*
%TO.P,K2,6,NC_1*%
%TO.N,GND*%
X130556000Y-88900000D03*
%TO.P,K2,8,NO_1*%
%TO.N,+24V*%
X125476000Y-88900000D03*
%TO.P,K2,9,NO_2*%
%TO.N,GND*%
X125476000Y-96520000D03*
%TO.P,K2,11,NC_2*%
%TO.N,+24V*%
X130556000Y-96520000D03*
%TO.P,K2,13,COM_2*%
%TO.N,S2_12*%
X135636000Y-96520000D03*
%TO.P,K2,16,COIL-*%
%TO.N,GND*%
X143256000Y-96520000D03*
%TD*%
D13*
%TO.P, ,1,Pin_1*%
%TO.N,S2_11*%
X109220000Y-102641000D03*
D14*
%TO.P, ,2,Pin_2*%
%TO.N,S2_12*%
X106680000Y-102641000D03*
%TO.P, ,3,Pin_3*%
%TO.N,S2_13*%
X104140000Y-102641000D03*
%TO.P, ,4,Pin_4*%
%TO.N,S2_14*%
X101600000Y-102641000D03*
%TO.P, ,5,Pin_5*%
%TO.N,S2_15*%
X99060000Y-102641000D03*
%TO.P, ,6,Pin_6*%
%TO.N,S2_16*%
X96520000Y-102641000D03*
%TD*%
D12*
%TO.P,K5,1,COIL+*%
%TO.N,S1_F*%
X125730000Y-77470000D03*
%TO.P,K5,4,COM_1*%
%TO.N,S1_15*%
X133350000Y-77470000D03*
%TO.P,K5,6,NC_1*%
%TO.N,GND*%
X138430000Y-77470000D03*
%TO.P,K5,8,NO_1*%
%TO.N,+24V*%
X143510000Y-77470000D03*
%TO.P,K5,9,NO_2*%
%TO.N,GND*%
X143510000Y-69850000D03*
%TO.P,K5,11,NC_2*%
%TO.N,+24V*%
X138430000Y-69850000D03*
%TO.P,K5,13,COM_2*%
%TO.N,S1_16*%
X133350000Y-69850000D03*
%TO.P,K5,16,COIL-*%
%TO.N,GND*%
X125730000Y-69850000D03*
%TD*%
D13*
%TO.P, ,1,Pin_1*%
%TO.N,GND*%
X57404000Y-66548000D03*
D14*
%TO.P, ,2,Pin_2*%
%TO.N,+24V*%
X57404000Y-69088000D03*
%TD*%
D10*
%TO.P,D5,1,K*%
%TO.N,S1_F*%
X121412000Y-78740000D03*
D11*
%TO.P,D5,2,A*%
%TO.N,GND*%
X121412000Y-68580000D03*
%TD*%
D10*
%TO.P,D1,1,K*%
%TO.N,S1_D*%
X64516000Y-78740000D03*
D11*
%TO.P,D1,2,A*%
%TO.N,GND*%
X64516000Y-68580000D03*
%TD*%
D10*
%TO.P,D4,1,K*%
%TO.N,S2_E*%
X116840000Y-87630000D03*
D11*
%TO.P,D4,2,A*%
%TO.N,GND*%
X116840000Y-97790000D03*
%TD*%
D12*
%TO.P,K3,1,COIL+*%
%TO.N,S1_E*%
X99060000Y-77470000D03*
%TO.P,K3,4,COM_1*%
%TO.N,S1_13*%
X106680000Y-77470000D03*
%TO.P,K3,6,NC_1*%
%TO.N,GND*%
X111760000Y-77470000D03*
%TO.P,K3,8,NO_1*%
%TO.N,+24V*%
X116840000Y-77470000D03*
%TO.P,K3,9,NO_2*%
%TO.N,GND*%
X116840000Y-69850000D03*
%TO.P,K3,11,NC_2*%
%TO.N,+24V*%
X111760000Y-69850000D03*
%TO.P,K3,13,COM_2*%
%TO.N,S1_14*%
X106680000Y-69850000D03*
%TO.P,K3,16,COIL-*%
%TO.N,GND*%
X99060000Y-69850000D03*
%TD*%
%TO.P,K1,1,COIL+*%
%TO.N,S1_D*%
X68580000Y-77470000D03*
%TO.P,K1,4,COM_1*%
%TO.N,S1_11*%
X76200000Y-77470000D03*
%TO.P,K1,6,NC_1*%
%TO.N,GND*%
X81280000Y-77470000D03*
%TO.P,K1,8,NO_1*%
%TO.N,+24V*%
X86360000Y-77470000D03*
%TO.P,K1,9,NO_2*%
%TO.N,GND*%
X86360000Y-69850000D03*
%TO.P,K1,11,NC_2*%
%TO.N,+24V*%
X81280000Y-69850000D03*
%TO.P,K1,13,COM_2*%
%TO.N,S1_12*%
X76200000Y-69850000D03*
%TO.P,K1,16,COIL-*%
%TO.N,GND*%
X68580000Y-69850000D03*
%TD*%
D13*
%TO.P, ,1,Pin_1*%
%TO.N,S1_11*%
X96799000Y-63983000D03*
D14*
%TO.P, ,2,Pin_2*%
%TO.N,S1_12*%
X99339000Y-63983000D03*
%TO.P, ,3,Pin_3*%
%TO.N,S1_13*%
X101879000Y-63983000D03*
%TO.P, ,4,Pin_4*%
%TO.N,S1_14*%
X104419000Y-63983000D03*
%TO.P, ,5,Pin_5*%
%TO.N,S1_15*%
X106959000Y-63983000D03*
%TO.P, ,6,Pin_6*%
%TO.N,S1_16*%
X109499000Y-63983000D03*
%TD*%
D13*
%TO.P, ,1,Pin_1*%
%TO.N,S1_D*%
X57429000Y-76479000D03*
D14*
%TO.P, ,2,Pin_2*%
%TO.N,S1_E*%
X57429000Y-79019000D03*
%TO.P, ,3,Pin_3*%
%TO.N,S1_F*%
X57429000Y-81559000D03*
%TO.P, ,4,Pin_4*%
%TO.N,S2_D*%
X57429000Y-84099000D03*
%TO.P, ,5,Pin_5*%
%TO.N,S2_E*%
X57429000Y-86639000D03*
%TO.P, ,6,Pin_6*%
%TO.N,S2_F*%
X57429000Y-89179000D03*
%TD*%
D12*
%TO.P,K4,1,COIL+*%
%TO.N,S2_E*%
X112776000Y-88900000D03*
%TO.P,K4,4,COM_1*%
%TO.N,S2_13*%
X105156000Y-88900000D03*
%TO.P,K4,6,NC_1*%
%TO.N,GND*%
X100076000Y-88900000D03*
%TO.P,K4,8,NO_1*%
%TO.N,+24V*%
X94996000Y-88900000D03*
%TO.P,K4,9,NO_2*%
%TO.N,GND*%
X94996000Y-96520000D03*
%TO.P,K4,11,NC_2*%
%TO.N,+24V*%
X100076000Y-96520000D03*
%TO.P,K4,13,COM_2*%
%TO.N,S2_14*%
X105156000Y-96520000D03*
%TO.P,K4,16,COIL-*%
%TO.N,GND*%
X112776000Y-96520000D03*
%TD*%
%TO.P,K6,1,COIL+*%
%TO.N,S2_F*%
X82550000Y-88646000D03*
%TO.P,K6,4,COM_1*%
%TO.N,S2_15*%
X74930000Y-88646000D03*
%TO.P,K6,6,NC_1*%
%TO.N,GND*%
X69850000Y-88646000D03*
%TO.P,K6,8,NO_1*%
%TO.N,+24V*%
X64770000Y-88646000D03*
%TO.P,K6,9,NO_2*%
%TO.N,GND*%
X64770000Y-96266000D03*
%TO.P,K6,11,NC_2*%
%TO.N,+24V*%
X69850000Y-96266000D03*
%TO.P,K6,13,COM_2*%
%TO.N,S2_16*%
X74930000Y-96266000D03*
%TO.P,K6,16,COIL-*%
%TO.N,GND*%
X82550000Y-96266000D03*
%TD*%
D15*
%TO.N,S1_D*%
X64770000Y-78740000D02*
X67310000Y-78740000D01*
X57429000Y-76479000D02*
X62255000Y-76479000D01*
X67310000Y-78740000D02*
X68580000Y-77470000D01*
X62255000Y-76479000D02*
X64516000Y-78740000D01*
%TO.N,S2_D*%
X58649000Y-84099000D02*
X60452000Y-82296000D01*
X60452000Y-82296000D02*
X136652000Y-82296000D01*
X136652000Y-82296000D02*
X143256000Y-88900000D01*
X144272000Y-87884000D02*
X143256000Y-88900000D01*
X57429000Y-84099000D02*
X58649000Y-84099000D01*
X147320000Y-87884000D02*
X144272000Y-87884000D01*
%TO.N,S1_E*%
X97790000Y-78740000D02*
X99060000Y-77470000D01*
X91948000Y-78740000D02*
X94996000Y-78740000D01*
X57429000Y-79019000D02*
X59182000Y-80772000D01*
X94996000Y-78740000D02*
X97790000Y-78740000D01*
X89916000Y-80772000D02*
X91948000Y-78740000D01*
X59182000Y-80772000D02*
X89916000Y-80772000D01*
%TO.N,S2_E*%
X112776000Y-88900000D02*
X115570000Y-88900000D01*
X57429000Y-86639000D02*
X60756000Y-83312000D01*
X60756000Y-83312000D02*
X107188000Y-83312000D01*
X115570000Y-88900000D02*
X116840000Y-87630000D01*
X107188000Y-83312000D02*
X112776000Y-88900000D01*
%TO.N,S1_F*%
X57429000Y-81559000D02*
X118593000Y-81559000D01*
X121412000Y-78740000D02*
X124460000Y-78740000D01*
X118593000Y-81559000D02*
X121412000Y-78740000D01*
X124460000Y-78740000D02*
X125730000Y-77470000D01*
%TO.N,S2_F*%
X57429000Y-89179000D02*
X62280000Y-84328000D01*
X62280000Y-84328000D02*
X78232000Y-84328000D01*
X85090000Y-88646000D02*
X86360000Y-87376000D01*
X82550000Y-88646000D02*
X85090000Y-88646000D01*
X78232000Y-84328000D02*
X82550000Y-88646000D01*
%TO.N,S1_11*%
X83845000Y-63983000D02*
X96799000Y-63983000D01*
X76200000Y-77470000D02*
X76200000Y-71628000D01*
X76200000Y-71628000D02*
X83845000Y-63983000D01*
%TO.N,+24V*%
X94996000Y-88900000D02*
X94996000Y-91440000D01*
X138430000Y-69850000D02*
X143510000Y-74930000D01*
X111760000Y-69850000D02*
X117602000Y-75692000D01*
X141224000Y-79756000D02*
X143510000Y-77470000D01*
X122936000Y-91440000D02*
X125476000Y-88900000D01*
X132588000Y-79756000D02*
X141224000Y-79756000D01*
X64770000Y-91186000D02*
X69850000Y-96266000D01*
X57404000Y-69088000D02*
X55372000Y-71120000D01*
X76200000Y-86360000D02*
X81788000Y-91948000D01*
X81280000Y-69850000D02*
X81280000Y-72390000D01*
X72644000Y-79756000D02*
X61976000Y-69088000D01*
X105664000Y-80264000D02*
X114046000Y-80264000D01*
X130556000Y-96520000D02*
X125476000Y-91440000D01*
X91948000Y-91948000D02*
X94996000Y-88900000D01*
X98044000Y-85852000D02*
X105664000Y-85852000D01*
X117602000Y-75692000D02*
X128524000Y-75692000D01*
X55372000Y-71120000D02*
X55372000Y-93472000D01*
X55372000Y-93472000D02*
X59944000Y-98044000D01*
X81788000Y-91948000D02*
X91948000Y-91948000D01*
X114046000Y-80264000D02*
X116840000Y-77470000D01*
X86614000Y-75184000D02*
X100584000Y-75184000D01*
X111760000Y-72390000D02*
X114173000Y-74803000D01*
X100584000Y-75184000D02*
X105664000Y-80264000D01*
X143510000Y-74930000D02*
X143510000Y-77470000D01*
X61976000Y-69088000D02*
X57404000Y-69088000D01*
X81280000Y-69850000D02*
X86614000Y-75184000D01*
X111760000Y-69850000D02*
X111760000Y-72390000D01*
X64770000Y-88646000D02*
X64770000Y-91186000D01*
X94996000Y-88900000D02*
X98044000Y-85852000D01*
X86360000Y-77470000D02*
X84074000Y-79756000D01*
X128524000Y-75692000D02*
X132588000Y-79756000D01*
X125476000Y-91440000D02*
X125476000Y-88900000D01*
X64770000Y-88646000D02*
X67056000Y-86360000D01*
X67056000Y-86360000D02*
X76200000Y-86360000D01*
X68072000Y-98044000D02*
X69850000Y-96266000D01*
X114173000Y-74803000D02*
X116840000Y-77470000D01*
X84074000Y-79756000D02*
X72644000Y-79756000D01*
X105664000Y-85852000D02*
X111252000Y-91440000D01*
X111252000Y-91440000D02*
X122936000Y-91440000D01*
X94996000Y-91440000D02*
X100076000Y-96520000D01*
X81280000Y-72390000D02*
X86360000Y-77470000D01*
X59944000Y-98044000D02*
X68072000Y-98044000D01*
%TO.N,S1_12*%
X76200000Y-69850000D02*
X83316511Y-62733489D01*
X83316511Y-62733489D02*
X98089489Y-62733489D01*
X98089489Y-62733489D02*
X99339000Y-63983000D01*
%TO.N,S2_11*%
X127483000Y-102641000D02*
X135636000Y-94488000D01*
X109220000Y-102641000D02*
X127483000Y-102641000D01*
X135636000Y-94488000D02*
X135636000Y-88900000D01*
%TO.N,S2_12*%
X128524000Y-103632000D02*
X135636000Y-96520000D01*
X128265489Y-103890511D02*
X128524000Y-103632000D01*
X107929511Y-103890511D02*
X128265489Y-103890511D01*
X106680000Y-102641000D02*
X107929511Y-103890511D01*
%TO.N,S1_13*%
X101879000Y-72669000D02*
X106680000Y-77470000D01*
X101879000Y-63983000D02*
X101879000Y-72669000D01*
%TO.N,S1_14*%
X104419000Y-63983000D02*
X104419000Y-67589000D01*
X104419000Y-67589000D02*
X106680000Y-69850000D01*
%TO.N,S2_13*%
X105156000Y-88900000D02*
X106934000Y-90678000D01*
X104140000Y-102641000D02*
X106934000Y-99847000D01*
X106934000Y-99847000D02*
X106934000Y-90678000D01*
%TO.N,S2_14*%
X101600000Y-100076000D02*
X105156000Y-96520000D01*
X101600000Y-102641000D02*
X101600000Y-100076000D01*
%TO.N,S1_15*%
X106959000Y-63983000D02*
X109524000Y-66548000D01*
X126492000Y-66548000D02*
X125984000Y-66548000D01*
X128524000Y-68580000D02*
X126492000Y-66548000D01*
X128524000Y-72644000D02*
X128524000Y-68580000D01*
X109524000Y-66548000D02*
X117348000Y-66548000D01*
X125984000Y-66548000D02*
X117348000Y-66548000D01*
X133350000Y-77470000D02*
X128524000Y-72644000D01*
%TO.N,S1_16*%
X109499000Y-63983000D02*
X127483000Y-63983000D01*
X127483000Y-63983000D02*
X133350000Y-69850000D01*
%TO.N,S2_15*%
X85313056Y-100584000D02*
X74930000Y-90200944D01*
X97003000Y-100584000D02*
X85313056Y-100584000D01*
X99060000Y-102641000D02*
X97003000Y-100584000D01*
X74930000Y-90200944D02*
X74930000Y-88646000D01*
%TO.N,S2_16*%
X92481000Y-102641000D02*
X92456000Y-102616000D01*
X96520000Y-102641000D02*
X92481000Y-102641000D01*
X81280000Y-102616000D02*
X74930000Y-96266000D01*
X92456000Y-102616000D02*
X81280000Y-102616000D01*
%TD*%
%TA.AperFunction,Conductor*%
%TO.N,GND*%
G36*
X148814018Y-57406000D02*
G01*
X148828851Y-57408310D01*
X148828855Y-57408310D01*
X148837724Y-57409691D01*
X148852981Y-57407696D01*
X148878302Y-57406953D01*
X149026629Y-57417562D01*
X149051826Y-57419364D01*
X149069620Y-57421922D01*
X149264420Y-57464298D01*
X149281661Y-57469360D01*
X149468455Y-57539032D01*
X149484790Y-57546493D01*
X149659758Y-57642033D01*
X149674882Y-57651752D01*
X149834469Y-57771218D01*
X149848055Y-57782991D01*
X149989009Y-57923945D01*
X150000782Y-57937531D01*
X150120248Y-58097118D01*
X150129967Y-58112242D01*
X150225507Y-58287210D01*
X150232968Y-58303545D01*
X150302640Y-58490339D01*
X150307702Y-58507580D01*
X150350078Y-58702380D01*
X150352636Y-58720174D01*
X150364539Y-58886601D01*
X150363793Y-58904561D01*
X150363692Y-58912846D01*
X150362309Y-58921724D01*
X150363474Y-58930630D01*
X150366436Y-58953283D01*
X150367500Y-58969621D01*
X150367500Y-107646633D01*
X150366000Y-107666018D01*
X150363690Y-107680851D01*
X150363690Y-107680855D01*
X150362309Y-107689724D01*
X150364136Y-107703693D01*
X150364304Y-107704976D01*
X150365047Y-107730305D01*
X150352636Y-107903826D01*
X150350078Y-107921620D01*
X150307702Y-108116420D01*
X150302640Y-108133661D01*
X150232968Y-108320455D01*
X150225507Y-108336790D01*
X150129967Y-108511758D01*
X150120248Y-108526882D01*
X150000782Y-108686469D01*
X149989009Y-108700055D01*
X149848055Y-108841009D01*
X149834469Y-108852782D01*
X149674882Y-108972248D01*
X149659758Y-108981967D01*
X149484790Y-109077507D01*
X149468455Y-109084968D01*
X149281661Y-109154640D01*
X149264420Y-109159702D01*
X149069620Y-109202078D01*
X149051826Y-109204636D01*
X148885399Y-109216539D01*
X148867439Y-109215793D01*
X148859154Y-109215692D01*
X148850276Y-109214309D01*
X148818714Y-109218436D01*
X148802379Y-109219500D01*
X51357367Y-109219500D01*
X51337982Y-109218000D01*
X51323149Y-109215690D01*
X51323145Y-109215690D01*
X51314276Y-109214309D01*
X51299019Y-109216304D01*
X51273698Y-109217047D01*
X51125371Y-109206438D01*
X51100174Y-109204636D01*
X51082380Y-109202078D01*
X50887580Y-109159702D01*
X50870339Y-109154640D01*
X50683545Y-109084968D01*
X50667210Y-109077507D01*
X50492242Y-108981967D01*
X50477118Y-108972248D01*
X50317531Y-108852782D01*
X50303945Y-108841009D01*
X50162991Y-108700055D01*
X50151218Y-108686469D01*
X50031752Y-108526882D01*
X50022033Y-108511758D01*
X49926493Y-108336790D01*
X49919032Y-108320455D01*
X49849360Y-108133661D01*
X49844298Y-108116420D01*
X49801922Y-107921620D01*
X49799364Y-107903826D01*
X49787719Y-107741012D01*
X49788806Y-107718245D01*
X49788334Y-107718203D01*
X49788770Y-107713345D01*
X49789576Y-107708552D01*
X49789729Y-107696000D01*
X49785773Y-107668376D01*
X49784500Y-107650514D01*
X49784500Y-93509352D01*
X54659275Y-93509352D01*
X54660580Y-93516829D01*
X54660580Y-93516830D01*
X54670261Y-93572299D01*
X54671223Y-93578821D01*
X54678898Y-93642242D01*
X54681581Y-93649343D01*
X54682222Y-93651952D01*
X54686685Y-93668262D01*
X54687450Y-93670798D01*
X54688757Y-93678284D01*
X54691811Y-93685241D01*
X54714442Y-93736795D01*
X54716933Y-93742899D01*
X54739513Y-93802656D01*
X54743817Y-93808919D01*
X54745054Y-93811285D01*
X54753299Y-93826097D01*
X54754632Y-93828351D01*
X54757685Y-93835305D01*
X54762307Y-93841328D01*
X54796579Y-93885991D01*
X54800459Y-93891332D01*
X54832339Y-93937720D01*
X54832344Y-93937725D01*
X54836643Y-93943981D01*
X54842313Y-93949032D01*
X54842314Y-93949034D01*
X54883170Y-93985435D01*
X54888446Y-93990416D01*
X59422557Y-98524528D01*
X59428411Y-98530793D01*
X59466439Y-98574385D01*
X59518729Y-98611136D01*
X59523971Y-98615028D01*
X59574282Y-98654476D01*
X59581201Y-98657600D01*
X59583493Y-98658988D01*
X59598165Y-98667357D01*
X59600525Y-98668622D01*
X59606739Y-98672990D01*
X59613818Y-98675750D01*
X59613820Y-98675751D01*
X59666275Y-98696202D01*
X59672344Y-98698753D01*
X59730573Y-98725045D01*
X59738046Y-98726430D01*
X59740612Y-98727234D01*
X59756835Y-98731855D01*
X59759427Y-98732520D01*
X59766509Y-98735282D01*
X59774044Y-98736274D01*
X59829861Y-98743622D01*
X59836377Y-98744654D01*
X59874770Y-98751770D01*
X59899186Y-98756295D01*
X59906766Y-98755858D01*
X59906767Y-98755858D01*
X59961380Y-98752709D01*
X59968633Y-98752500D01*
X68043088Y-98752500D01*
X68051658Y-98752792D01*
X68101776Y-98756209D01*
X68101780Y-98756209D01*
X68109352Y-98756725D01*
X68116829Y-98755420D01*
X68116830Y-98755420D01*
X68143308Y-98750799D01*
X68172303Y-98745738D01*
X68178821Y-98744777D01*
X68242242Y-98737102D01*
X68249343Y-98734419D01*
X68251952Y-98733778D01*
X68268262Y-98729315D01*
X68270798Y-98728550D01*
X68278284Y-98727243D01*
X68336800Y-98701556D01*
X68342904Y-98699065D01*
X68395548Y-98679173D01*
X68395549Y-98679172D01*
X68402656Y-98676487D01*
X68408919Y-98672183D01*
X68411285Y-98670946D01*
X68426097Y-98662701D01*
X68428351Y-98661368D01*
X68435305Y-98658315D01*
X68486002Y-98619413D01*
X68491332Y-98615541D01*
X68537720Y-98583661D01*
X68537725Y-98583656D01*
X68543981Y-98579357D01*
X68585436Y-98532829D01*
X68590416Y-98527554D01*
X69614294Y-97503676D01*
X69676606Y-97469650D01*
X69714371Y-97467250D01*
X69844525Y-97478637D01*
X69850000Y-97479116D01*
X70060655Y-97460686D01*
X70065968Y-97459262D01*
X70065970Y-97459262D01*
X70259600Y-97407379D01*
X70259602Y-97407378D01*
X70264910Y-97405956D01*
X70295302Y-97391784D01*
X70451577Y-97318912D01*
X70451580Y-97318910D01*
X70456558Y-97316589D01*
X70629776Y-97195301D01*
X70779301Y-97045776D01*
X70900589Y-96872558D01*
X70961335Y-96742289D01*
X70987633Y-96685892D01*
X70987634Y-96685891D01*
X70989956Y-96680910D01*
X70997378Y-96653213D01*
X71043262Y-96481970D01*
X71043262Y-96481968D01*
X71044686Y-96476655D01*
X71063116Y-96266000D01*
X71044686Y-96055345D01*
X71017530Y-95953997D01*
X70991379Y-95856400D01*
X70991378Y-95856398D01*
X70989956Y-95851090D01*
X70987633Y-95846108D01*
X70902912Y-95664423D01*
X70902910Y-95664420D01*
X70900589Y-95659442D01*
X70779301Y-95486224D01*
X70629776Y-95336699D01*
X70456558Y-95215411D01*
X70451580Y-95213090D01*
X70451577Y-95213088D01*
X70269892Y-95128367D01*
X70269891Y-95128366D01*
X70264910Y-95126044D01*
X70259602Y-95124622D01*
X70259600Y-95124621D01*
X70065970Y-95072738D01*
X70065968Y-95072738D01*
X70060655Y-95071314D01*
X69850000Y-95052884D01*
X69844525Y-95053363D01*
X69714371Y-95064750D01*
X69644766Y-95050761D01*
X69614294Y-95028324D01*
X65515405Y-90929435D01*
X65481379Y-90867123D01*
X65478500Y-90840340D01*
X65478500Y-89690801D01*
X65487467Y-89660261D01*
X69200294Y-89660261D01*
X69209590Y-89672276D01*
X69239189Y-89693001D01*
X69248677Y-89698479D01*
X69430277Y-89783159D01*
X69440571Y-89786907D01*
X69634122Y-89838769D01*
X69644909Y-89840671D01*
X69844525Y-89858135D01*
X69855475Y-89858135D01*
X70055091Y-89840671D01*
X70065878Y-89838769D01*
X70259429Y-89786907D01*
X70269723Y-89783159D01*
X70451323Y-89698479D01*
X70460811Y-89693001D01*
X70491248Y-89671689D01*
X70499623Y-89661212D01*
X70492554Y-89647764D01*
X69862812Y-89018022D01*
X69848868Y-89010408D01*
X69847035Y-89010539D01*
X69840420Y-89014790D01*
X69206724Y-89648486D01*
X69200294Y-89660261D01*
X65487467Y-89660261D01*
X65498502Y-89622680D01*
X65532228Y-89587589D01*
X65545262Y-89578462D01*
X65545264Y-89578460D01*
X65549776Y-89575301D01*
X65699301Y-89425776D01*
X65820589Y-89252558D01*
X65823839Y-89245590D01*
X65907633Y-89065892D01*
X65907634Y-89065891D01*
X65909956Y-89060910D01*
X65920542Y-89021405D01*
X65963262Y-88861970D01*
X65963262Y-88861968D01*
X65964686Y-88856655D01*
X65982637Y-88651475D01*
X68637865Y-88651475D01*
X68655329Y-88851091D01*
X68657231Y-88861878D01*
X68709093Y-89055429D01*
X68712841Y-89065723D01*
X68797521Y-89247323D01*
X68802999Y-89256811D01*
X68824311Y-89287248D01*
X68834788Y-89295623D01*
X68848236Y-89288554D01*
X69477978Y-88658812D01*
X69484356Y-88647132D01*
X70214408Y-88647132D01*
X70214539Y-88648965D01*
X70218790Y-88655580D01*
X70852486Y-89289276D01*
X70864261Y-89295706D01*
X70876276Y-89286410D01*
X70897001Y-89256811D01*
X70902479Y-89247323D01*
X70987159Y-89065723D01*
X70990907Y-89055429D01*
X71042769Y-88861878D01*
X71044671Y-88851091D01*
X71062135Y-88651475D01*
X71062135Y-88640525D01*
X71044671Y-88440909D01*
X71042769Y-88430122D01*
X70990907Y-88236571D01*
X70987159Y-88226277D01*
X70902479Y-88044677D01*
X70897001Y-88035189D01*
X70875689Y-88004752D01*
X70865212Y-87996377D01*
X70851764Y-88003446D01*
X70222022Y-88633188D01*
X70214408Y-88647132D01*
X69484356Y-88647132D01*
X69485592Y-88644868D01*
X69485461Y-88643035D01*
X69481210Y-88636420D01*
X68847514Y-88002724D01*
X68835739Y-87996294D01*
X68823724Y-88005590D01*
X68802999Y-88035189D01*
X68797521Y-88044677D01*
X68712841Y-88226277D01*
X68709093Y-88236571D01*
X68657231Y-88430122D01*
X68655329Y-88440909D01*
X68637865Y-88640525D01*
X68637865Y-88651475D01*
X65982637Y-88651475D01*
X65983116Y-88646000D01*
X65977207Y-88578460D01*
X65971250Y-88510371D01*
X65985239Y-88440766D01*
X66007676Y-88410294D01*
X66657927Y-87760044D01*
X66787183Y-87630788D01*
X69200377Y-87630788D01*
X69207446Y-87644236D01*
X69837188Y-88273978D01*
X69851132Y-88281592D01*
X69852965Y-88281461D01*
X69859580Y-88277210D01*
X70493276Y-87643514D01*
X70499706Y-87631739D01*
X70490410Y-87619724D01*
X70460811Y-87598999D01*
X70451323Y-87593521D01*
X70269723Y-87508841D01*
X70259429Y-87505093D01*
X70065878Y-87453231D01*
X70055091Y-87451329D01*
X69855475Y-87433865D01*
X69844525Y-87433865D01*
X69644909Y-87451329D01*
X69634122Y-87453231D01*
X69440571Y-87505093D01*
X69430277Y-87508841D01*
X69248677Y-87593521D01*
X69239189Y-87598999D01*
X69208752Y-87620311D01*
X69200377Y-87630788D01*
X66787183Y-87630788D01*
X67312566Y-87105405D01*
X67374878Y-87071379D01*
X67401661Y-87068500D01*
X75854340Y-87068500D01*
X75922461Y-87088502D01*
X75943435Y-87105405D01*
X81266557Y-92428528D01*
X81272411Y-92434793D01*
X81310439Y-92478385D01*
X81362729Y-92515136D01*
X81367971Y-92519028D01*
X81418282Y-92558476D01*
X81425201Y-92561600D01*
X81427493Y-92562988D01*
X81442165Y-92571357D01*
X81444525Y-92572622D01*
X81450739Y-92576990D01*
X81457818Y-92579750D01*
X81457820Y-92579751D01*
X81510275Y-92600202D01*
X81516344Y-92602753D01*
X81574573Y-92629045D01*
X81582046Y-92630430D01*
X81584612Y-92631234D01*
X81600835Y-92635855D01*
X81603427Y-92636520D01*
X81610509Y-92639282D01*
X81618044Y-92640274D01*
X81673861Y-92647622D01*
X81680377Y-92648654D01*
X81718770Y-92655770D01*
X81743186Y-92660295D01*
X81750766Y-92659858D01*
X81750767Y-92659858D01*
X81805380Y-92656709D01*
X81812633Y-92656500D01*
X91919088Y-92656500D01*
X91927658Y-92656792D01*
X91977776Y-92660209D01*
X91977780Y-92660209D01*
X91985352Y-92660725D01*
X91992829Y-92659420D01*
X91992830Y-92659420D01*
X92019308Y-92654799D01*
X92048303Y-92649738D01*
X92054821Y-92648777D01*
X92118242Y-92641102D01*
X92125343Y-92638419D01*
X92127952Y-92637778D01*
X92144262Y-92633315D01*
X92146798Y-92632550D01*
X92154284Y-92631243D01*
X92212800Y-92605556D01*
X92218904Y-92603065D01*
X92271548Y-92583173D01*
X92271549Y-92583172D01*
X92278656Y-92580487D01*
X92284919Y-92576183D01*
X92287285Y-92574946D01*
X92302097Y-92566701D01*
X92304351Y-92565368D01*
X92311305Y-92562315D01*
X92362002Y-92523413D01*
X92367332Y-92519541D01*
X92413720Y-92487661D01*
X92413725Y-92487656D01*
X92419981Y-92483357D01*
X92461436Y-92436829D01*
X92466416Y-92431554D01*
X94072405Y-90825565D01*
X94134717Y-90791539D01*
X94205532Y-90796604D01*
X94262368Y-90839151D01*
X94287179Y-90905671D01*
X94287500Y-90914660D01*
X94287500Y-91411088D01*
X94287208Y-91419658D01*
X94283275Y-91477352D01*
X94284580Y-91484829D01*
X94284580Y-91484830D01*
X94294261Y-91540299D01*
X94295223Y-91546821D01*
X94302898Y-91610242D01*
X94305581Y-91617343D01*
X94306222Y-91619952D01*
X94310685Y-91636262D01*
X94311450Y-91638798D01*
X94312757Y-91646284D01*
X94338276Y-91704416D01*
X94338442Y-91704795D01*
X94340933Y-91710899D01*
X94363513Y-91770656D01*
X94367817Y-91776919D01*
X94369054Y-91779285D01*
X94377299Y-91794097D01*
X94378632Y-91796351D01*
X94381685Y-91803305D01*
X94386307Y-91809328D01*
X94420579Y-91853991D01*
X94424459Y-91859332D01*
X94456339Y-91905720D01*
X94456344Y-91905725D01*
X94460643Y-91911981D01*
X94466313Y-91917032D01*
X94466314Y-91917034D01*
X94507170Y-91953435D01*
X94512446Y-91958416D01*
X98838324Y-96284294D01*
X98872350Y-96346606D01*
X98874750Y-96384371D01*
X98866676Y-96476655D01*
X98862884Y-96520000D01*
X98881314Y-96730655D01*
X98882738Y-96735968D01*
X98882738Y-96735970D01*
X98928623Y-96907213D01*
X98936044Y-96934910D01*
X98938366Y-96939891D01*
X98938367Y-96939892D01*
X98987742Y-97045776D01*
X99025411Y-97126558D01*
X99146699Y-97299776D01*
X99296224Y-97449301D01*
X99469442Y-97570589D01*
X99474420Y-97572910D01*
X99474423Y-97572912D01*
X99655092Y-97657159D01*
X99661090Y-97659956D01*
X99666398Y-97661378D01*
X99666400Y-97661379D01*
X99860030Y-97713262D01*
X99860032Y-97713262D01*
X99865345Y-97714686D01*
X100076000Y-97733116D01*
X100286655Y-97714686D01*
X100291968Y-97713262D01*
X100291970Y-97713262D01*
X100485600Y-97661379D01*
X100485602Y-97661378D01*
X100490910Y-97659956D01*
X100496908Y-97657159D01*
X100677577Y-97572912D01*
X100677580Y-97572910D01*
X100682558Y-97570589D01*
X100855776Y-97449301D01*
X101005301Y-97299776D01*
X101126589Y-97126558D01*
X101164259Y-97045776D01*
X101213633Y-96939892D01*
X101213634Y-96939891D01*
X101215956Y-96934910D01*
X101223378Y-96907213D01*
X101269262Y-96735970D01*
X101269262Y-96735968D01*
X101270686Y-96730655D01*
X101289116Y-96520000D01*
X101270686Y-96309345D01*
X101259072Y-96266000D01*
X101217379Y-96110400D01*
X101217378Y-96110398D01*
X101215956Y-96105090D01*
X101181078Y-96030294D01*
X101128912Y-95918423D01*
X101128910Y-95918420D01*
X101126589Y-95913442D01*
X101005301Y-95740224D01*
X100855776Y-95590699D01*
X100682558Y-95469411D01*
X100677580Y-95467090D01*
X100677577Y-95467088D01*
X100495892Y-95382367D01*
X100495891Y-95382366D01*
X100490910Y-95380044D01*
X100485602Y-95378622D01*
X100485600Y-95378621D01*
X100291970Y-95326738D01*
X100291968Y-95326738D01*
X100286655Y-95325314D01*
X100076000Y-95306884D01*
X100070525Y-95307363D01*
X99940371Y-95318750D01*
X99870766Y-95304761D01*
X99840294Y-95282324D01*
X95741405Y-91183435D01*
X95707379Y-91121123D01*
X95704500Y-91094340D01*
X95704500Y-89944801D01*
X95713467Y-89914261D01*
X99426294Y-89914261D01*
X99435590Y-89926276D01*
X99465189Y-89947001D01*
X99474677Y-89952479D01*
X99656277Y-90037159D01*
X99666571Y-90040907D01*
X99860122Y-90092769D01*
X99870909Y-90094671D01*
X100070525Y-90112135D01*
X100081475Y-90112135D01*
X100281091Y-90094671D01*
X100291878Y-90092769D01*
X100485429Y-90040907D01*
X100495723Y-90037159D01*
X100677323Y-89952479D01*
X100686811Y-89947001D01*
X100717248Y-89925689D01*
X100725623Y-89915212D01*
X100718554Y-89901764D01*
X100088812Y-89272022D01*
X100074868Y-89264408D01*
X100073035Y-89264539D01*
X100066420Y-89268790D01*
X99432724Y-89902486D01*
X99426294Y-89914261D01*
X95713467Y-89914261D01*
X95724502Y-89876680D01*
X95758228Y-89841589D01*
X95771262Y-89832462D01*
X95771264Y-89832460D01*
X95775776Y-89829301D01*
X95925301Y-89679776D01*
X96046589Y-89506558D01*
X96053145Y-89492500D01*
X96133633Y-89319892D01*
X96133634Y-89319891D01*
X96135956Y-89314910D01*
X96146542Y-89275405D01*
X96189262Y-89115970D01*
X96189262Y-89115968D01*
X96190686Y-89110655D01*
X96208637Y-88905475D01*
X98863865Y-88905475D01*
X98881329Y-89105091D01*
X98883231Y-89115878D01*
X98935093Y-89309429D01*
X98938841Y-89319723D01*
X99023521Y-89501323D01*
X99028999Y-89510811D01*
X99050311Y-89541248D01*
X99060788Y-89549623D01*
X99074236Y-89542554D01*
X99703978Y-88912812D01*
X99710356Y-88901132D01*
X100440408Y-88901132D01*
X100440539Y-88902965D01*
X100444790Y-88909580D01*
X101078486Y-89543276D01*
X101090261Y-89549706D01*
X101102276Y-89540410D01*
X101123001Y-89510811D01*
X101128479Y-89501323D01*
X101213159Y-89319723D01*
X101216907Y-89309429D01*
X101268769Y-89115878D01*
X101270671Y-89105091D01*
X101288135Y-88905475D01*
X101288135Y-88894525D01*
X101270671Y-88694909D01*
X101268769Y-88684122D01*
X101216907Y-88490571D01*
X101213159Y-88480277D01*
X101128479Y-88298677D01*
X101123001Y-88289189D01*
X101101689Y-88258752D01*
X101091212Y-88250377D01*
X101077764Y-88257446D01*
X100448022Y-88887188D01*
X100440408Y-88901132D01*
X99710356Y-88901132D01*
X99711592Y-88898868D01*
X99711461Y-88897035D01*
X99707210Y-88890420D01*
X99073514Y-88256724D01*
X99061739Y-88250294D01*
X99049724Y-88259590D01*
X99028999Y-88289189D01*
X99023521Y-88298677D01*
X98938841Y-88480277D01*
X98935093Y-88490571D01*
X98883231Y-88684122D01*
X98881329Y-88694909D01*
X98863865Y-88894525D01*
X98863865Y-88905475D01*
X96208637Y-88905475D01*
X96209116Y-88900000D01*
X96197250Y-88764371D01*
X96211239Y-88694766D01*
X96233676Y-88664294D01*
X97013182Y-87884788D01*
X99426377Y-87884788D01*
X99433446Y-87898236D01*
X100063188Y-88527978D01*
X100077132Y-88535592D01*
X100078965Y-88535461D01*
X100085580Y-88531210D01*
X100719276Y-87897514D01*
X100725706Y-87885739D01*
X100716410Y-87873724D01*
X100686811Y-87852999D01*
X100677323Y-87847521D01*
X100495723Y-87762841D01*
X100485429Y-87759093D01*
X100291878Y-87707231D01*
X100281091Y-87705329D01*
X100081475Y-87687865D01*
X100070525Y-87687865D01*
X99870909Y-87705329D01*
X99860122Y-87707231D01*
X99666571Y-87759093D01*
X99656277Y-87762841D01*
X99474677Y-87847521D01*
X99465189Y-87852999D01*
X99434752Y-87874311D01*
X99426377Y-87884788D01*
X97013182Y-87884788D01*
X98300565Y-86597405D01*
X98362877Y-86563379D01*
X98389660Y-86560500D01*
X105318340Y-86560500D01*
X105386461Y-86580502D01*
X105407435Y-86597405D01*
X108070344Y-89260315D01*
X110730557Y-91920528D01*
X110736411Y-91926793D01*
X110763998Y-91958416D01*
X110774439Y-91970385D01*
X110826729Y-92007136D01*
X110831971Y-92011028D01*
X110882282Y-92050476D01*
X110889201Y-92053600D01*
X110891493Y-92054988D01*
X110906165Y-92063357D01*
X110908525Y-92064622D01*
X110914739Y-92068990D01*
X110921818Y-92071750D01*
X110921820Y-92071751D01*
X110974275Y-92092202D01*
X110980344Y-92094753D01*
X111038573Y-92121045D01*
X111046046Y-92122430D01*
X111048612Y-92123234D01*
X111064835Y-92127855D01*
X111067427Y-92128520D01*
X111074509Y-92131282D01*
X111082044Y-92132274D01*
X111137861Y-92139622D01*
X111144377Y-92140654D01*
X111182770Y-92147770D01*
X111207186Y-92152295D01*
X111214766Y-92151858D01*
X111214767Y-92151858D01*
X111269380Y-92148709D01*
X111276633Y-92148500D01*
X122907088Y-92148500D01*
X122915658Y-92148792D01*
X122965776Y-92152209D01*
X122965780Y-92152209D01*
X122973352Y-92152725D01*
X122980829Y-92151420D01*
X122980830Y-92151420D01*
X123007308Y-92146799D01*
X123036303Y-92141738D01*
X123042821Y-92140777D01*
X123106242Y-92133102D01*
X123113343Y-92130419D01*
X123115952Y-92129778D01*
X123132262Y-92125315D01*
X123134798Y-92124550D01*
X123142284Y-92123243D01*
X123200800Y-92097556D01*
X123206904Y-92095065D01*
X123259548Y-92075173D01*
X123259549Y-92075172D01*
X123266656Y-92072487D01*
X123272919Y-92068183D01*
X123275285Y-92066946D01*
X123290097Y-92058701D01*
X123292351Y-92057368D01*
X123299305Y-92054315D01*
X123350002Y-92015413D01*
X123355332Y-92011541D01*
X123401720Y-91979661D01*
X123401725Y-91979656D01*
X123407981Y-91975357D01*
X123449436Y-91928829D01*
X123454416Y-91923554D01*
X124552405Y-90825566D01*
X124614717Y-90791540D01*
X124685533Y-90796605D01*
X124742368Y-90839152D01*
X124767179Y-90905672D01*
X124767500Y-90914661D01*
X124767500Y-91411088D01*
X124767208Y-91419658D01*
X124763275Y-91477352D01*
X124764580Y-91484829D01*
X124764580Y-91484830D01*
X124774261Y-91540299D01*
X124775223Y-91546821D01*
X124782898Y-91610242D01*
X124785581Y-91617343D01*
X124786222Y-91619952D01*
X124790685Y-91636262D01*
X124791450Y-91638798D01*
X124792757Y-91646284D01*
X124818276Y-91704416D01*
X124818442Y-91704795D01*
X124820933Y-91710899D01*
X124843513Y-91770656D01*
X124847817Y-91776919D01*
X124849054Y-91779285D01*
X124857299Y-91794097D01*
X124858632Y-91796351D01*
X124861685Y-91803305D01*
X124866307Y-91809328D01*
X124900579Y-91853991D01*
X124904459Y-91859332D01*
X124936339Y-91905720D01*
X124936344Y-91905725D01*
X124940643Y-91911981D01*
X124946313Y-91917032D01*
X124946314Y-91917034D01*
X124987170Y-91953435D01*
X124992446Y-91958416D01*
X129318324Y-96284294D01*
X129352350Y-96346606D01*
X129354750Y-96384371D01*
X129346676Y-96476655D01*
X129342884Y-96520000D01*
X129361314Y-96730655D01*
X129362738Y-96735968D01*
X129362738Y-96735970D01*
X129408623Y-96907213D01*
X129416044Y-96934910D01*
X129418366Y-96939891D01*
X129418367Y-96939892D01*
X129467742Y-97045776D01*
X129505411Y-97126558D01*
X129626699Y-97299776D01*
X129776224Y-97449301D01*
X129949442Y-97570589D01*
X129954420Y-97572910D01*
X129954423Y-97572912D01*
X130135092Y-97657159D01*
X130141090Y-97659956D01*
X130146398Y-97661378D01*
X130146400Y-97661379D01*
X130340030Y-97713262D01*
X130340032Y-97713262D01*
X130345345Y-97714686D01*
X130556000Y-97733116D01*
X130766655Y-97714686D01*
X130771968Y-97713262D01*
X130771970Y-97713262D01*
X130965600Y-97661379D01*
X130965602Y-97661378D01*
X130970910Y-97659956D01*
X130976908Y-97657159D01*
X131157577Y-97572912D01*
X131157580Y-97572910D01*
X131162558Y-97570589D01*
X131280005Y-97488352D01*
X131347279Y-97465664D01*
X131416139Y-97482949D01*
X131464723Y-97534719D01*
X131477605Y-97604537D01*
X131450697Y-97670236D01*
X131441370Y-97680660D01*
X127226435Y-101895595D01*
X127164123Y-101929621D01*
X127137340Y-101932500D01*
X110704500Y-101932500D01*
X110636379Y-101912498D01*
X110589886Y-101858842D01*
X110578500Y-101806500D01*
X110578500Y-101742866D01*
X110571745Y-101680684D01*
X110520615Y-101544295D01*
X110433261Y-101427739D01*
X110316705Y-101340385D01*
X110180316Y-101289255D01*
X110118134Y-101282500D01*
X108321866Y-101282500D01*
X108259684Y-101289255D01*
X108123295Y-101340385D01*
X108006739Y-101427739D01*
X107919385Y-101544295D01*
X107916233Y-101552703D01*
X107874919Y-101662907D01*
X107832277Y-101719671D01*
X107765716Y-101744371D01*
X107696367Y-101729163D01*
X107663743Y-101703476D01*
X107613151Y-101647875D01*
X107613142Y-101647866D01*
X107609670Y-101644051D01*
X107605619Y-101640852D01*
X107605615Y-101640848D01*
X107438414Y-101508800D01*
X107438410Y-101508798D01*
X107434359Y-101505598D01*
X107426052Y-101501012D01*
X107309064Y-101436432D01*
X107238789Y-101397638D01*
X107233920Y-101395914D01*
X107233916Y-101395912D01*
X107033087Y-101324795D01*
X107033083Y-101324794D01*
X107028212Y-101323069D01*
X107023119Y-101322162D01*
X107023116Y-101322161D01*
X106813373Y-101284800D01*
X106813367Y-101284799D01*
X106808284Y-101283894D01*
X106801801Y-101283815D01*
X106801290Y-101283658D01*
X106797961Y-101283343D01*
X106798026Y-101282656D01*
X106733930Y-101262985D01*
X106688093Y-101208767D01*
X106678846Y-101138375D01*
X106709123Y-101074158D01*
X106714241Y-101068729D01*
X107414520Y-100368450D01*
X107420785Y-100362596D01*
X107458660Y-100329555D01*
X107464385Y-100324561D01*
X107501114Y-100272300D01*
X107505046Y-100267005D01*
X107539791Y-100222694D01*
X107544477Y-100216718D01*
X107547602Y-100209796D01*
X107548964Y-100207548D01*
X107557368Y-100192815D01*
X107558622Y-100190476D01*
X107562990Y-100184261D01*
X107565749Y-100177185D01*
X107565751Y-100177181D01*
X107586200Y-100124731D01*
X107588749Y-100118666D01*
X107615045Y-100060427D01*
X107616429Y-100052962D01*
X107617226Y-100050418D01*
X107621859Y-100034152D01*
X107622521Y-100031572D01*
X107625282Y-100024491D01*
X107633622Y-99961143D01*
X107634653Y-99954629D01*
X107635095Y-99952249D01*
X107646296Y-99891813D01*
X107645356Y-99875500D01*
X107642709Y-99829602D01*
X107642500Y-99822349D01*
X107642500Y-98057431D01*
X115250512Y-98057431D01*
X115304817Y-98283624D01*
X115307866Y-98293009D01*
X115400936Y-98517700D01*
X115405417Y-98526494D01*
X115532496Y-98733867D01*
X115538289Y-98741840D01*
X115696249Y-98926787D01*
X115703213Y-98933751D01*
X115888160Y-99091711D01*
X115896133Y-99097504D01*
X116103506Y-99224583D01*
X116112300Y-99229064D01*
X116336991Y-99322134D01*
X116346376Y-99325183D01*
X116568385Y-99378483D01*
X116582470Y-99377778D01*
X116586000Y-99368899D01*
X116586000Y-99364597D01*
X117094000Y-99364597D01*
X117097973Y-99378128D01*
X117107431Y-99379488D01*
X117333624Y-99325183D01*
X117343009Y-99322134D01*
X117567700Y-99229064D01*
X117576494Y-99224583D01*
X117783867Y-99097504D01*
X117791840Y-99091711D01*
X117976787Y-98933751D01*
X117983751Y-98926787D01*
X118141711Y-98741840D01*
X118147504Y-98733867D01*
X118274583Y-98526494D01*
X118279064Y-98517700D01*
X118372134Y-98293009D01*
X118375183Y-98283624D01*
X118428483Y-98061615D01*
X118427778Y-98047530D01*
X118418899Y-98044000D01*
X117112115Y-98044000D01*
X117096876Y-98048475D01*
X117095671Y-98049865D01*
X117094000Y-98057548D01*
X117094000Y-99364597D01*
X116586000Y-99364597D01*
X116586000Y-98062115D01*
X116581525Y-98046876D01*
X116580135Y-98045671D01*
X116572452Y-98044000D01*
X115265403Y-98044000D01*
X115251872Y-98047973D01*
X115250512Y-98057431D01*
X107642500Y-98057431D01*
X107642500Y-97534261D01*
X112126294Y-97534261D01*
X112135590Y-97546276D01*
X112165189Y-97567001D01*
X112174677Y-97572479D01*
X112356277Y-97657159D01*
X112366571Y-97660907D01*
X112560122Y-97712769D01*
X112570909Y-97714671D01*
X112770525Y-97732135D01*
X112781475Y-97732135D01*
X112981091Y-97714671D01*
X112991878Y-97712769D01*
X113185429Y-97660907D01*
X113195723Y-97657159D01*
X113377323Y-97572479D01*
X113386811Y-97567001D01*
X113417248Y-97545689D01*
X113425623Y-97535212D01*
X113418554Y-97521764D01*
X113415175Y-97518385D01*
X115251517Y-97518385D01*
X115252222Y-97532470D01*
X115261101Y-97536000D01*
X116567885Y-97536000D01*
X116583124Y-97531525D01*
X116584329Y-97530135D01*
X116586000Y-97522452D01*
X116586000Y-97517885D01*
X117094000Y-97517885D01*
X117098475Y-97533124D01*
X117099865Y-97534329D01*
X117107548Y-97536000D01*
X118414597Y-97536000D01*
X118420520Y-97534261D01*
X124826294Y-97534261D01*
X124835590Y-97546276D01*
X124865189Y-97567001D01*
X124874677Y-97572479D01*
X125056277Y-97657159D01*
X125066571Y-97660907D01*
X125260122Y-97712769D01*
X125270909Y-97714671D01*
X125470525Y-97732135D01*
X125481475Y-97732135D01*
X125681091Y-97714671D01*
X125691878Y-97712769D01*
X125885429Y-97660907D01*
X125895723Y-97657159D01*
X126077323Y-97572479D01*
X126086811Y-97567001D01*
X126117248Y-97545689D01*
X126125623Y-97535212D01*
X126118554Y-97521764D01*
X125488812Y-96892022D01*
X125474868Y-96884408D01*
X125473035Y-96884539D01*
X125466420Y-96888790D01*
X124832724Y-97522486D01*
X124826294Y-97534261D01*
X118420520Y-97534261D01*
X118428128Y-97532027D01*
X118429488Y-97522569D01*
X118375183Y-97296376D01*
X118372134Y-97286991D01*
X118279064Y-97062300D01*
X118274583Y-97053506D01*
X118147504Y-96846133D01*
X118141711Y-96838160D01*
X117983751Y-96653213D01*
X117976787Y-96646249D01*
X117835379Y-96525475D01*
X124263865Y-96525475D01*
X124281329Y-96725091D01*
X124283231Y-96735878D01*
X124335093Y-96929429D01*
X124338841Y-96939723D01*
X124423521Y-97121323D01*
X124428999Y-97130811D01*
X124450311Y-97161248D01*
X124460788Y-97169623D01*
X124474236Y-97162554D01*
X125103978Y-96532812D01*
X125110356Y-96521132D01*
X125840408Y-96521132D01*
X125840539Y-96522965D01*
X125844790Y-96529580D01*
X126478486Y-97163276D01*
X126490261Y-97169706D01*
X126502276Y-97160410D01*
X126523001Y-97130811D01*
X126528479Y-97121323D01*
X126613159Y-96939723D01*
X126616907Y-96929429D01*
X126668769Y-96735878D01*
X126670671Y-96725091D01*
X126688135Y-96525475D01*
X126688135Y-96514525D01*
X126670671Y-96314909D01*
X126668769Y-96304122D01*
X126616907Y-96110571D01*
X126613159Y-96100277D01*
X126528479Y-95918677D01*
X126523001Y-95909189D01*
X126501689Y-95878752D01*
X126491212Y-95870377D01*
X126477764Y-95877446D01*
X125848022Y-96507188D01*
X125840408Y-96521132D01*
X125110356Y-96521132D01*
X125111592Y-96518868D01*
X125111461Y-96517035D01*
X125107210Y-96510420D01*
X124473514Y-95876724D01*
X124461739Y-95870294D01*
X124449724Y-95879590D01*
X124428999Y-95909189D01*
X124423521Y-95918677D01*
X124338841Y-96100277D01*
X124335093Y-96110571D01*
X124283231Y-96304122D01*
X124281329Y-96314909D01*
X124263865Y-96514525D01*
X124263865Y-96525475D01*
X117835379Y-96525475D01*
X117791840Y-96488289D01*
X117783867Y-96482496D01*
X117576494Y-96355417D01*
X117567700Y-96350936D01*
X117343009Y-96257866D01*
X117333624Y-96254817D01*
X117111615Y-96201517D01*
X117097530Y-96202222D01*
X117094000Y-96211101D01*
X117094000Y-97517885D01*
X116586000Y-97517885D01*
X116586000Y-96215403D01*
X116582027Y-96201872D01*
X116572569Y-96200512D01*
X116346376Y-96254817D01*
X116336991Y-96257866D01*
X116112300Y-96350936D01*
X116103506Y-96355417D01*
X115896133Y-96482496D01*
X115888160Y-96488289D01*
X115703213Y-96646249D01*
X115696249Y-96653213D01*
X115538289Y-96838160D01*
X115532496Y-96846133D01*
X115405417Y-97053506D01*
X115400936Y-97062300D01*
X115307866Y-97286991D01*
X115304817Y-97296376D01*
X115251517Y-97518385D01*
X113415175Y-97518385D01*
X112788812Y-96892022D01*
X112774868Y-96884408D01*
X112773035Y-96884539D01*
X112766420Y-96888790D01*
X112132724Y-97522486D01*
X112126294Y-97534261D01*
X107642500Y-97534261D01*
X107642500Y-96525475D01*
X111563865Y-96525475D01*
X111581329Y-96725091D01*
X111583231Y-96735878D01*
X111635093Y-96929429D01*
X111638841Y-96939723D01*
X111723521Y-97121323D01*
X111728999Y-97130811D01*
X111750311Y-97161248D01*
X111760788Y-97169623D01*
X111774236Y-97162554D01*
X112403978Y-96532812D01*
X112410356Y-96521132D01*
X113140408Y-96521132D01*
X113140539Y-96522965D01*
X113144790Y-96529580D01*
X113778486Y-97163276D01*
X113790261Y-97169706D01*
X113802276Y-97160410D01*
X113823001Y-97130811D01*
X113828479Y-97121323D01*
X113913159Y-96939723D01*
X113916907Y-96929429D01*
X113968769Y-96735878D01*
X113970671Y-96725091D01*
X113988135Y-96525475D01*
X113988135Y-96514525D01*
X113970671Y-96314909D01*
X113968769Y-96304122D01*
X113916907Y-96110571D01*
X113913159Y-96100277D01*
X113828479Y-95918677D01*
X113823001Y-95909189D01*
X113801689Y-95878752D01*
X113791212Y-95870377D01*
X113777764Y-95877446D01*
X113148022Y-96507188D01*
X113140408Y-96521132D01*
X112410356Y-96521132D01*
X112411592Y-96518868D01*
X112411461Y-96517035D01*
X112407210Y-96510420D01*
X111773514Y-95876724D01*
X111761739Y-95870294D01*
X111749724Y-95879590D01*
X111728999Y-95909189D01*
X111723521Y-95918677D01*
X111638841Y-96100277D01*
X111635093Y-96110571D01*
X111583231Y-96304122D01*
X111581329Y-96314909D01*
X111563865Y-96514525D01*
X111563865Y-96525475D01*
X107642500Y-96525475D01*
X107642500Y-95504788D01*
X112126377Y-95504788D01*
X112133446Y-95518236D01*
X112763188Y-96147978D01*
X112777132Y-96155592D01*
X112778965Y-96155461D01*
X112785580Y-96151210D01*
X113419276Y-95517514D01*
X113425706Y-95505739D01*
X113424970Y-95504788D01*
X124826377Y-95504788D01*
X124833446Y-95518236D01*
X125463188Y-96147978D01*
X125477132Y-96155592D01*
X125478965Y-96155461D01*
X125485580Y-96151210D01*
X126119276Y-95517514D01*
X126125706Y-95505739D01*
X126116410Y-95493724D01*
X126086811Y-95472999D01*
X126077323Y-95467521D01*
X125895723Y-95382841D01*
X125885429Y-95379093D01*
X125691878Y-95327231D01*
X125681091Y-95325329D01*
X125481475Y-95307865D01*
X125470525Y-95307865D01*
X125270909Y-95325329D01*
X125260122Y-95327231D01*
X125066571Y-95379093D01*
X125056277Y-95382841D01*
X124874677Y-95467521D01*
X124865189Y-95472999D01*
X124834752Y-95494311D01*
X124826377Y-95504788D01*
X113424970Y-95504788D01*
X113416410Y-95493724D01*
X113386811Y-95472999D01*
X113377323Y-95467521D01*
X113195723Y-95382841D01*
X113185429Y-95379093D01*
X112991878Y-95327231D01*
X112981091Y-95325329D01*
X112781475Y-95307865D01*
X112770525Y-95307865D01*
X112570909Y-95325329D01*
X112560122Y-95327231D01*
X112366571Y-95379093D01*
X112356277Y-95382841D01*
X112174677Y-95467521D01*
X112165189Y-95472999D01*
X112134752Y-95494311D01*
X112126377Y-95504788D01*
X107642500Y-95504788D01*
X107642500Y-90706927D01*
X107642792Y-90698358D01*
X107646210Y-90648225D01*
X107646210Y-90648221D01*
X107646726Y-90640648D01*
X107635736Y-90577681D01*
X107634775Y-90571165D01*
X107632824Y-90555041D01*
X107627102Y-90507758D01*
X107624419Y-90500657D01*
X107623778Y-90498048D01*
X107619309Y-90481715D01*
X107618548Y-90479195D01*
X107617243Y-90471717D01*
X107614191Y-90464764D01*
X107591559Y-90413204D01*
X107589068Y-90407099D01*
X107569175Y-90354456D01*
X107569173Y-90354452D01*
X107566487Y-90347344D01*
X107562184Y-90341083D01*
X107560947Y-90338717D01*
X107552720Y-90323937D01*
X107551369Y-90321652D01*
X107548315Y-90314695D01*
X107543695Y-90308675D01*
X107543692Y-90308669D01*
X107509421Y-90264009D01*
X107505541Y-90258668D01*
X107473661Y-90212280D01*
X107473656Y-90212275D01*
X107469357Y-90206019D01*
X107436023Y-90176319D01*
X107422830Y-90164565D01*
X107417554Y-90159584D01*
X106393676Y-89135706D01*
X106359650Y-89073394D01*
X106357250Y-89035629D01*
X106368637Y-88905475D01*
X106369116Y-88900000D01*
X106350686Y-88689345D01*
X106339072Y-88646000D01*
X106297379Y-88490400D01*
X106297378Y-88490398D01*
X106295956Y-88485090D01*
X106275315Y-88440825D01*
X106208912Y-88298423D01*
X106208910Y-88298420D01*
X106206589Y-88293442D01*
X106085301Y-88120224D01*
X105935776Y-87970699D01*
X105762558Y-87849411D01*
X105757580Y-87847090D01*
X105757577Y-87847088D01*
X105575892Y-87762367D01*
X105575891Y-87762366D01*
X105570910Y-87760044D01*
X105565602Y-87758622D01*
X105565600Y-87758621D01*
X105371970Y-87706738D01*
X105371968Y-87706738D01*
X105366655Y-87705314D01*
X105156000Y-87686884D01*
X104945345Y-87705314D01*
X104940032Y-87706738D01*
X104940030Y-87706738D01*
X104746400Y-87758621D01*
X104746398Y-87758622D01*
X104741090Y-87760044D01*
X104736109Y-87762366D01*
X104736108Y-87762367D01*
X104554423Y-87847088D01*
X104554420Y-87847090D01*
X104549442Y-87849411D01*
X104376224Y-87970699D01*
X104226699Y-88120224D01*
X104105411Y-88293442D01*
X104103090Y-88298420D01*
X104103088Y-88298423D01*
X104036685Y-88440825D01*
X104016044Y-88485090D01*
X104014622Y-88490398D01*
X104014621Y-88490400D01*
X103972928Y-88646000D01*
X103961314Y-88689345D01*
X103942884Y-88900000D01*
X103961314Y-89110655D01*
X103962738Y-89115968D01*
X103962738Y-89115970D01*
X104005459Y-89275405D01*
X104016044Y-89314910D01*
X104018366Y-89319891D01*
X104018367Y-89319892D01*
X104098856Y-89492500D01*
X104105411Y-89506558D01*
X104226699Y-89679776D01*
X104376224Y-89829301D01*
X104549442Y-89950589D01*
X104554420Y-89952910D01*
X104554423Y-89952912D01*
X104709782Y-90025357D01*
X104741090Y-90039956D01*
X104746398Y-90041378D01*
X104746400Y-90041379D01*
X104940030Y-90093262D01*
X104940032Y-90093262D01*
X104945345Y-90094686D01*
X105156000Y-90113116D01*
X105161475Y-90112637D01*
X105291629Y-90101250D01*
X105361234Y-90115239D01*
X105391706Y-90137676D01*
X106188595Y-90934565D01*
X106222621Y-90996877D01*
X106225500Y-91023660D01*
X106225500Y-95576233D01*
X106205498Y-95644354D01*
X106151842Y-95690847D01*
X106081568Y-95700951D01*
X106016988Y-95671457D01*
X106010405Y-95665328D01*
X105935776Y-95590699D01*
X105762558Y-95469411D01*
X105757580Y-95467090D01*
X105757577Y-95467088D01*
X105575892Y-95382367D01*
X105575891Y-95382366D01*
X105570910Y-95380044D01*
X105565602Y-95378622D01*
X105565600Y-95378621D01*
X105371970Y-95326738D01*
X105371968Y-95326738D01*
X105366655Y-95325314D01*
X105156000Y-95306884D01*
X104945345Y-95325314D01*
X104940032Y-95326738D01*
X104940030Y-95326738D01*
X104746400Y-95378621D01*
X104746398Y-95378622D01*
X104741090Y-95380044D01*
X104736109Y-95382366D01*
X104736108Y-95382367D01*
X104554423Y-95467088D01*
X104554420Y-95467090D01*
X104549442Y-95469411D01*
X104376224Y-95590699D01*
X104226699Y-95740224D01*
X104105411Y-95913442D01*
X104103090Y-95918420D01*
X104103088Y-95918423D01*
X104050922Y-96030294D01*
X104016044Y-96105090D01*
X104014622Y-96110398D01*
X104014621Y-96110400D01*
X103972928Y-96266000D01*
X103961314Y-96309345D01*
X103942884Y-96520000D01*
X103943363Y-96525475D01*
X103954750Y-96655629D01*
X103940761Y-96725234D01*
X103918324Y-96755706D01*
X101119480Y-99554550D01*
X101113215Y-99560404D01*
X101069615Y-99598439D01*
X101044982Y-99633488D01*
X101032872Y-99650719D01*
X101028939Y-99656014D01*
X100989524Y-99706282D01*
X100986401Y-99713198D01*
X100985017Y-99715484D01*
X100976643Y-99730165D01*
X100975378Y-99732525D01*
X100971010Y-99738739D01*
X100968250Y-99745818D01*
X100968249Y-99745820D01*
X100947798Y-99798275D01*
X100945247Y-99804344D01*
X100918955Y-99862573D01*
X100917571Y-99870040D01*
X100916770Y-99872595D01*
X100912141Y-99888848D01*
X100911478Y-99891428D01*
X100908718Y-99898509D01*
X100900903Y-99957874D01*
X100900379Y-99961852D01*
X100899348Y-99968359D01*
X100887704Y-100031186D01*
X100888141Y-100038766D01*
X100888141Y-100038767D01*
X100891291Y-100093392D01*
X100891500Y-100100646D01*
X100891500Y-101411114D01*
X100871498Y-101479235D01*
X100841153Y-101511874D01*
X100694965Y-101621635D01*
X100655525Y-101662907D01*
X100601280Y-101719671D01*
X100540629Y-101783138D01*
X100433201Y-101940621D01*
X100378293Y-101985621D01*
X100307768Y-101993792D01*
X100244021Y-101962538D01*
X100223324Y-101938054D01*
X100142822Y-101813617D01*
X100142820Y-101813614D01*
X100140014Y-101809277D01*
X99989670Y-101644051D01*
X99985619Y-101640852D01*
X99985615Y-101640848D01*
X99818414Y-101508800D01*
X99818410Y-101508798D01*
X99814359Y-101505598D01*
X99806052Y-101501012D01*
X99689064Y-101436432D01*
X99618789Y-101397638D01*
X99613920Y-101395914D01*
X99613916Y-101395912D01*
X99413087Y-101324795D01*
X99413083Y-101324794D01*
X99408212Y-101323069D01*
X99403119Y-101322162D01*
X99403116Y-101322161D01*
X99193373Y-101284800D01*
X99193367Y-101284799D01*
X99188284Y-101283894D01*
X99114452Y-101282992D01*
X98970081Y-101281228D01*
X98970079Y-101281228D01*
X98964911Y-101281165D01*
X98800059Y-101306391D01*
X98729698Y-101296923D01*
X98691906Y-101270936D01*
X97524450Y-100103480D01*
X97518596Y-100097215D01*
X97515261Y-100093392D01*
X97480561Y-100053615D01*
X97428280Y-100016871D01*
X97422986Y-100012939D01*
X97378693Y-99978209D01*
X97372718Y-99973524D01*
X97365802Y-99970401D01*
X97363516Y-99969017D01*
X97348835Y-99960643D01*
X97346475Y-99959378D01*
X97340261Y-99955010D01*
X97333182Y-99952250D01*
X97333180Y-99952249D01*
X97280725Y-99931798D01*
X97274656Y-99929247D01*
X97216427Y-99902955D01*
X97208960Y-99901571D01*
X97206405Y-99900770D01*
X97190152Y-99896141D01*
X97187572Y-99895478D01*
X97180491Y-99892718D01*
X97172960Y-99891727D01*
X97172958Y-99891726D01*
X97143339Y-99887827D01*
X97117139Y-99884378D01*
X97110641Y-99883348D01*
X97047814Y-99871704D01*
X97040234Y-99872141D01*
X97040233Y-99872141D01*
X96985608Y-99875291D01*
X96978354Y-99875500D01*
X85658717Y-99875500D01*
X85590596Y-99855498D01*
X85569622Y-99838595D01*
X83534458Y-97803431D01*
X85278512Y-97803431D01*
X85332817Y-98029624D01*
X85335866Y-98039009D01*
X85428936Y-98263700D01*
X85433417Y-98272494D01*
X85560496Y-98479867D01*
X85566289Y-98487840D01*
X85724249Y-98672787D01*
X85731213Y-98679751D01*
X85916160Y-98837711D01*
X85924133Y-98843504D01*
X86131506Y-98970583D01*
X86140300Y-98975064D01*
X86364991Y-99068134D01*
X86374376Y-99071183D01*
X86596385Y-99124483D01*
X86610470Y-99123778D01*
X86614000Y-99114899D01*
X86614000Y-99110597D01*
X87122000Y-99110597D01*
X87125973Y-99124128D01*
X87135431Y-99125488D01*
X87361624Y-99071183D01*
X87371009Y-99068134D01*
X87595700Y-98975064D01*
X87604494Y-98970583D01*
X87811867Y-98843504D01*
X87819840Y-98837711D01*
X88004787Y-98679751D01*
X88011751Y-98672787D01*
X88169711Y-98487840D01*
X88175504Y-98479867D01*
X88302583Y-98272494D01*
X88307064Y-98263700D01*
X88400134Y-98039009D01*
X88403183Y-98029624D01*
X88456483Y-97807615D01*
X88455778Y-97793530D01*
X88446899Y-97790000D01*
X87140115Y-97790000D01*
X87124876Y-97794475D01*
X87123671Y-97795865D01*
X87122000Y-97803548D01*
X87122000Y-99110597D01*
X86614000Y-99110597D01*
X86614000Y-97808115D01*
X86609525Y-97792876D01*
X86608135Y-97791671D01*
X86600452Y-97790000D01*
X85293403Y-97790000D01*
X85279872Y-97793973D01*
X85278512Y-97803431D01*
X83534458Y-97803431D01*
X83265288Y-97534261D01*
X94346294Y-97534261D01*
X94355590Y-97546276D01*
X94385189Y-97567001D01*
X94394677Y-97572479D01*
X94576277Y-97657159D01*
X94586571Y-97660907D01*
X94780122Y-97712769D01*
X94790909Y-97714671D01*
X94990525Y-97732135D01*
X95001475Y-97732135D01*
X95201091Y-97714671D01*
X95211878Y-97712769D01*
X95405429Y-97660907D01*
X95415723Y-97657159D01*
X95597323Y-97572479D01*
X95606811Y-97567001D01*
X95637248Y-97545689D01*
X95645623Y-97535212D01*
X95638554Y-97521764D01*
X95008812Y-96892022D01*
X94994868Y-96884408D01*
X94993035Y-96884539D01*
X94986420Y-96888790D01*
X94352724Y-97522486D01*
X94346294Y-97534261D01*
X83265288Y-97534261D01*
X83196091Y-97465064D01*
X83162065Y-97402752D01*
X83167130Y-97331937D01*
X83186765Y-97297297D01*
X83199622Y-97281212D01*
X83192554Y-97267764D01*
X83189175Y-97264385D01*
X85279517Y-97264385D01*
X85280222Y-97278470D01*
X85289101Y-97282000D01*
X86595885Y-97282000D01*
X86611124Y-97277525D01*
X86612329Y-97276135D01*
X86614000Y-97268452D01*
X86614000Y-97263885D01*
X87122000Y-97263885D01*
X87126475Y-97279124D01*
X87127865Y-97280329D01*
X87135548Y-97282000D01*
X88442597Y-97282000D01*
X88456128Y-97278027D01*
X88457488Y-97268569D01*
X88403183Y-97042376D01*
X88400134Y-97032991D01*
X88307064Y-96808300D01*
X88302583Y-96799506D01*
X88175504Y-96592133D01*
X88169711Y-96584160D01*
X88119589Y-96525475D01*
X93783865Y-96525475D01*
X93801329Y-96725091D01*
X93803231Y-96735878D01*
X93855093Y-96929429D01*
X93858841Y-96939723D01*
X93943521Y-97121323D01*
X93948999Y-97130811D01*
X93970311Y-97161248D01*
X93980788Y-97169623D01*
X93994236Y-97162554D01*
X94623978Y-96532812D01*
X94630356Y-96521132D01*
X95360408Y-96521132D01*
X95360539Y-96522965D01*
X95364790Y-96529580D01*
X95998486Y-97163276D01*
X96010261Y-97169706D01*
X96022276Y-97160410D01*
X96043001Y-97130811D01*
X96048479Y-97121323D01*
X96133159Y-96939723D01*
X96136907Y-96929429D01*
X96188769Y-96735878D01*
X96190671Y-96725091D01*
X96208135Y-96525475D01*
X96208135Y-96514525D01*
X96190671Y-96314909D01*
X96188769Y-96304122D01*
X96136907Y-96110571D01*
X96133159Y-96100277D01*
X96048479Y-95918677D01*
X96043001Y-95909189D01*
X96021689Y-95878752D01*
X96011212Y-95870377D01*
X95997764Y-95877446D01*
X95368022Y-96507188D01*
X95360408Y-96521132D01*
X94630356Y-96521132D01*
X94631592Y-96518868D01*
X94631461Y-96517035D01*
X94627210Y-96510420D01*
X93993514Y-95876724D01*
X93981739Y-95870294D01*
X93969724Y-95879590D01*
X93948999Y-95909189D01*
X93943521Y-95918677D01*
X93858841Y-96100277D01*
X93855093Y-96110571D01*
X93803231Y-96304122D01*
X93801329Y-96314909D01*
X93783865Y-96514525D01*
X93783865Y-96525475D01*
X88119589Y-96525475D01*
X88011751Y-96399213D01*
X88004787Y-96392249D01*
X87819840Y-96234289D01*
X87811867Y-96228496D01*
X87604494Y-96101417D01*
X87595700Y-96096936D01*
X87371009Y-96003866D01*
X87361624Y-96000817D01*
X87139615Y-95947517D01*
X87125530Y-95948222D01*
X87122000Y-95957101D01*
X87122000Y-97263885D01*
X86614000Y-97263885D01*
X86614000Y-95961403D01*
X86610027Y-95947872D01*
X86600569Y-95946512D01*
X86374376Y-96000817D01*
X86364991Y-96003866D01*
X86140300Y-96096936D01*
X86131506Y-96101417D01*
X85924133Y-96228496D01*
X85916160Y-96234289D01*
X85731213Y-96392249D01*
X85724249Y-96399213D01*
X85566289Y-96584160D01*
X85560496Y-96592133D01*
X85433417Y-96799506D01*
X85428936Y-96808300D01*
X85335866Y-97032991D01*
X85332817Y-97042376D01*
X85279517Y-97264385D01*
X83189175Y-97264385D01*
X82191922Y-96267132D01*
X82914408Y-96267132D01*
X82914539Y-96268965D01*
X82918790Y-96275580D01*
X83552486Y-96909276D01*
X83564261Y-96915706D01*
X83576276Y-96906410D01*
X83597001Y-96876811D01*
X83602479Y-96867323D01*
X83687159Y-96685723D01*
X83690907Y-96675429D01*
X83742769Y-96481878D01*
X83744671Y-96471091D01*
X83762135Y-96271475D01*
X83762135Y-96260525D01*
X83744671Y-96060909D01*
X83742769Y-96050122D01*
X83690907Y-95856571D01*
X83687159Y-95846277D01*
X83602479Y-95664677D01*
X83597001Y-95655189D01*
X83575689Y-95624752D01*
X83565212Y-95616377D01*
X83551764Y-95623446D01*
X82922022Y-96253188D01*
X82914408Y-96267132D01*
X82191922Y-96267132D01*
X81547514Y-95622724D01*
X81535739Y-95616294D01*
X81517253Y-95630595D01*
X81451135Y-95656458D01*
X81381530Y-95642468D01*
X81351059Y-95620032D01*
X80981815Y-95250788D01*
X81900377Y-95250788D01*
X81907446Y-95264236D01*
X82537188Y-95893978D01*
X82551132Y-95901592D01*
X82552965Y-95901461D01*
X82559580Y-95897210D01*
X82952002Y-95504788D01*
X94346377Y-95504788D01*
X94353446Y-95518236D01*
X94983188Y-96147978D01*
X94997132Y-96155592D01*
X94998965Y-96155461D01*
X95005580Y-96151210D01*
X95639276Y-95517514D01*
X95645706Y-95505739D01*
X95636410Y-95493724D01*
X95606811Y-95472999D01*
X95597323Y-95467521D01*
X95415723Y-95382841D01*
X95405429Y-95379093D01*
X95211878Y-95327231D01*
X95201091Y-95325329D01*
X95001475Y-95307865D01*
X94990525Y-95307865D01*
X94790909Y-95325329D01*
X94780122Y-95327231D01*
X94586571Y-95379093D01*
X94576277Y-95382841D01*
X94394677Y-95467521D01*
X94385189Y-95472999D01*
X94354752Y-95494311D01*
X94346377Y-95504788D01*
X82952002Y-95504788D01*
X83193276Y-95263514D01*
X83199706Y-95251739D01*
X83190410Y-95239724D01*
X83160811Y-95218999D01*
X83151323Y-95213521D01*
X82969723Y-95128841D01*
X82959429Y-95125093D01*
X82765878Y-95073231D01*
X82755091Y-95071329D01*
X82555475Y-95053865D01*
X82544525Y-95053865D01*
X82344909Y-95071329D01*
X82334122Y-95073231D01*
X82140571Y-95125093D01*
X82130277Y-95128841D01*
X81948677Y-95213521D01*
X81939189Y-95218999D01*
X81908752Y-95240311D01*
X81900377Y-95250788D01*
X80981815Y-95250788D01*
X75675405Y-89944379D01*
X75641379Y-89882067D01*
X75638500Y-89855284D01*
X75638500Y-89690801D01*
X75658502Y-89622680D01*
X75692228Y-89587589D01*
X75705262Y-89578462D01*
X75705264Y-89578460D01*
X75709776Y-89575301D01*
X75859301Y-89425776D01*
X75980589Y-89252558D01*
X75983839Y-89245590D01*
X76067633Y-89065892D01*
X76067634Y-89065891D01*
X76069956Y-89060910D01*
X76080542Y-89021405D01*
X76123262Y-88861970D01*
X76123262Y-88861968D01*
X76124686Y-88856655D01*
X76143116Y-88646000D01*
X76124686Y-88435345D01*
X76069956Y-88231090D01*
X76051495Y-88191500D01*
X75982912Y-88044423D01*
X75982910Y-88044420D01*
X75980589Y-88039442D01*
X75859301Y-87866224D01*
X75709776Y-87716699D01*
X75536558Y-87595411D01*
X75531580Y-87593090D01*
X75531577Y-87593088D01*
X75349892Y-87508367D01*
X75349891Y-87508366D01*
X75344910Y-87506044D01*
X75339602Y-87504622D01*
X75339600Y-87504621D01*
X75145970Y-87452738D01*
X75145968Y-87452738D01*
X75140655Y-87451314D01*
X74930000Y-87432884D01*
X74719345Y-87451314D01*
X74714032Y-87452738D01*
X74714030Y-87452738D01*
X74520400Y-87504621D01*
X74520398Y-87504622D01*
X74515090Y-87506044D01*
X74510109Y-87508366D01*
X74510108Y-87508367D01*
X74328423Y-87593088D01*
X74328420Y-87593090D01*
X74323442Y-87595411D01*
X74150224Y-87716699D01*
X74000699Y-87866224D01*
X73879411Y-88039442D01*
X73877090Y-88044420D01*
X73877088Y-88044423D01*
X73808505Y-88191500D01*
X73790044Y-88231090D01*
X73735314Y-88435345D01*
X73716884Y-88646000D01*
X73735314Y-88856655D01*
X73736738Y-88861968D01*
X73736738Y-88861970D01*
X73779459Y-89021405D01*
X73790044Y-89060910D01*
X73792366Y-89065891D01*
X73792367Y-89065892D01*
X73876162Y-89245590D01*
X73879411Y-89252558D01*
X74000699Y-89425776D01*
X74150224Y-89575301D01*
X74154736Y-89578460D01*
X74154738Y-89578462D01*
X74167772Y-89587589D01*
X74212100Y-89643047D01*
X74221500Y-89690801D01*
X74221500Y-90172032D01*
X74221208Y-90180602D01*
X74219049Y-90212280D01*
X74217275Y-90238296D01*
X74218580Y-90245773D01*
X74218580Y-90245774D01*
X74228261Y-90301243D01*
X74229223Y-90307765D01*
X74236898Y-90371186D01*
X74239581Y-90378287D01*
X74240222Y-90380896D01*
X74244685Y-90397206D01*
X74245450Y-90399742D01*
X74246757Y-90407228D01*
X74249811Y-90414185D01*
X74272442Y-90465739D01*
X74274933Y-90471843D01*
X74297513Y-90531600D01*
X74301817Y-90537863D01*
X74303054Y-90540229D01*
X74311299Y-90555041D01*
X74312632Y-90557295D01*
X74315685Y-90564249D01*
X74351154Y-90610471D01*
X74354579Y-90614935D01*
X74358459Y-90620276D01*
X74390339Y-90666664D01*
X74390344Y-90666669D01*
X74394643Y-90672925D01*
X74400313Y-90677976D01*
X74400314Y-90677978D01*
X74441170Y-90714379D01*
X74446446Y-90719360D01*
X84791606Y-101064520D01*
X84797460Y-101070785D01*
X84835495Y-101114385D01*
X84841713Y-101118755D01*
X84887753Y-101151112D01*
X84893049Y-101155045D01*
X84943338Y-101194477D01*
X84950260Y-101197602D01*
X84952508Y-101198964D01*
X84967241Y-101207368D01*
X84969580Y-101208622D01*
X84975795Y-101212990D01*
X84982871Y-101215749D01*
X84982875Y-101215751D01*
X85035330Y-101236202D01*
X85041408Y-101238757D01*
X85099630Y-101265045D01*
X85107101Y-101266429D01*
X85109655Y-101267230D01*
X85125934Y-101271867D01*
X85128489Y-101272523D01*
X85135565Y-101275282D01*
X85164018Y-101279028D01*
X85198907Y-101283621D01*
X85205423Y-101284653D01*
X85245221Y-101292029D01*
X85268243Y-101296296D01*
X85275823Y-101295859D01*
X85275824Y-101295859D01*
X85330454Y-101292709D01*
X85337707Y-101292500D01*
X95675663Y-101292500D01*
X95743784Y-101312502D01*
X95790277Y-101366158D01*
X95800381Y-101436432D01*
X95770887Y-101501012D01*
X95751316Y-101519260D01*
X95614965Y-101621635D01*
X95575525Y-101662907D01*
X95521280Y-101719671D01*
X95460629Y-101783138D01*
X95457720Y-101787403D01*
X95457714Y-101787411D01*
X95396257Y-101877504D01*
X95341346Y-101922507D01*
X95292169Y-101932500D01*
X92676049Y-101932500D01*
X92644716Y-101928542D01*
X92640569Y-101927477D01*
X92633491Y-101924718D01*
X92570139Y-101916378D01*
X92563641Y-101915348D01*
X92500814Y-101903704D01*
X92493234Y-101904141D01*
X92493233Y-101904141D01*
X92438608Y-101907291D01*
X92431354Y-101907500D01*
X81625660Y-101907500D01*
X81557539Y-101887498D01*
X81536565Y-101870595D01*
X76167676Y-96501706D01*
X76133650Y-96439394D01*
X76131250Y-96401629D01*
X76142637Y-96271475D01*
X76143116Y-96266000D01*
X76124686Y-96055345D01*
X76097530Y-95953997D01*
X76071379Y-95856400D01*
X76071378Y-95856398D01*
X76069956Y-95851090D01*
X76067633Y-95846108D01*
X75982912Y-95664423D01*
X75982910Y-95664420D01*
X75980589Y-95659442D01*
X75859301Y-95486224D01*
X75709776Y-95336699D01*
X75536558Y-95215411D01*
X75531580Y-95213090D01*
X75531577Y-95213088D01*
X75349892Y-95128367D01*
X75349891Y-95128366D01*
X75344910Y-95126044D01*
X75339602Y-95124622D01*
X75339600Y-95124621D01*
X75145970Y-95072738D01*
X75145968Y-95072738D01*
X75140655Y-95071314D01*
X74930000Y-95052884D01*
X74719345Y-95071314D01*
X74714032Y-95072738D01*
X74714030Y-95072738D01*
X74520400Y-95124621D01*
X74520398Y-95124622D01*
X74515090Y-95126044D01*
X74510109Y-95128366D01*
X74510108Y-95128367D01*
X74328423Y-95213088D01*
X74328420Y-95213090D01*
X74323442Y-95215411D01*
X74150224Y-95336699D01*
X74000699Y-95486224D01*
X73879411Y-95659442D01*
X73877090Y-95664420D01*
X73877088Y-95664423D01*
X73792367Y-95846108D01*
X73790044Y-95851090D01*
X73788622Y-95856398D01*
X73788621Y-95856400D01*
X73762470Y-95953997D01*
X73735314Y-96055345D01*
X73716884Y-96266000D01*
X73735314Y-96476655D01*
X73736738Y-96481968D01*
X73736738Y-96481970D01*
X73782623Y-96653213D01*
X73790044Y-96680910D01*
X73792366Y-96685891D01*
X73792367Y-96685892D01*
X73818666Y-96742289D01*
X73879411Y-96872558D01*
X74000699Y-97045776D01*
X74150224Y-97195301D01*
X74323442Y-97316589D01*
X74328420Y-97318910D01*
X74328423Y-97318912D01*
X74484698Y-97391784D01*
X74515090Y-97405956D01*
X74520398Y-97407378D01*
X74520400Y-97407379D01*
X74714030Y-97459262D01*
X74714032Y-97459262D01*
X74719345Y-97460686D01*
X74930000Y-97479116D01*
X74935475Y-97478637D01*
X75065629Y-97467250D01*
X75135234Y-97481239D01*
X75165706Y-97503676D01*
X80758557Y-103096528D01*
X80764411Y-103102793D01*
X80802439Y-103146385D01*
X80854729Y-103183136D01*
X80859971Y-103187028D01*
X80910282Y-103226476D01*
X80917201Y-103229600D01*
X80919493Y-103230988D01*
X80934165Y-103239357D01*
X80936525Y-103240622D01*
X80942739Y-103244990D01*
X80949818Y-103247750D01*
X80949820Y-103247751D01*
X81002275Y-103268202D01*
X81008344Y-103270753D01*
X81066573Y-103297045D01*
X81074046Y-103298430D01*
X81076612Y-103299234D01*
X81092835Y-103303855D01*
X81095427Y-103304520D01*
X81102509Y-103307282D01*
X81110044Y-103308274D01*
X81165861Y-103315622D01*
X81172377Y-103316654D01*
X81210770Y-103323770D01*
X81235186Y-103328295D01*
X81242766Y-103327858D01*
X81242767Y-103327858D01*
X81297380Y-103324709D01*
X81304633Y-103324500D01*
X92260953Y-103324500D01*
X92292287Y-103328458D01*
X92296429Y-103329522D01*
X92303509Y-103332282D01*
X92311044Y-103333274D01*
X92366861Y-103340622D01*
X92373377Y-103341654D01*
X92381055Y-103343077D01*
X92436186Y-103353295D01*
X92443766Y-103352858D01*
X92443767Y-103352858D01*
X92498380Y-103349709D01*
X92505633Y-103349500D01*
X95290234Y-103349500D01*
X95358355Y-103369502D01*
X95397667Y-103409665D01*
X95419987Y-103446088D01*
X95566250Y-103614938D01*
X95738126Y-103757632D01*
X95931000Y-103870338D01*
X96139692Y-103950030D01*
X96144760Y-103951061D01*
X96144763Y-103951062D01*
X96204891Y-103963295D01*
X96358597Y-103994567D01*
X96363772Y-103994757D01*
X96363774Y-103994757D01*
X96576673Y-104002564D01*
X96576677Y-104002564D01*
X96581837Y-104002753D01*
X96586957Y-104002097D01*
X96586959Y-104002097D01*
X96798288Y-103975025D01*
X96798289Y-103975025D01*
X96803416Y-103974368D01*
X96840324Y-103963295D01*
X97012429Y-103911661D01*
X97012434Y-103911659D01*
X97017384Y-103910174D01*
X97217994Y-103811896D01*
X97399860Y-103682173D01*
X97558096Y-103524489D01*
X97688453Y-103343077D01*
X97689776Y-103344028D01*
X97736645Y-103300857D01*
X97806580Y-103288625D01*
X97872026Y-103316144D01*
X97899875Y-103347994D01*
X97913055Y-103369502D01*
X97959987Y-103446088D01*
X98106250Y-103614938D01*
X98278126Y-103757632D01*
X98471000Y-103870338D01*
X98679692Y-103950030D01*
X98684760Y-103951061D01*
X98684763Y-103951062D01*
X98744891Y-103963295D01*
X98898597Y-103994567D01*
X98903772Y-103994757D01*
X98903774Y-103994757D01*
X99116673Y-104002564D01*
X99116677Y-104002564D01*
X99121837Y-104002753D01*
X99126957Y-104002097D01*
X99126959Y-104002097D01*
X99338288Y-103975025D01*
X99338289Y-103975025D01*
X99343416Y-103974368D01*
X99380324Y-103963295D01*
X99552429Y-103911661D01*
X99552434Y-103911659D01*
X99557384Y-103910174D01*
X99757994Y-103811896D01*
X99939860Y-103682173D01*
X100098096Y-103524489D01*
X100228453Y-103343077D01*
X100229776Y-103344028D01*
X100276645Y-103300857D01*
X100346580Y-103288625D01*
X100412026Y-103316144D01*
X100439875Y-103347994D01*
X100453055Y-103369502D01*
X100499987Y-103446088D01*
X100646250Y-103614938D01*
X100818126Y-103757632D01*
X101011000Y-103870338D01*
X101219692Y-103950030D01*
X101224760Y-103951061D01*
X101224763Y-103951062D01*
X101284891Y-103963295D01*
X101438597Y-103994567D01*
X101443772Y-103994757D01*
X101443774Y-103994757D01*
X101656673Y-104002564D01*
X101656677Y-104002564D01*
X101661837Y-104002753D01*
X101666957Y-104002097D01*
X101666959Y-104002097D01*
X101878288Y-103975025D01*
X101878289Y-103975025D01*
X101883416Y-103974368D01*
X101920324Y-103963295D01*
X102092429Y-103911661D01*
X102092434Y-103911659D01*
X102097384Y-103910174D01*
X102297994Y-103811896D01*
X102479860Y-103682173D01*
X102638096Y-103524489D01*
X102768453Y-103343077D01*
X102769776Y-103344028D01*
X102816645Y-103300857D01*
X102886580Y-103288625D01*
X102952026Y-103316144D01*
X102979875Y-103347994D01*
X102993055Y-103369502D01*
X103039987Y-103446088D01*
X103186250Y-103614938D01*
X103358126Y-103757632D01*
X103551000Y-103870338D01*
X103759692Y-103950030D01*
X103764760Y-103951061D01*
X103764763Y-103951062D01*
X103824891Y-103963295D01*
X103978597Y-103994567D01*
X103983772Y-103994757D01*
X103983774Y-103994757D01*
X104196673Y-104002564D01*
X104196677Y-104002564D01*
X104201837Y-104002753D01*
X104206957Y-104002097D01*
X104206959Y-104002097D01*
X104418288Y-103975025D01*
X104418289Y-103975025D01*
X104423416Y-103974368D01*
X104460324Y-103963295D01*
X104632429Y-103911661D01*
X104632434Y-103911659D01*
X104637384Y-103910174D01*
X104837994Y-103811896D01*
X105019860Y-103682173D01*
X105178096Y-103524489D01*
X105308453Y-103343077D01*
X105309776Y-103344028D01*
X105356645Y-103300857D01*
X105426580Y-103288625D01*
X105492026Y-103316144D01*
X105519875Y-103347994D01*
X105533055Y-103369502D01*
X105579987Y-103446088D01*
X105726250Y-103614938D01*
X105898126Y-103757632D01*
X106091000Y-103870338D01*
X106299692Y-103950030D01*
X106304760Y-103951061D01*
X106304763Y-103951062D01*
X106364891Y-103963295D01*
X106518597Y-103994567D01*
X106523772Y-103994757D01*
X106523774Y-103994757D01*
X106736673Y-104002564D01*
X106736677Y-104002564D01*
X106741837Y-104002753D01*
X106746957Y-104002097D01*
X106746959Y-104002097D01*
X106944588Y-103976780D01*
X107014698Y-103987964D01*
X107049693Y-104012664D01*
X107408068Y-104371039D01*
X107413922Y-104377304D01*
X107451950Y-104420896D01*
X107504240Y-104457647D01*
X107509482Y-104461539D01*
X107559793Y-104500987D01*
X107566712Y-104504111D01*
X107569004Y-104505499D01*
X107583676Y-104513868D01*
X107586036Y-104515133D01*
X107592250Y-104519501D01*
X107599329Y-104522261D01*
X107599331Y-104522262D01*
X107651786Y-104542713D01*
X107657855Y-104545264D01*
X107716084Y-104571556D01*
X107723557Y-104572941D01*
X107726123Y-104573745D01*
X107742346Y-104578366D01*
X107744938Y-104579031D01*
X107752020Y-104581793D01*
X107759555Y-104582785D01*
X107815372Y-104590133D01*
X107821888Y-104591165D01*
X107860281Y-104598281D01*
X107884697Y-104602806D01*
X107892277Y-104602369D01*
X107892278Y-104602369D01*
X107946891Y-104599220D01*
X107954144Y-104599011D01*
X128236577Y-104599011D01*
X128245147Y-104599303D01*
X128295265Y-104602720D01*
X128295269Y-104602720D01*
X128302841Y-104603236D01*
X128310318Y-104601931D01*
X128310319Y-104601931D01*
X128336797Y-104597310D01*
X128365792Y-104592249D01*
X128372310Y-104591288D01*
X128435731Y-104583613D01*
X128442832Y-104580930D01*
X128445441Y-104580289D01*
X128461751Y-104575826D01*
X128464287Y-104575061D01*
X128471773Y-104573754D01*
X128530289Y-104548067D01*
X128536393Y-104545576D01*
X128589037Y-104525684D01*
X128589038Y-104525683D01*
X128596145Y-104522998D01*
X128602408Y-104518694D01*
X128604774Y-104517457D01*
X128619586Y-104509212D01*
X128621840Y-104507879D01*
X128628794Y-104504826D01*
X128679491Y-104465924D01*
X128684821Y-104462052D01*
X128731209Y-104430172D01*
X128731214Y-104430167D01*
X128737470Y-104425868D01*
X128778925Y-104379340D01*
X128783905Y-104374065D01*
X134846539Y-98311431D01*
X145730512Y-98311431D01*
X145784817Y-98537624D01*
X145787866Y-98547009D01*
X145880936Y-98771700D01*
X145885417Y-98780494D01*
X146012496Y-98987867D01*
X146018289Y-98995840D01*
X146176249Y-99180787D01*
X146183213Y-99187751D01*
X146368160Y-99345711D01*
X146376133Y-99351504D01*
X146583506Y-99478583D01*
X146592300Y-99483064D01*
X146816991Y-99576134D01*
X146826376Y-99579183D01*
X147048385Y-99632483D01*
X147062470Y-99631778D01*
X147066000Y-99622899D01*
X147066000Y-99618597D01*
X147574000Y-99618597D01*
X147577973Y-99632128D01*
X147587431Y-99633488D01*
X147813624Y-99579183D01*
X147823009Y-99576134D01*
X148047700Y-99483064D01*
X148056494Y-99478583D01*
X148263867Y-99351504D01*
X148271840Y-99345711D01*
X148456787Y-99187751D01*
X148463751Y-99180787D01*
X148621711Y-98995840D01*
X148627504Y-98987867D01*
X148754583Y-98780494D01*
X148759064Y-98771700D01*
X148852134Y-98547009D01*
X148855183Y-98537624D01*
X148908483Y-98315615D01*
X148907778Y-98301530D01*
X148898899Y-98298000D01*
X147592115Y-98298000D01*
X147576876Y-98302475D01*
X147575671Y-98303865D01*
X147574000Y-98311548D01*
X147574000Y-99618597D01*
X147066000Y-99618597D01*
X147066000Y-98316115D01*
X147061525Y-98300876D01*
X147060135Y-98299671D01*
X147052452Y-98298000D01*
X145745403Y-98298000D01*
X145731872Y-98301973D01*
X145730512Y-98311431D01*
X134846539Y-98311431D01*
X135385585Y-97772385D01*
X145731517Y-97772385D01*
X145732222Y-97786470D01*
X145741101Y-97790000D01*
X147047885Y-97790000D01*
X147063124Y-97785525D01*
X147064329Y-97784135D01*
X147066000Y-97776452D01*
X147066000Y-97771885D01*
X147574000Y-97771885D01*
X147578475Y-97787124D01*
X147579865Y-97788329D01*
X147587548Y-97790000D01*
X148894597Y-97790000D01*
X148908128Y-97786027D01*
X148909488Y-97776569D01*
X148855183Y-97550376D01*
X148852134Y-97540991D01*
X148759064Y-97316300D01*
X148754583Y-97307506D01*
X148627504Y-97100133D01*
X148621711Y-97092160D01*
X148463751Y-96907213D01*
X148456787Y-96900249D01*
X148271840Y-96742289D01*
X148263867Y-96736496D01*
X148056494Y-96609417D01*
X148047700Y-96604936D01*
X147823009Y-96511866D01*
X147813624Y-96508817D01*
X147591615Y-96455517D01*
X147577530Y-96456222D01*
X147574000Y-96465101D01*
X147574000Y-97771885D01*
X147066000Y-97771885D01*
X147066000Y-96469403D01*
X147062027Y-96455872D01*
X147052569Y-96454512D01*
X146826376Y-96508817D01*
X146816991Y-96511866D01*
X146592300Y-96604936D01*
X146583506Y-96609417D01*
X146376133Y-96736496D01*
X146368160Y-96742289D01*
X146183213Y-96900249D01*
X146176249Y-96907213D01*
X146018289Y-97092160D01*
X146012496Y-97100133D01*
X145885417Y-97307506D01*
X145880936Y-97316300D01*
X145787866Y-97540991D01*
X145784817Y-97550376D01*
X145731517Y-97772385D01*
X135385585Y-97772385D01*
X135400294Y-97757676D01*
X135462606Y-97723650D01*
X135500371Y-97721250D01*
X135630525Y-97732637D01*
X135636000Y-97733116D01*
X135846655Y-97714686D01*
X135851968Y-97713262D01*
X135851970Y-97713262D01*
X136045600Y-97661379D01*
X136045602Y-97661378D01*
X136050910Y-97659956D01*
X136056908Y-97657159D01*
X136237577Y-97572912D01*
X136237580Y-97572910D01*
X136242558Y-97570589D01*
X136294440Y-97534261D01*
X142606294Y-97534261D01*
X142615590Y-97546276D01*
X142645189Y-97567001D01*
X142654677Y-97572479D01*
X142836277Y-97657159D01*
X142846571Y-97660907D01*
X143040122Y-97712769D01*
X143050909Y-97714671D01*
X143250525Y-97732135D01*
X143261475Y-97732135D01*
X143461091Y-97714671D01*
X143471878Y-97712769D01*
X143665429Y-97660907D01*
X143675723Y-97657159D01*
X143857323Y-97572479D01*
X143866811Y-97567001D01*
X143897248Y-97545689D01*
X143905623Y-97535212D01*
X143898554Y-97521764D01*
X143268812Y-96892022D01*
X143254868Y-96884408D01*
X143253035Y-96884539D01*
X143246420Y-96888790D01*
X142612724Y-97522486D01*
X142606294Y-97534261D01*
X136294440Y-97534261D01*
X136415776Y-97449301D01*
X136565301Y-97299776D01*
X136686589Y-97126558D01*
X136724259Y-97045776D01*
X136773633Y-96939892D01*
X136773634Y-96939891D01*
X136775956Y-96934910D01*
X136783378Y-96907213D01*
X136829262Y-96735970D01*
X136829262Y-96735968D01*
X136830686Y-96730655D01*
X136848637Y-96525475D01*
X142043865Y-96525475D01*
X142061329Y-96725091D01*
X142063231Y-96735878D01*
X142115093Y-96929429D01*
X142118841Y-96939723D01*
X142203521Y-97121323D01*
X142208999Y-97130811D01*
X142230311Y-97161248D01*
X142240788Y-97169623D01*
X142254236Y-97162554D01*
X142883978Y-96532812D01*
X142890356Y-96521132D01*
X143620408Y-96521132D01*
X143620539Y-96522965D01*
X143624790Y-96529580D01*
X144258486Y-97163276D01*
X144270261Y-97169706D01*
X144282276Y-97160410D01*
X144303001Y-97130811D01*
X144308479Y-97121323D01*
X144393159Y-96939723D01*
X144396907Y-96929429D01*
X144448769Y-96735878D01*
X144450671Y-96725091D01*
X144468135Y-96525475D01*
X144468135Y-96514525D01*
X144450671Y-96314909D01*
X144448769Y-96304122D01*
X144396907Y-96110571D01*
X144393159Y-96100277D01*
X144308479Y-95918677D01*
X144303001Y-95909189D01*
X144281689Y-95878752D01*
X144271212Y-95870377D01*
X144257764Y-95877446D01*
X143628022Y-96507188D01*
X143620408Y-96521132D01*
X142890356Y-96521132D01*
X142891592Y-96518868D01*
X142891461Y-96517035D01*
X142887210Y-96510420D01*
X142253514Y-95876724D01*
X142241739Y-95870294D01*
X142229724Y-95879590D01*
X142208999Y-95909189D01*
X142203521Y-95918677D01*
X142118841Y-96100277D01*
X142115093Y-96110571D01*
X142063231Y-96304122D01*
X142061329Y-96314909D01*
X142043865Y-96514525D01*
X142043865Y-96525475D01*
X136848637Y-96525475D01*
X136849116Y-96520000D01*
X136830686Y-96309345D01*
X136819072Y-96266000D01*
X136777379Y-96110400D01*
X136777378Y-96110398D01*
X136775956Y-96105090D01*
X136741078Y-96030294D01*
X136688912Y-95918423D01*
X136688910Y-95918420D01*
X136686589Y-95913442D01*
X136565301Y-95740224D01*
X136415776Y-95590699D01*
X136293082Y-95504788D01*
X142606377Y-95504788D01*
X142613446Y-95518236D01*
X143243188Y-96147978D01*
X143257132Y-96155592D01*
X143258965Y-96155461D01*
X143265580Y-96151210D01*
X143899276Y-95517514D01*
X143905706Y-95505739D01*
X143896410Y-95493724D01*
X143866811Y-95472999D01*
X143857323Y-95467521D01*
X143675723Y-95382841D01*
X143665429Y-95379093D01*
X143471878Y-95327231D01*
X143461091Y-95325329D01*
X143261475Y-95307865D01*
X143250525Y-95307865D01*
X143050909Y-95325329D01*
X143040122Y-95327231D01*
X142846571Y-95379093D01*
X142836277Y-95382841D01*
X142654677Y-95467521D01*
X142645189Y-95472999D01*
X142614752Y-95494311D01*
X142606377Y-95504788D01*
X136293082Y-95504788D01*
X136242558Y-95469411D01*
X136237580Y-95467090D01*
X136237577Y-95467088D01*
X136055892Y-95382367D01*
X136055891Y-95382366D01*
X136050910Y-95380044D01*
X136045605Y-95378622D01*
X136045598Y-95378620D01*
X136025363Y-95373199D01*
X136021180Y-95372078D01*
X135960557Y-95335127D01*
X135929535Y-95271267D01*
X135937963Y-95200773D01*
X135964695Y-95161276D01*
X136116528Y-95009443D01*
X136122793Y-95003589D01*
X136160664Y-94970552D01*
X136160665Y-94970551D01*
X136166385Y-94965561D01*
X136203136Y-94913271D01*
X136207028Y-94908029D01*
X136246476Y-94857718D01*
X136249600Y-94850799D01*
X136250988Y-94848507D01*
X136259357Y-94833835D01*
X136260622Y-94831475D01*
X136264990Y-94825261D01*
X136288203Y-94765723D01*
X136290759Y-94759642D01*
X136313918Y-94708352D01*
X136317045Y-94701427D01*
X136318430Y-94693954D01*
X136319234Y-94691388D01*
X136323855Y-94675165D01*
X136324520Y-94672573D01*
X136327282Y-94665491D01*
X136335622Y-94602139D01*
X136336654Y-94595623D01*
X136346911Y-94540281D01*
X136348295Y-94532814D01*
X136344709Y-94470620D01*
X136344500Y-94463367D01*
X136344500Y-89944801D01*
X136364502Y-89876680D01*
X136398228Y-89841589D01*
X136411262Y-89832462D01*
X136411264Y-89832460D01*
X136415776Y-89829301D01*
X136565301Y-89679776D01*
X136686589Y-89506558D01*
X136693145Y-89492500D01*
X136773633Y-89319892D01*
X136773634Y-89319891D01*
X136775956Y-89314910D01*
X136786542Y-89275405D01*
X136829262Y-89115970D01*
X136829262Y-89115968D01*
X136830686Y-89110655D01*
X136849116Y-88900000D01*
X136830686Y-88689345D01*
X136819072Y-88646000D01*
X136777379Y-88490400D01*
X136777378Y-88490398D01*
X136775956Y-88485090D01*
X136755315Y-88440825D01*
X136688912Y-88298423D01*
X136688910Y-88298420D01*
X136686589Y-88293442D01*
X136565301Y-88120224D01*
X136415776Y-87970699D01*
X136242558Y-87849411D01*
X136237580Y-87847090D01*
X136237577Y-87847088D01*
X136055892Y-87762367D01*
X136055891Y-87762366D01*
X136050910Y-87760044D01*
X136045602Y-87758622D01*
X136045600Y-87758621D01*
X135851970Y-87706738D01*
X135851968Y-87706738D01*
X135846655Y-87705314D01*
X135636000Y-87686884D01*
X135425345Y-87705314D01*
X135420032Y-87706738D01*
X135420030Y-87706738D01*
X135226400Y-87758621D01*
X135226398Y-87758622D01*
X135221090Y-87760044D01*
X135216109Y-87762366D01*
X135216108Y-87762367D01*
X135034423Y-87847088D01*
X135034420Y-87847090D01*
X135029442Y-87849411D01*
X134856224Y-87970699D01*
X134706699Y-88120224D01*
X134585411Y-88293442D01*
X134583090Y-88298420D01*
X134583088Y-88298423D01*
X134516685Y-88440825D01*
X134496044Y-88485090D01*
X134494622Y-88490398D01*
X134494621Y-88490400D01*
X134452928Y-88646000D01*
X134441314Y-88689345D01*
X134422884Y-88900000D01*
X134441314Y-89110655D01*
X134442738Y-89115968D01*
X134442738Y-89115970D01*
X134485459Y-89275405D01*
X134496044Y-89314910D01*
X134498366Y-89319891D01*
X134498367Y-89319892D01*
X134578856Y-89492500D01*
X134585411Y-89506558D01*
X134706699Y-89679776D01*
X134856224Y-89829301D01*
X134860736Y-89832460D01*
X134860738Y-89832462D01*
X134873772Y-89841589D01*
X134918100Y-89897047D01*
X134927500Y-89944801D01*
X134927500Y-94142340D01*
X134907498Y-94210461D01*
X134890595Y-94231435D01*
X131716660Y-97405370D01*
X131654348Y-97439396D01*
X131583533Y-97434331D01*
X131526697Y-97391784D01*
X131501886Y-97325264D01*
X131516977Y-97255890D01*
X131524352Y-97244005D01*
X131561182Y-97191406D01*
X131606589Y-97126558D01*
X131644259Y-97045776D01*
X131693633Y-96939892D01*
X131693634Y-96939891D01*
X131695956Y-96934910D01*
X131703378Y-96907213D01*
X131749262Y-96735970D01*
X131749262Y-96735968D01*
X131750686Y-96730655D01*
X131769116Y-96520000D01*
X131750686Y-96309345D01*
X131739072Y-96266000D01*
X131697379Y-96110400D01*
X131697378Y-96110398D01*
X131695956Y-96105090D01*
X131661078Y-96030294D01*
X131608912Y-95918423D01*
X131608910Y-95918420D01*
X131606589Y-95913442D01*
X131485301Y-95740224D01*
X131335776Y-95590699D01*
X131162558Y-95469411D01*
X131157580Y-95467090D01*
X131157577Y-95467088D01*
X130975892Y-95382367D01*
X130975891Y-95382366D01*
X130970910Y-95380044D01*
X130965602Y-95378622D01*
X130965600Y-95378621D01*
X130771970Y-95326738D01*
X130771968Y-95326738D01*
X130766655Y-95325314D01*
X130556000Y-95306884D01*
X130550525Y-95307363D01*
X130420371Y-95318750D01*
X130350766Y-95304761D01*
X130320294Y-95282324D01*
X126221405Y-91183435D01*
X126187379Y-91121123D01*
X126184500Y-91094340D01*
X126184500Y-89944801D01*
X126193467Y-89914261D01*
X129906294Y-89914261D01*
X129915590Y-89926276D01*
X129945189Y-89947001D01*
X129954677Y-89952479D01*
X130136277Y-90037159D01*
X130146571Y-90040907D01*
X130340122Y-90092769D01*
X130350909Y-90094671D01*
X130550525Y-90112135D01*
X130561475Y-90112135D01*
X130761091Y-90094671D01*
X130771878Y-90092769D01*
X130965429Y-90040907D01*
X130975723Y-90037159D01*
X131157323Y-89952479D01*
X131166811Y-89947001D01*
X131197248Y-89925689D01*
X131205623Y-89915212D01*
X131198554Y-89901764D01*
X130568812Y-89272022D01*
X130554868Y-89264408D01*
X130553035Y-89264539D01*
X130546420Y-89268790D01*
X129912724Y-89902486D01*
X129906294Y-89914261D01*
X126193467Y-89914261D01*
X126204502Y-89876680D01*
X126238228Y-89841589D01*
X126251262Y-89832462D01*
X126251264Y-89832460D01*
X126255776Y-89829301D01*
X126405301Y-89679776D01*
X126526589Y-89506558D01*
X126533145Y-89492500D01*
X126613633Y-89319892D01*
X126613634Y-89319891D01*
X126615956Y-89314910D01*
X126626542Y-89275405D01*
X126669262Y-89115970D01*
X126669262Y-89115968D01*
X126670686Y-89110655D01*
X126688637Y-88905475D01*
X129343865Y-88905475D01*
X129361329Y-89105091D01*
X129363231Y-89115878D01*
X129415093Y-89309429D01*
X129418841Y-89319723D01*
X129503521Y-89501323D01*
X129508999Y-89510811D01*
X129530311Y-89541248D01*
X129540788Y-89549623D01*
X129554236Y-89542554D01*
X130183978Y-88912812D01*
X130190356Y-88901132D01*
X130920408Y-88901132D01*
X130920539Y-88902965D01*
X130924790Y-88909580D01*
X131558486Y-89543276D01*
X131570261Y-89549706D01*
X131582276Y-89540410D01*
X131603001Y-89510811D01*
X131608479Y-89501323D01*
X131693159Y-89319723D01*
X131696907Y-89309429D01*
X131748769Y-89115878D01*
X131750671Y-89105091D01*
X131768135Y-88905475D01*
X131768135Y-88894525D01*
X131750671Y-88694909D01*
X131748769Y-88684122D01*
X131696907Y-88490571D01*
X131693159Y-88480277D01*
X131608479Y-88298677D01*
X131603001Y-88289189D01*
X131581689Y-88258752D01*
X131571212Y-88250377D01*
X131557764Y-88257446D01*
X130928022Y-88887188D01*
X130920408Y-88901132D01*
X130190356Y-88901132D01*
X130191592Y-88898868D01*
X130191461Y-88897035D01*
X130187210Y-88890420D01*
X129553514Y-88256724D01*
X129541739Y-88250294D01*
X129529724Y-88259590D01*
X129508999Y-88289189D01*
X129503521Y-88298677D01*
X129418841Y-88480277D01*
X129415093Y-88490571D01*
X129363231Y-88684122D01*
X129361329Y-88694909D01*
X129343865Y-88894525D01*
X129343865Y-88905475D01*
X126688637Y-88905475D01*
X126689116Y-88900000D01*
X126670686Y-88689345D01*
X126659072Y-88646000D01*
X126617379Y-88490400D01*
X126617378Y-88490398D01*
X126615956Y-88485090D01*
X126595315Y-88440825D01*
X126528912Y-88298423D01*
X126528910Y-88298420D01*
X126526589Y-88293442D01*
X126405301Y-88120224D01*
X126255776Y-87970699D01*
X126133082Y-87884788D01*
X129906377Y-87884788D01*
X129913446Y-87898236D01*
X130543188Y-88527978D01*
X130557132Y-88535592D01*
X130558965Y-88535461D01*
X130565580Y-88531210D01*
X131199276Y-87897514D01*
X131205706Y-87885739D01*
X131196410Y-87873724D01*
X131166811Y-87852999D01*
X131157323Y-87847521D01*
X130975723Y-87762841D01*
X130965429Y-87759093D01*
X130771878Y-87707231D01*
X130761091Y-87705329D01*
X130561475Y-87687865D01*
X130550525Y-87687865D01*
X130350909Y-87705329D01*
X130340122Y-87707231D01*
X130146571Y-87759093D01*
X130136277Y-87762841D01*
X129954677Y-87847521D01*
X129945189Y-87852999D01*
X129914752Y-87874311D01*
X129906377Y-87884788D01*
X126133082Y-87884788D01*
X126082558Y-87849411D01*
X126077580Y-87847090D01*
X126077577Y-87847088D01*
X125895892Y-87762367D01*
X125895891Y-87762366D01*
X125890910Y-87760044D01*
X125885602Y-87758622D01*
X125885600Y-87758621D01*
X125691970Y-87706738D01*
X125691968Y-87706738D01*
X125686655Y-87705314D01*
X125476000Y-87686884D01*
X125265345Y-87705314D01*
X125260032Y-87706738D01*
X125260030Y-87706738D01*
X125066400Y-87758621D01*
X125066398Y-87758622D01*
X125061090Y-87760044D01*
X125056109Y-87762366D01*
X125056108Y-87762367D01*
X124874423Y-87847088D01*
X124874420Y-87847090D01*
X124869442Y-87849411D01*
X124696224Y-87970699D01*
X124546699Y-88120224D01*
X124425411Y-88293442D01*
X124423090Y-88298420D01*
X124423088Y-88298423D01*
X124356685Y-88440825D01*
X124336044Y-88485090D01*
X124334622Y-88490398D01*
X124334621Y-88490400D01*
X124292928Y-88646000D01*
X124281314Y-88689345D01*
X124262884Y-88900000D01*
X124263363Y-88905475D01*
X124274750Y-89035629D01*
X124260761Y-89105234D01*
X124238324Y-89135706D01*
X122679435Y-90694595D01*
X122617123Y-90728621D01*
X122590340Y-90731500D01*
X111597660Y-90731500D01*
X111529539Y-90711498D01*
X111508565Y-90694595D01*
X106185450Y-85371480D01*
X106179596Y-85365215D01*
X106177812Y-85363170D01*
X106141561Y-85321615D01*
X106089280Y-85284871D01*
X106083986Y-85280939D01*
X106039693Y-85246209D01*
X106033718Y-85241524D01*
X106026802Y-85238401D01*
X106024516Y-85237017D01*
X106009835Y-85228643D01*
X106007475Y-85227378D01*
X106001261Y-85223010D01*
X105994182Y-85220250D01*
X105994180Y-85220249D01*
X105941725Y-85199798D01*
X105935656Y-85197247D01*
X105877427Y-85170955D01*
X105869960Y-85169571D01*
X105867405Y-85168770D01*
X105851152Y-85164141D01*
X105848572Y-85163478D01*
X105841491Y-85160718D01*
X105833960Y-85159727D01*
X105833958Y-85159726D01*
X105804339Y-85155827D01*
X105778139Y-85152378D01*
X105771641Y-85151348D01*
X105708814Y-85139704D01*
X105701234Y-85140141D01*
X105701233Y-85140141D01*
X105646608Y-85143291D01*
X105639354Y-85143500D01*
X98072912Y-85143500D01*
X98064342Y-85143208D01*
X98014224Y-85139791D01*
X98014220Y-85139791D01*
X98006648Y-85139275D01*
X97999171Y-85140580D01*
X97999170Y-85140580D01*
X97972692Y-85145201D01*
X97943697Y-85150262D01*
X97937179Y-85151223D01*
X97873758Y-85158898D01*
X97866657Y-85161581D01*
X97864048Y-85162222D01*
X97847738Y-85166685D01*
X97845202Y-85167450D01*
X97837716Y-85168757D01*
X97825586Y-85174082D01*
X97779205Y-85194442D01*
X97773101Y-85196933D01*
X97713344Y-85219513D01*
X97707081Y-85223817D01*
X97704715Y-85225054D01*
X97689903Y-85233299D01*
X97687649Y-85234632D01*
X97680695Y-85237685D01*
X97629998Y-85276587D01*
X97624668Y-85280459D01*
X97578280Y-85312339D01*
X97578275Y-85312344D01*
X97572019Y-85316643D01*
X97566968Y-85322313D01*
X97566966Y-85322314D01*
X97530565Y-85363170D01*
X97525584Y-85368446D01*
X95231706Y-87662324D01*
X95169394Y-87696350D01*
X95131629Y-87698750D01*
X95001475Y-87687363D01*
X94996000Y-87686884D01*
X94785345Y-87705314D01*
X94780032Y-87706738D01*
X94780030Y-87706738D01*
X94586400Y-87758621D01*
X94586398Y-87758622D01*
X94581090Y-87760044D01*
X94576109Y-87762366D01*
X94576108Y-87762367D01*
X94394423Y-87847088D01*
X94394420Y-87847090D01*
X94389442Y-87849411D01*
X94216224Y-87970699D01*
X94066699Y-88120224D01*
X93945411Y-88293442D01*
X93943090Y-88298420D01*
X93943088Y-88298423D01*
X93876685Y-88440825D01*
X93856044Y-88485090D01*
X93854622Y-88490398D01*
X93854621Y-88490400D01*
X93812928Y-88646000D01*
X93801314Y-88689345D01*
X93782884Y-88900000D01*
X93783363Y-88905475D01*
X93794750Y-89035629D01*
X93780761Y-89105234D01*
X93758324Y-89135706D01*
X91691435Y-91202595D01*
X91629123Y-91236621D01*
X91602340Y-91239500D01*
X82133660Y-91239500D01*
X82065539Y-91219498D01*
X82044565Y-91202595D01*
X76721450Y-85879480D01*
X76715596Y-85873215D01*
X76710775Y-85867689D01*
X76677561Y-85829615D01*
X76625280Y-85792871D01*
X76619986Y-85788939D01*
X76575693Y-85754209D01*
X76569718Y-85749524D01*
X76562802Y-85746401D01*
X76560516Y-85745017D01*
X76545835Y-85736643D01*
X76543475Y-85735378D01*
X76537261Y-85731010D01*
X76530182Y-85728250D01*
X76530180Y-85728249D01*
X76477725Y-85707798D01*
X76471656Y-85705247D01*
X76413427Y-85678955D01*
X76405960Y-85677571D01*
X76403405Y-85676770D01*
X76387152Y-85672141D01*
X76384572Y-85671478D01*
X76377491Y-85668718D01*
X76369960Y-85667727D01*
X76369958Y-85667726D01*
X76340339Y-85663827D01*
X76314139Y-85660378D01*
X76307641Y-85659348D01*
X76244814Y-85647704D01*
X76237234Y-85648141D01*
X76237233Y-85648141D01*
X76182608Y-85651291D01*
X76175354Y-85651500D01*
X67084912Y-85651500D01*
X67076342Y-85651208D01*
X67026224Y-85647791D01*
X67026220Y-85647791D01*
X67018648Y-85647275D01*
X67011171Y-85648580D01*
X67011170Y-85648580D01*
X66994440Y-85651500D01*
X66955703Y-85658261D01*
X66949186Y-85659222D01*
X66885758Y-85666898D01*
X66878650Y-85669584D01*
X66876056Y-85670221D01*
X66859750Y-85674682D01*
X66857199Y-85675452D01*
X66849716Y-85676758D01*
X66842764Y-85679810D01*
X66842763Y-85679810D01*
X66791212Y-85702439D01*
X66785105Y-85704931D01*
X66777518Y-85707798D01*
X66725344Y-85727513D01*
X66719083Y-85731816D01*
X66716717Y-85733053D01*
X66701937Y-85741280D01*
X66699652Y-85742631D01*
X66692695Y-85745685D01*
X66686675Y-85750305D01*
X66686669Y-85750308D01*
X66663785Y-85767869D01*
X66641998Y-85784587D01*
X66636668Y-85788459D01*
X66590280Y-85820339D01*
X66590275Y-85820344D01*
X66584019Y-85824643D01*
X66578968Y-85830313D01*
X66578966Y-85830314D01*
X66542565Y-85871170D01*
X66537584Y-85876446D01*
X65005706Y-87408324D01*
X64943394Y-87442350D01*
X64905629Y-87444750D01*
X64775475Y-87433363D01*
X64770000Y-87432884D01*
X64559345Y-87451314D01*
X64554032Y-87452738D01*
X64554030Y-87452738D01*
X64360400Y-87504621D01*
X64360398Y-87504622D01*
X64355090Y-87506044D01*
X64350109Y-87508366D01*
X64350108Y-87508367D01*
X64168423Y-87593088D01*
X64168420Y-87593090D01*
X64163442Y-87595411D01*
X63990224Y-87716699D01*
X63840699Y-87866224D01*
X63719411Y-88039442D01*
X63717090Y-88044420D01*
X63717088Y-88044423D01*
X63648505Y-88191500D01*
X63630044Y-88231090D01*
X63575314Y-88435345D01*
X63556884Y-88646000D01*
X63575314Y-88856655D01*
X63576738Y-88861968D01*
X63576738Y-88861970D01*
X63619459Y-89021405D01*
X63630044Y-89060910D01*
X63632366Y-89065891D01*
X63632367Y-89065892D01*
X63716162Y-89245590D01*
X63719411Y-89252558D01*
X63840699Y-89425776D01*
X63990224Y-89575301D01*
X63994736Y-89578460D01*
X63994738Y-89578462D01*
X64007772Y-89587589D01*
X64052100Y-89643047D01*
X64061500Y-89690801D01*
X64061500Y-91157088D01*
X64061208Y-91165658D01*
X64057275Y-91223352D01*
X64058580Y-91230829D01*
X64058580Y-91230830D01*
X64068261Y-91286299D01*
X64069223Y-91292821D01*
X64076898Y-91356242D01*
X64079581Y-91363343D01*
X64080222Y-91365952D01*
X64084685Y-91382262D01*
X64085450Y-91384798D01*
X64086757Y-91392284D01*
X64098774Y-91419658D01*
X64112442Y-91450795D01*
X64114933Y-91456899D01*
X64137513Y-91516656D01*
X64141817Y-91522919D01*
X64143054Y-91525285D01*
X64151299Y-91540097D01*
X64152632Y-91542351D01*
X64155685Y-91549305D01*
X64160307Y-91555328D01*
X64194579Y-91599991D01*
X64198459Y-91605332D01*
X64230339Y-91651720D01*
X64230344Y-91651725D01*
X64234643Y-91657981D01*
X64240313Y-91663032D01*
X64240314Y-91663034D01*
X64281170Y-91699435D01*
X64286446Y-91704416D01*
X68612324Y-96030294D01*
X68646350Y-96092606D01*
X68648750Y-96130371D01*
X68642464Y-96202222D01*
X68636884Y-96266000D01*
X68637363Y-96271475D01*
X68648750Y-96401629D01*
X68634761Y-96471234D01*
X68612324Y-96501706D01*
X67815435Y-97298595D01*
X67753123Y-97332621D01*
X67726340Y-97335500D01*
X65524275Y-97335500D01*
X65456154Y-97315498D01*
X65412744Y-97268125D01*
X65412555Y-97267765D01*
X64782812Y-96638022D01*
X64768868Y-96630408D01*
X64767035Y-96630539D01*
X64760420Y-96634790D01*
X64126723Y-97268487D01*
X64125959Y-97269886D01*
X64075757Y-97320088D01*
X64015372Y-97335500D01*
X60289660Y-97335500D01*
X60221539Y-97315498D01*
X60200565Y-97298595D01*
X59173445Y-96271475D01*
X63557865Y-96271475D01*
X63575329Y-96471091D01*
X63577231Y-96481878D01*
X63629093Y-96675429D01*
X63632841Y-96685723D01*
X63717521Y-96867323D01*
X63722999Y-96876811D01*
X63744311Y-96907248D01*
X63754788Y-96915623D01*
X63768236Y-96908554D01*
X64397978Y-96278812D01*
X64404356Y-96267132D01*
X65134408Y-96267132D01*
X65134539Y-96268965D01*
X65138790Y-96275580D01*
X65772486Y-96909276D01*
X65784261Y-96915706D01*
X65796276Y-96906410D01*
X65817001Y-96876811D01*
X65822479Y-96867323D01*
X65907159Y-96685723D01*
X65910907Y-96675429D01*
X65962769Y-96481878D01*
X65964671Y-96471091D01*
X65982135Y-96271475D01*
X65982135Y-96260525D01*
X65964671Y-96060909D01*
X65962769Y-96050122D01*
X65910907Y-95856571D01*
X65907159Y-95846277D01*
X65822479Y-95664677D01*
X65817001Y-95655189D01*
X65795689Y-95624752D01*
X65785212Y-95616377D01*
X65771764Y-95623446D01*
X65142022Y-96253188D01*
X65134408Y-96267132D01*
X64404356Y-96267132D01*
X64405592Y-96264868D01*
X64405461Y-96263035D01*
X64401210Y-96256420D01*
X63767514Y-95622724D01*
X63755739Y-95616294D01*
X63743724Y-95625590D01*
X63722999Y-95655189D01*
X63717521Y-95664677D01*
X63632841Y-95846277D01*
X63629093Y-95856571D01*
X63577231Y-96050122D01*
X63575329Y-96060909D01*
X63557865Y-96260525D01*
X63557865Y-96271475D01*
X59173445Y-96271475D01*
X58152758Y-95250788D01*
X64120377Y-95250788D01*
X64127446Y-95264236D01*
X64757188Y-95893978D01*
X64771132Y-95901592D01*
X64772965Y-95901461D01*
X64779580Y-95897210D01*
X65413276Y-95263514D01*
X65419706Y-95251739D01*
X65410410Y-95239724D01*
X65380811Y-95218999D01*
X65371323Y-95213521D01*
X65189723Y-95128841D01*
X65179429Y-95125093D01*
X64985878Y-95073231D01*
X64975091Y-95071329D01*
X64775475Y-95053865D01*
X64764525Y-95053865D01*
X64564909Y-95071329D01*
X64554122Y-95073231D01*
X64360571Y-95125093D01*
X64350277Y-95128841D01*
X64168677Y-95213521D01*
X64159189Y-95218999D01*
X64128752Y-95240311D01*
X64120377Y-95250788D01*
X58152758Y-95250788D01*
X56117405Y-93215435D01*
X56083379Y-93153123D01*
X56080500Y-93126340D01*
X56080500Y-90025357D01*
X56100502Y-89957236D01*
X56154158Y-89910743D01*
X56224432Y-89900639D01*
X56289012Y-89930133D01*
X56313933Y-89959522D01*
X56328987Y-89984088D01*
X56475250Y-90152938D01*
X56647126Y-90295632D01*
X56840000Y-90408338D01*
X56844825Y-90410180D01*
X56844826Y-90410181D01*
X56917612Y-90437975D01*
X57048692Y-90488030D01*
X57053760Y-90489061D01*
X57053763Y-90489062D01*
X57161017Y-90510883D01*
X57267597Y-90532567D01*
X57272772Y-90532757D01*
X57272774Y-90532757D01*
X57485673Y-90540564D01*
X57485677Y-90540564D01*
X57490837Y-90540753D01*
X57495957Y-90540097D01*
X57495959Y-90540097D01*
X57707288Y-90513025D01*
X57707289Y-90513025D01*
X57712416Y-90512368D01*
X57760147Y-90498048D01*
X57921429Y-90449661D01*
X57921434Y-90449659D01*
X57926384Y-90448174D01*
X58126994Y-90349896D01*
X58308860Y-90220173D01*
X58467096Y-90062489D01*
X58526594Y-89979689D01*
X58594435Y-89885277D01*
X58597453Y-89881077D01*
X58608544Y-89858637D01*
X58694136Y-89685453D01*
X58694137Y-89685451D01*
X58696430Y-89680811D01*
X58729670Y-89571406D01*
X58759865Y-89472023D01*
X58759865Y-89472021D01*
X58761370Y-89467069D01*
X58790529Y-89245590D01*
X58790717Y-89237891D01*
X58792074Y-89182365D01*
X58792074Y-89182361D01*
X58792156Y-89179000D01*
X58773852Y-88956361D01*
X58772593Y-88951348D01*
X58772591Y-88951337D01*
X58767115Y-88929540D01*
X58769918Y-88858598D01*
X58800223Y-88809747D01*
X62536565Y-85073405D01*
X62598877Y-85039379D01*
X62625660Y-85036500D01*
X77886340Y-85036500D01*
X77954461Y-85056502D01*
X77975435Y-85073405D01*
X81312324Y-88410295D01*
X81346350Y-88472607D01*
X81348750Y-88510371D01*
X81336884Y-88646000D01*
X81355314Y-88856655D01*
X81356738Y-88861968D01*
X81356738Y-88861970D01*
X81399459Y-89021405D01*
X81410044Y-89060910D01*
X81412366Y-89065891D01*
X81412367Y-89065892D01*
X81496162Y-89245590D01*
X81499411Y-89252558D01*
X81620699Y-89425776D01*
X81770224Y-89575301D01*
X81943442Y-89696589D01*
X81948420Y-89698910D01*
X81948423Y-89698912D01*
X82129092Y-89783159D01*
X82135090Y-89785956D01*
X82140398Y-89787378D01*
X82140400Y-89787379D01*
X82334030Y-89839262D01*
X82334032Y-89839262D01*
X82339345Y-89840686D01*
X82550000Y-89859116D01*
X82760655Y-89840686D01*
X82765968Y-89839262D01*
X82765970Y-89839262D01*
X82959600Y-89787379D01*
X82959602Y-89787378D01*
X82964910Y-89785956D01*
X82970908Y-89783159D01*
X83151577Y-89698912D01*
X83151580Y-89698910D01*
X83156558Y-89696589D01*
X83329776Y-89575301D01*
X83479301Y-89425776D01*
X83482462Y-89421262D01*
X83491589Y-89408228D01*
X83547047Y-89363900D01*
X83594801Y-89354500D01*
X85061088Y-89354500D01*
X85069658Y-89354792D01*
X85119776Y-89358209D01*
X85119780Y-89358209D01*
X85127352Y-89358725D01*
X85134829Y-89357420D01*
X85134830Y-89357420D01*
X85162206Y-89352642D01*
X85190303Y-89347738D01*
X85196821Y-89346777D01*
X85260242Y-89339102D01*
X85267343Y-89336419D01*
X85269952Y-89335778D01*
X85286262Y-89331315D01*
X85288798Y-89330550D01*
X85296284Y-89329243D01*
X85354800Y-89303556D01*
X85360904Y-89301065D01*
X85413548Y-89281173D01*
X85413549Y-89281172D01*
X85420656Y-89278487D01*
X85426919Y-89274183D01*
X85429285Y-89272946D01*
X85444097Y-89264701D01*
X85446351Y-89263368D01*
X85453305Y-89260315D01*
X85504002Y-89221413D01*
X85509332Y-89217541D01*
X85555720Y-89185661D01*
X85555725Y-89185656D01*
X85561981Y-89181357D01*
X85567070Y-89175646D01*
X85603435Y-89134830D01*
X85608416Y-89129554D01*
X85716565Y-89021405D01*
X85778877Y-88987379D01*
X85805660Y-88984500D01*
X88016134Y-88984500D01*
X88078316Y-88977745D01*
X88214705Y-88926615D01*
X88331261Y-88839261D01*
X88418615Y-88722705D01*
X88469745Y-88586316D01*
X88476500Y-88524134D01*
X88476500Y-86227866D01*
X88469745Y-86165684D01*
X88418615Y-86029295D01*
X88331261Y-85912739D01*
X88214705Y-85825385D01*
X88078316Y-85774255D01*
X88016134Y-85767500D01*
X85719866Y-85767500D01*
X85657684Y-85774255D01*
X85521295Y-85825385D01*
X85404739Y-85912739D01*
X85317385Y-86029295D01*
X85266255Y-86165684D01*
X85259500Y-86227866D01*
X85259500Y-87422340D01*
X85239498Y-87490461D01*
X85222595Y-87511435D01*
X84833435Y-87900595D01*
X84771123Y-87934621D01*
X84744340Y-87937500D01*
X83594801Y-87937500D01*
X83526680Y-87917498D01*
X83491589Y-87883772D01*
X83482462Y-87870738D01*
X83482460Y-87870736D01*
X83479301Y-87866224D01*
X83329776Y-87716699D01*
X83156558Y-87595411D01*
X83151580Y-87593090D01*
X83151577Y-87593088D01*
X82969892Y-87508367D01*
X82969891Y-87508366D01*
X82964910Y-87506044D01*
X82959602Y-87504622D01*
X82959600Y-87504621D01*
X82765970Y-87452738D01*
X82765968Y-87452738D01*
X82760655Y-87451314D01*
X82550000Y-87432884D01*
X82544525Y-87433363D01*
X82414371Y-87444750D01*
X82344766Y-87430761D01*
X82314294Y-87408324D01*
X79141565Y-84235595D01*
X79107539Y-84173283D01*
X79112604Y-84102468D01*
X79155151Y-84045632D01*
X79221671Y-84020821D01*
X79230660Y-84020500D01*
X106842340Y-84020500D01*
X106910461Y-84040502D01*
X106931435Y-84057405D01*
X111538324Y-88664295D01*
X111572350Y-88726607D01*
X111574750Y-88764371D01*
X111562884Y-88900000D01*
X111581314Y-89110655D01*
X111582738Y-89115968D01*
X111582738Y-89115970D01*
X111625459Y-89275405D01*
X111636044Y-89314910D01*
X111638366Y-89319891D01*
X111638367Y-89319892D01*
X111718856Y-89492500D01*
X111725411Y-89506558D01*
X111846699Y-89679776D01*
X111996224Y-89829301D01*
X112169442Y-89950589D01*
X112174420Y-89952910D01*
X112174423Y-89952912D01*
X112329782Y-90025357D01*
X112361090Y-90039956D01*
X112366398Y-90041378D01*
X112366400Y-90041379D01*
X112560030Y-90093262D01*
X112560032Y-90093262D01*
X112565345Y-90094686D01*
X112776000Y-90113116D01*
X112986655Y-90094686D01*
X112991968Y-90093262D01*
X112991970Y-90093262D01*
X113185600Y-90041379D01*
X113185602Y-90041378D01*
X113190910Y-90039956D01*
X113222218Y-90025357D01*
X113377577Y-89952912D01*
X113377580Y-89952910D01*
X113382558Y-89950589D01*
X113555776Y-89829301D01*
X113705301Y-89679776D01*
X113710964Y-89671689D01*
X113717589Y-89662228D01*
X113773047Y-89617900D01*
X113820801Y-89608500D01*
X115541088Y-89608500D01*
X115549658Y-89608792D01*
X115599776Y-89612209D01*
X115599780Y-89612209D01*
X115607352Y-89612725D01*
X115614829Y-89611420D01*
X115614830Y-89611420D01*
X115641308Y-89606799D01*
X115670303Y-89601738D01*
X115676821Y-89600777D01*
X115740242Y-89593102D01*
X115747343Y-89590419D01*
X115749952Y-89589778D01*
X115766262Y-89585315D01*
X115768798Y-89584550D01*
X115776284Y-89583243D01*
X115834800Y-89557556D01*
X115840904Y-89555065D01*
X115893548Y-89535173D01*
X115893549Y-89535172D01*
X115900656Y-89532487D01*
X115906919Y-89528183D01*
X115909285Y-89526946D01*
X115924097Y-89518701D01*
X115926351Y-89517368D01*
X115933305Y-89514315D01*
X115984002Y-89475413D01*
X115989332Y-89471541D01*
X116035720Y-89439661D01*
X116035725Y-89439656D01*
X116041981Y-89435357D01*
X116047046Y-89429673D01*
X116083435Y-89388830D01*
X116088416Y-89383554D01*
X116196565Y-89275405D01*
X116258877Y-89241379D01*
X116285660Y-89238500D01*
X117988134Y-89238500D01*
X118050316Y-89231745D01*
X118186705Y-89180615D01*
X118303261Y-89093261D01*
X118390615Y-88976705D01*
X118441745Y-88840316D01*
X118448500Y-88778134D01*
X118448500Y-86481866D01*
X118441745Y-86419684D01*
X118390615Y-86283295D01*
X118303261Y-86166739D01*
X118186705Y-86079385D01*
X118050316Y-86028255D01*
X117988134Y-86021500D01*
X115691866Y-86021500D01*
X115629684Y-86028255D01*
X115493295Y-86079385D01*
X115376739Y-86166739D01*
X115289385Y-86283295D01*
X115238255Y-86419684D01*
X115231500Y-86481866D01*
X115231500Y-88065500D01*
X115211498Y-88133621D01*
X115157842Y-88180114D01*
X115105500Y-88191500D01*
X113820801Y-88191500D01*
X113752680Y-88171498D01*
X113717589Y-88137772D01*
X113708462Y-88124738D01*
X113708460Y-88124736D01*
X113705301Y-88120224D01*
X113555776Y-87970699D01*
X113382558Y-87849411D01*
X113377580Y-87847090D01*
X113377577Y-87847088D01*
X113195892Y-87762367D01*
X113195891Y-87762366D01*
X113190910Y-87760044D01*
X113185602Y-87758622D01*
X113185600Y-87758621D01*
X112991970Y-87706738D01*
X112991968Y-87706738D01*
X112986655Y-87705314D01*
X112776000Y-87686884D01*
X112770525Y-87687363D01*
X112640371Y-87698750D01*
X112570766Y-87684761D01*
X112540294Y-87662324D01*
X108097565Y-83219595D01*
X108063539Y-83157283D01*
X108068604Y-83086468D01*
X108111151Y-83029632D01*
X108177671Y-83004821D01*
X108186660Y-83004500D01*
X136306340Y-83004500D01*
X136374461Y-83024502D01*
X136395435Y-83041405D01*
X142018324Y-88664295D01*
X142052350Y-88726607D01*
X142054750Y-88764371D01*
X142042884Y-88900000D01*
X142061314Y-89110655D01*
X142062738Y-89115968D01*
X142062738Y-89115970D01*
X142105459Y-89275405D01*
X142116044Y-89314910D01*
X142118366Y-89319891D01*
X142118367Y-89319892D01*
X142198856Y-89492500D01*
X142205411Y-89506558D01*
X142326699Y-89679776D01*
X142476224Y-89829301D01*
X142649442Y-89950589D01*
X142654420Y-89952910D01*
X142654423Y-89952912D01*
X142809782Y-90025357D01*
X142841090Y-90039956D01*
X142846398Y-90041378D01*
X142846400Y-90041379D01*
X143040030Y-90093262D01*
X143040032Y-90093262D01*
X143045345Y-90094686D01*
X143256000Y-90113116D01*
X143466655Y-90094686D01*
X143471968Y-90093262D01*
X143471970Y-90093262D01*
X143665600Y-90041379D01*
X143665602Y-90041378D01*
X143670910Y-90039956D01*
X143702218Y-90025357D01*
X143857577Y-89952912D01*
X143857580Y-89952910D01*
X143862558Y-89950589D01*
X144035776Y-89829301D01*
X144185301Y-89679776D01*
X144306589Y-89506558D01*
X144313145Y-89492500D01*
X144393633Y-89319892D01*
X144393634Y-89319891D01*
X144395956Y-89314910D01*
X144406542Y-89275405D01*
X144449262Y-89115970D01*
X144449262Y-89115968D01*
X144450686Y-89110655D01*
X144469116Y-88900000D01*
X144457250Y-88764371D01*
X144471239Y-88694766D01*
X144493676Y-88664294D01*
X144528565Y-88629405D01*
X144590877Y-88595379D01*
X144617660Y-88592500D01*
X145585500Y-88592500D01*
X145653621Y-88612502D01*
X145700114Y-88666158D01*
X145711500Y-88718500D01*
X145711500Y-89032134D01*
X145718255Y-89094316D01*
X145769385Y-89230705D01*
X145856739Y-89347261D01*
X145973295Y-89434615D01*
X146109684Y-89485745D01*
X146171866Y-89492500D01*
X148468134Y-89492500D01*
X148530316Y-89485745D01*
X148666705Y-89434615D01*
X148783261Y-89347261D01*
X148870615Y-89230705D01*
X148921745Y-89094316D01*
X148928500Y-89032134D01*
X148928500Y-86735866D01*
X148921745Y-86673684D01*
X148870615Y-86537295D01*
X148783261Y-86420739D01*
X148666705Y-86333385D01*
X148530316Y-86282255D01*
X148468134Y-86275500D01*
X146171866Y-86275500D01*
X146109684Y-86282255D01*
X145973295Y-86333385D01*
X145856739Y-86420739D01*
X145769385Y-86537295D01*
X145718255Y-86673684D01*
X145711500Y-86735866D01*
X145711500Y-87049500D01*
X145691498Y-87117621D01*
X145637842Y-87164114D01*
X145585500Y-87175500D01*
X144300912Y-87175500D01*
X144292342Y-87175208D01*
X144242224Y-87171791D01*
X144242220Y-87171791D01*
X144234648Y-87171275D01*
X144227171Y-87172580D01*
X144227170Y-87172580D01*
X144200692Y-87177201D01*
X144171697Y-87182262D01*
X144165179Y-87183223D01*
X144101758Y-87190898D01*
X144094657Y-87193581D01*
X144092048Y-87194222D01*
X144075738Y-87198685D01*
X144073202Y-87199450D01*
X144065716Y-87200757D01*
X144058759Y-87203811D01*
X144007205Y-87226442D01*
X144001101Y-87228933D01*
X143941344Y-87251513D01*
X143935081Y-87255817D01*
X143932715Y-87257054D01*
X143917903Y-87265299D01*
X143915649Y-87266632D01*
X143908695Y-87269685D01*
X143857998Y-87308587D01*
X143852668Y-87312459D01*
X143806280Y-87344339D01*
X143806275Y-87344344D01*
X143800019Y-87348643D01*
X143794968Y-87354313D01*
X143794966Y-87354314D01*
X143758565Y-87395170D01*
X143753584Y-87400446D01*
X143491706Y-87662324D01*
X143429394Y-87696350D01*
X143391629Y-87698750D01*
X143261475Y-87687363D01*
X143256000Y-87686884D01*
X143250525Y-87687363D01*
X143120371Y-87698750D01*
X143050766Y-87684761D01*
X143020294Y-87662324D01*
X137173450Y-81815480D01*
X137167596Y-81809215D01*
X137167201Y-81808762D01*
X137129561Y-81765615D01*
X137077280Y-81728871D01*
X137071986Y-81724939D01*
X137027693Y-81690209D01*
X137021718Y-81685524D01*
X137014802Y-81682401D01*
X137012516Y-81681017D01*
X136997835Y-81672643D01*
X136995475Y-81671378D01*
X136989261Y-81667010D01*
X136982182Y-81664250D01*
X136982180Y-81664249D01*
X136929725Y-81643798D01*
X136923656Y-81641247D01*
X136865427Y-81614955D01*
X136857960Y-81613571D01*
X136855405Y-81612770D01*
X136839152Y-81608141D01*
X136836572Y-81607478D01*
X136829491Y-81604718D01*
X136821960Y-81603727D01*
X136821958Y-81603726D01*
X136792339Y-81599827D01*
X136766139Y-81596378D01*
X136759641Y-81595348D01*
X136696814Y-81583704D01*
X136689234Y-81584141D01*
X136689233Y-81584141D01*
X136634608Y-81587291D01*
X136627354Y-81587500D01*
X119870660Y-81587500D01*
X119802539Y-81567498D01*
X119756046Y-81513842D01*
X119745942Y-81443568D01*
X119775436Y-81378988D01*
X119781565Y-81372405D01*
X120768565Y-80385405D01*
X120830877Y-80351379D01*
X120857660Y-80348500D01*
X122560134Y-80348500D01*
X122622316Y-80341745D01*
X122758705Y-80290615D01*
X122875261Y-80203261D01*
X122962615Y-80086705D01*
X123013745Y-79950316D01*
X123020500Y-79888134D01*
X123020500Y-79574500D01*
X123040502Y-79506379D01*
X123094158Y-79459886D01*
X123146500Y-79448500D01*
X124431088Y-79448500D01*
X124439658Y-79448792D01*
X124489776Y-79452209D01*
X124489780Y-79452209D01*
X124497352Y-79452725D01*
X124504829Y-79451420D01*
X124504830Y-79451420D01*
X124531308Y-79446799D01*
X124560303Y-79441738D01*
X124566821Y-79440777D01*
X124630242Y-79433102D01*
X124637343Y-79430419D01*
X124639952Y-79429778D01*
X124656262Y-79425315D01*
X124658798Y-79424550D01*
X124666284Y-79423243D01*
X124724800Y-79397556D01*
X124730904Y-79395065D01*
X124748509Y-79388413D01*
X124790656Y-79372487D01*
X124796919Y-79368183D01*
X124799285Y-79366946D01*
X124814097Y-79358701D01*
X124816351Y-79357368D01*
X124823305Y-79354315D01*
X124874002Y-79315413D01*
X124879332Y-79311541D01*
X124925720Y-79279661D01*
X124925725Y-79279656D01*
X124931981Y-79275357D01*
X124973436Y-79228829D01*
X124978416Y-79223554D01*
X125494294Y-78707676D01*
X125556606Y-78673650D01*
X125594371Y-78671250D01*
X125724525Y-78682637D01*
X125730000Y-78683116D01*
X125940655Y-78664686D01*
X125945968Y-78663262D01*
X125945970Y-78663262D01*
X126139600Y-78611379D01*
X126139602Y-78611378D01*
X126144910Y-78609956D01*
X126277121Y-78548305D01*
X126331577Y-78522912D01*
X126331580Y-78522910D01*
X126336558Y-78520589D01*
X126509776Y-78399301D01*
X126659301Y-78249776D01*
X126780589Y-78076558D01*
X126788399Y-78059811D01*
X126867633Y-77889892D01*
X126867634Y-77889891D01*
X126869956Y-77884910D01*
X126881241Y-77842796D01*
X126923262Y-77685970D01*
X126923262Y-77685968D01*
X126924686Y-77680655D01*
X126943116Y-77470000D01*
X126924686Y-77259345D01*
X126908486Y-77198886D01*
X126871379Y-77060400D01*
X126871378Y-77060398D01*
X126869956Y-77055090D01*
X126780589Y-76863442D01*
X126659301Y-76690224D01*
X126584672Y-76615595D01*
X126550646Y-76553283D01*
X126555711Y-76482468D01*
X126598258Y-76425632D01*
X126664778Y-76400821D01*
X126673767Y-76400500D01*
X128178340Y-76400500D01*
X128246461Y-76420502D01*
X128267435Y-76437405D01*
X132066550Y-80236520D01*
X132072404Y-80242785D01*
X132110439Y-80286385D01*
X132129665Y-80299897D01*
X132162719Y-80323128D01*
X132168014Y-80327061D01*
X132218282Y-80366476D01*
X132225198Y-80369599D01*
X132227484Y-80370983D01*
X132242165Y-80379357D01*
X132244525Y-80380622D01*
X132250739Y-80384990D01*
X132257818Y-80387750D01*
X132257820Y-80387751D01*
X132310275Y-80408202D01*
X132316344Y-80410753D01*
X132374573Y-80437045D01*
X132382040Y-80438429D01*
X132384595Y-80439230D01*
X132400848Y-80443859D01*
X132403428Y-80444522D01*
X132410509Y-80447282D01*
X132418040Y-80448273D01*
X132418042Y-80448274D01*
X132447661Y-80452173D01*
X132473861Y-80455622D01*
X132480359Y-80456652D01*
X132543186Y-80468296D01*
X132550766Y-80467859D01*
X132550767Y-80467859D01*
X132605392Y-80464709D01*
X132612646Y-80464500D01*
X141195088Y-80464500D01*
X141203658Y-80464792D01*
X141253776Y-80468209D01*
X141253780Y-80468209D01*
X141261352Y-80468725D01*
X141268829Y-80467420D01*
X141268830Y-80467420D01*
X141295308Y-80462799D01*
X141324303Y-80457738D01*
X141330821Y-80456777D01*
X141394242Y-80449102D01*
X141401343Y-80446419D01*
X141403952Y-80445778D01*
X141420262Y-80441315D01*
X141422798Y-80440550D01*
X141430284Y-80439243D01*
X141488800Y-80413556D01*
X141494904Y-80411065D01*
X141547548Y-80391173D01*
X141547549Y-80391172D01*
X141554656Y-80388487D01*
X141560919Y-80384183D01*
X141563285Y-80382946D01*
X141578097Y-80374701D01*
X141580351Y-80373368D01*
X141587305Y-80370315D01*
X141638002Y-80331413D01*
X141643332Y-80327541D01*
X141689720Y-80295661D01*
X141689725Y-80295656D01*
X141695981Y-80291357D01*
X141737436Y-80244829D01*
X141742416Y-80239554D01*
X143274294Y-78707676D01*
X143336606Y-78673650D01*
X143374371Y-78671250D01*
X143504525Y-78682637D01*
X143510000Y-78683116D01*
X143720655Y-78664686D01*
X143725968Y-78663262D01*
X143725970Y-78663262D01*
X143919600Y-78611379D01*
X143919602Y-78611378D01*
X143924910Y-78609956D01*
X144057121Y-78548305D01*
X144111577Y-78522912D01*
X144111580Y-78522910D01*
X144116558Y-78520589D01*
X144289776Y-78399301D01*
X144439301Y-78249776D01*
X144560589Y-78076558D01*
X144568399Y-78059811D01*
X144647633Y-77889892D01*
X144647634Y-77889891D01*
X144649956Y-77884910D01*
X144661241Y-77842796D01*
X144703262Y-77685970D01*
X144703262Y-77685968D01*
X144704686Y-77680655D01*
X144723116Y-77470000D01*
X144704686Y-77259345D01*
X144688486Y-77198886D01*
X144651379Y-77060400D01*
X144651378Y-77060398D01*
X144649956Y-77055090D01*
X144560589Y-76863442D01*
X144439301Y-76690224D01*
X144289776Y-76540699D01*
X144285262Y-76537538D01*
X144272228Y-76528411D01*
X144227900Y-76472953D01*
X144218500Y-76425199D01*
X144218500Y-74958927D01*
X144218792Y-74950358D01*
X144222210Y-74900225D01*
X144222210Y-74900221D01*
X144222726Y-74892648D01*
X144211736Y-74829681D01*
X144210775Y-74823165D01*
X144204014Y-74767298D01*
X144203102Y-74759758D01*
X144200419Y-74752657D01*
X144199778Y-74750048D01*
X144195309Y-74733715D01*
X144194548Y-74731195D01*
X144193243Y-74723717D01*
X144181610Y-74697215D01*
X144167559Y-74665204D01*
X144165068Y-74659099D01*
X144145175Y-74606456D01*
X144145173Y-74606452D01*
X144142487Y-74599344D01*
X144138184Y-74593083D01*
X144136947Y-74590717D01*
X144128720Y-74575937D01*
X144127369Y-74573652D01*
X144124315Y-74566695D01*
X144119695Y-74560675D01*
X144119692Y-74560669D01*
X144085421Y-74516009D01*
X144081541Y-74510668D01*
X144049661Y-74464280D01*
X144049656Y-74464275D01*
X144045357Y-74458019D01*
X143998829Y-74416564D01*
X143993554Y-74411584D01*
X140446231Y-70864261D01*
X142860294Y-70864261D01*
X142869590Y-70876276D01*
X142899189Y-70897001D01*
X142908677Y-70902479D01*
X143090277Y-70987159D01*
X143100571Y-70990907D01*
X143294122Y-71042769D01*
X143304909Y-71044671D01*
X143504525Y-71062135D01*
X143515475Y-71062135D01*
X143715091Y-71044671D01*
X143725878Y-71042769D01*
X143919429Y-70990907D01*
X143929723Y-70987159D01*
X144111323Y-70902479D01*
X144120811Y-70897001D01*
X144151248Y-70875689D01*
X144159623Y-70865212D01*
X144152554Y-70851764D01*
X143522812Y-70222022D01*
X143508868Y-70214408D01*
X143507035Y-70214539D01*
X143500420Y-70218790D01*
X142866724Y-70852486D01*
X142860294Y-70864261D01*
X140446231Y-70864261D01*
X139667676Y-70085706D01*
X139633650Y-70023394D01*
X139631250Y-69985629D01*
X139642637Y-69855475D01*
X142297865Y-69855475D01*
X142315329Y-70055091D01*
X142317231Y-70065878D01*
X142369093Y-70259429D01*
X142372841Y-70269723D01*
X142457521Y-70451323D01*
X142462999Y-70460811D01*
X142484311Y-70491248D01*
X142494788Y-70499623D01*
X142508236Y-70492554D01*
X143137978Y-69862812D01*
X143144356Y-69851132D01*
X143874408Y-69851132D01*
X143874539Y-69852965D01*
X143878790Y-69859580D01*
X144512486Y-70493276D01*
X144524261Y-70499706D01*
X144536276Y-70490410D01*
X144557001Y-70460811D01*
X144562479Y-70451323D01*
X144647159Y-70269723D01*
X144650907Y-70259429D01*
X144702769Y-70065878D01*
X144704671Y-70055091D01*
X144722135Y-69855475D01*
X144722135Y-69844525D01*
X144704671Y-69644909D01*
X144702769Y-69634122D01*
X144650907Y-69440571D01*
X144647159Y-69430277D01*
X144562479Y-69248677D01*
X144557001Y-69239189D01*
X144535689Y-69208752D01*
X144525212Y-69200377D01*
X144511764Y-69207446D01*
X143882022Y-69837188D01*
X143874408Y-69851132D01*
X143144356Y-69851132D01*
X143145592Y-69848868D01*
X143145461Y-69847035D01*
X143141210Y-69840420D01*
X142507514Y-69206724D01*
X142495739Y-69200294D01*
X142483724Y-69209590D01*
X142462999Y-69239189D01*
X142457521Y-69248677D01*
X142372841Y-69430277D01*
X142369093Y-69440571D01*
X142317231Y-69634122D01*
X142315329Y-69644909D01*
X142297865Y-69844525D01*
X142297865Y-69855475D01*
X139642637Y-69855475D01*
X139643116Y-69850000D01*
X139624686Y-69639345D01*
X139569956Y-69435090D01*
X139558239Y-69409962D01*
X139482912Y-69248423D01*
X139482910Y-69248420D01*
X139480589Y-69243442D01*
X139359301Y-69070224D01*
X139209776Y-68920699D01*
X139087082Y-68834788D01*
X142860377Y-68834788D01*
X142867446Y-68848236D01*
X143497188Y-69477978D01*
X143511132Y-69485592D01*
X143512965Y-69485461D01*
X143519580Y-69481210D01*
X144153276Y-68847514D01*
X144159706Y-68835739D01*
X144150410Y-68823724D01*
X144120811Y-68802999D01*
X144111323Y-68797521D01*
X143929723Y-68712841D01*
X143919429Y-68709093D01*
X143725878Y-68657231D01*
X143715091Y-68655329D01*
X143515475Y-68637865D01*
X143504525Y-68637865D01*
X143304909Y-68655329D01*
X143294122Y-68657231D01*
X143100571Y-68709093D01*
X143090277Y-68712841D01*
X142908677Y-68797521D01*
X142899189Y-68802999D01*
X142868752Y-68824311D01*
X142860377Y-68834788D01*
X139087082Y-68834788D01*
X139036558Y-68799411D01*
X139031580Y-68797090D01*
X139031577Y-68797088D01*
X138849892Y-68712367D01*
X138849891Y-68712366D01*
X138844910Y-68710044D01*
X138839602Y-68708622D01*
X138839600Y-68708621D01*
X138645970Y-68656738D01*
X138645968Y-68656738D01*
X138640655Y-68655314D01*
X138430000Y-68636884D01*
X138219345Y-68655314D01*
X138214032Y-68656738D01*
X138214030Y-68656738D01*
X138020400Y-68708621D01*
X138020398Y-68708622D01*
X138015090Y-68710044D01*
X138010109Y-68712366D01*
X138010108Y-68712367D01*
X137828423Y-68797088D01*
X137828420Y-68797090D01*
X137823442Y-68799411D01*
X137650224Y-68920699D01*
X137500699Y-69070224D01*
X137379411Y-69243442D01*
X137377090Y-69248420D01*
X137377088Y-69248423D01*
X137301761Y-69409962D01*
X137290044Y-69435090D01*
X137235314Y-69639345D01*
X137216884Y-69850000D01*
X137235314Y-70060655D01*
X137236738Y-70065968D01*
X137236738Y-70065970D01*
X137288433Y-70258896D01*
X137290044Y-70264910D01*
X137292366Y-70269891D01*
X137292367Y-70269892D01*
X137376238Y-70449753D01*
X137379411Y-70456558D01*
X137500699Y-70629776D01*
X137650224Y-70779301D01*
X137823442Y-70900589D01*
X137828420Y-70902910D01*
X137828423Y-70902912D01*
X138009092Y-70987159D01*
X138015090Y-70989956D01*
X138020398Y-70991378D01*
X138020400Y-70991379D01*
X138214030Y-71043262D01*
X138214032Y-71043262D01*
X138219345Y-71044686D01*
X138430000Y-71063116D01*
X138435475Y-71062637D01*
X138565629Y-71051250D01*
X138635234Y-71065239D01*
X138665706Y-71087676D01*
X142764595Y-75186565D01*
X142798621Y-75248877D01*
X142801500Y-75275660D01*
X142801500Y-76425199D01*
X142781498Y-76493320D01*
X142747772Y-76528411D01*
X142734738Y-76537538D01*
X142730224Y-76540699D01*
X142580699Y-76690224D01*
X142459411Y-76863442D01*
X142370044Y-77055090D01*
X142368622Y-77060398D01*
X142368621Y-77060400D01*
X142331514Y-77198886D01*
X142315314Y-77259345D01*
X142296884Y-77470000D01*
X142297363Y-77475475D01*
X142308750Y-77605629D01*
X142294761Y-77675234D01*
X142272324Y-77705706D01*
X140967435Y-79010595D01*
X140905123Y-79044621D01*
X140878340Y-79047500D01*
X132933660Y-79047500D01*
X132865539Y-79027498D01*
X132844565Y-79010595D01*
X132464630Y-78630660D01*
X132430604Y-78568348D01*
X132435669Y-78497533D01*
X132478216Y-78440697D01*
X132544736Y-78415886D01*
X132614110Y-78430977D01*
X132625994Y-78438351D01*
X132743442Y-78520589D01*
X132748420Y-78522910D01*
X132748423Y-78522912D01*
X132802879Y-78548305D01*
X132935090Y-78609956D01*
X132940398Y-78611378D01*
X132940400Y-78611379D01*
X133134030Y-78663262D01*
X133134032Y-78663262D01*
X133139345Y-78664686D01*
X133350000Y-78683116D01*
X133560655Y-78664686D01*
X133565968Y-78663262D01*
X133565970Y-78663262D01*
X133759600Y-78611379D01*
X133759602Y-78611378D01*
X133764910Y-78609956D01*
X133897121Y-78548305D01*
X133951577Y-78522912D01*
X133951580Y-78522910D01*
X133956558Y-78520589D01*
X134008440Y-78484261D01*
X137780294Y-78484261D01*
X137789590Y-78496276D01*
X137819189Y-78517001D01*
X137828677Y-78522479D01*
X138010277Y-78607159D01*
X138020571Y-78610907D01*
X138214122Y-78662769D01*
X138224909Y-78664671D01*
X138424525Y-78682135D01*
X138435475Y-78682135D01*
X138635091Y-78664671D01*
X138645878Y-78662769D01*
X138839429Y-78610907D01*
X138849723Y-78607159D01*
X139031323Y-78522479D01*
X139040811Y-78517001D01*
X139071248Y-78495689D01*
X139079623Y-78485212D01*
X139072554Y-78471764D01*
X138442812Y-77842022D01*
X138428868Y-77834408D01*
X138427035Y-77834539D01*
X138420420Y-77838790D01*
X137786724Y-78472486D01*
X137780294Y-78484261D01*
X134008440Y-78484261D01*
X134129776Y-78399301D01*
X134279301Y-78249776D01*
X134400589Y-78076558D01*
X134408399Y-78059811D01*
X134487633Y-77889892D01*
X134487634Y-77889891D01*
X134489956Y-77884910D01*
X134501241Y-77842796D01*
X134543262Y-77685970D01*
X134543262Y-77685968D01*
X134544686Y-77680655D01*
X134562637Y-77475475D01*
X137217865Y-77475475D01*
X137235329Y-77675091D01*
X137237231Y-77685878D01*
X137289093Y-77879429D01*
X137292841Y-77889723D01*
X137377521Y-78071323D01*
X137382999Y-78080811D01*
X137404311Y-78111248D01*
X137414788Y-78119623D01*
X137428236Y-78112554D01*
X138057978Y-77482812D01*
X138064356Y-77471132D01*
X138794408Y-77471132D01*
X138794539Y-77472965D01*
X138798790Y-77479580D01*
X139432486Y-78113276D01*
X139444261Y-78119706D01*
X139456276Y-78110410D01*
X139477001Y-78080811D01*
X139482479Y-78071323D01*
X139567159Y-77889723D01*
X139570907Y-77879429D01*
X139622769Y-77685878D01*
X139624671Y-77675091D01*
X139642135Y-77475475D01*
X139642135Y-77464525D01*
X139624671Y-77264909D01*
X139622769Y-77254122D01*
X139570907Y-77060571D01*
X139567159Y-77050277D01*
X139482479Y-76868677D01*
X139477001Y-76859189D01*
X139455689Y-76828752D01*
X139445212Y-76820377D01*
X139431764Y-76827446D01*
X138802022Y-77457188D01*
X138794408Y-77471132D01*
X138064356Y-77471132D01*
X138065592Y-77468868D01*
X138065461Y-77467035D01*
X138061210Y-77460420D01*
X137427514Y-76826724D01*
X137415739Y-76820294D01*
X137403724Y-76829590D01*
X137382999Y-76859189D01*
X137377521Y-76868677D01*
X137292841Y-77050277D01*
X137289093Y-77060571D01*
X137237231Y-77254122D01*
X137235329Y-77264909D01*
X137217865Y-77464525D01*
X137217865Y-77475475D01*
X134562637Y-77475475D01*
X134563116Y-77470000D01*
X134544686Y-77259345D01*
X134528486Y-77198886D01*
X134491379Y-77060400D01*
X134491378Y-77060398D01*
X134489956Y-77055090D01*
X134400589Y-76863442D01*
X134279301Y-76690224D01*
X134129776Y-76540699D01*
X134007082Y-76454788D01*
X137780377Y-76454788D01*
X137787446Y-76468236D01*
X138417188Y-77097978D01*
X138431132Y-77105592D01*
X138432965Y-77105461D01*
X138439580Y-77101210D01*
X139073276Y-76467514D01*
X139079706Y-76455739D01*
X139070410Y-76443724D01*
X139040811Y-76422999D01*
X139031323Y-76417521D01*
X138849723Y-76332841D01*
X138839429Y-76329093D01*
X138645878Y-76277231D01*
X138635091Y-76275329D01*
X138435475Y-76257865D01*
X138424525Y-76257865D01*
X138224909Y-76275329D01*
X138214122Y-76277231D01*
X138020571Y-76329093D01*
X138010277Y-76332841D01*
X137828677Y-76417521D01*
X137819189Y-76422999D01*
X137788752Y-76444311D01*
X137780377Y-76454788D01*
X134007082Y-76454788D01*
X133956558Y-76419411D01*
X133951580Y-76417090D01*
X133951577Y-76417088D01*
X133769892Y-76332367D01*
X133769891Y-76332366D01*
X133764910Y-76330044D01*
X133759602Y-76328622D01*
X133759600Y-76328621D01*
X133565970Y-76276738D01*
X133565968Y-76276738D01*
X133560655Y-76275314D01*
X133350000Y-76256884D01*
X133344525Y-76257363D01*
X133214372Y-76268750D01*
X133144767Y-76254761D01*
X133114295Y-76232324D01*
X129269405Y-72387435D01*
X129235379Y-72325123D01*
X129232500Y-72298340D01*
X129232500Y-68608912D01*
X129232792Y-68600342D01*
X129236209Y-68550224D01*
X129236209Y-68550220D01*
X129236725Y-68542648D01*
X129225738Y-68479697D01*
X129224776Y-68473175D01*
X129224368Y-68469803D01*
X129217102Y-68409758D01*
X129214419Y-68402657D01*
X129213778Y-68400048D01*
X129209315Y-68383738D01*
X129208550Y-68381202D01*
X129207243Y-68373716D01*
X129181556Y-68315200D01*
X129179065Y-68309096D01*
X129178608Y-68307885D01*
X129156487Y-68249344D01*
X129152183Y-68243081D01*
X129150946Y-68240715D01*
X129142701Y-68225903D01*
X129141368Y-68223649D01*
X129138315Y-68216695D01*
X129099413Y-68165998D01*
X129095541Y-68160668D01*
X129063661Y-68114280D01*
X129063656Y-68114275D01*
X129059357Y-68108019D01*
X129035066Y-68086376D01*
X129012830Y-68066565D01*
X129007554Y-68061584D01*
X127013450Y-66067480D01*
X127007596Y-66061215D01*
X127007201Y-66060762D01*
X126969561Y-66017615D01*
X126917280Y-65980871D01*
X126911986Y-65976939D01*
X126867693Y-65942209D01*
X126861718Y-65937524D01*
X126854802Y-65934401D01*
X126852516Y-65933017D01*
X126837835Y-65924643D01*
X126835475Y-65923378D01*
X126829261Y-65919010D01*
X126822182Y-65916250D01*
X126822180Y-65916249D01*
X126769725Y-65895798D01*
X126763656Y-65893247D01*
X126705427Y-65866955D01*
X126697960Y-65865571D01*
X126695405Y-65864770D01*
X126679152Y-65860141D01*
X126676572Y-65859478D01*
X126669491Y-65856718D01*
X126661960Y-65855727D01*
X126661958Y-65855726D01*
X126632339Y-65851827D01*
X126606139Y-65848378D01*
X126599641Y-65847348D01*
X126536814Y-65835704D01*
X126529234Y-65836141D01*
X126529233Y-65836141D01*
X126474608Y-65839291D01*
X126467354Y-65839500D01*
X109869660Y-65839500D01*
X109801539Y-65819498D01*
X109780565Y-65802595D01*
X109531228Y-65553258D01*
X109497202Y-65490946D01*
X109502267Y-65420131D01*
X109544814Y-65363295D01*
X109604313Y-65339184D01*
X109777288Y-65317025D01*
X109777289Y-65317025D01*
X109782416Y-65316368D01*
X109819324Y-65305295D01*
X109991429Y-65253661D01*
X109991434Y-65253659D01*
X109996384Y-65252174D01*
X110196994Y-65153896D01*
X110378860Y-65024173D01*
X110537096Y-64866489D01*
X110593433Y-64788088D01*
X110625132Y-64743974D01*
X110681127Y-64700326D01*
X110727455Y-64691500D01*
X127137340Y-64691500D01*
X127205461Y-64711502D01*
X127226435Y-64728405D01*
X132112324Y-69614294D01*
X132146350Y-69676606D01*
X132148750Y-69714371D01*
X132139815Y-69816502D01*
X132136884Y-69850000D01*
X132155314Y-70060655D01*
X132156738Y-70065968D01*
X132156738Y-70065970D01*
X132208433Y-70258896D01*
X132210044Y-70264910D01*
X132212366Y-70269891D01*
X132212367Y-70269892D01*
X132296238Y-70449753D01*
X132299411Y-70456558D01*
X132420699Y-70629776D01*
X132570224Y-70779301D01*
X132743442Y-70900589D01*
X132748420Y-70902910D01*
X132748423Y-70902912D01*
X132929092Y-70987159D01*
X132935090Y-70989956D01*
X132940398Y-70991378D01*
X132940400Y-70991379D01*
X133134030Y-71043262D01*
X133134032Y-71043262D01*
X133139345Y-71044686D01*
X133350000Y-71063116D01*
X133560655Y-71044686D01*
X133565968Y-71043262D01*
X133565970Y-71043262D01*
X133759600Y-70991379D01*
X133759602Y-70991378D01*
X133764910Y-70989956D01*
X133770908Y-70987159D01*
X133951577Y-70902912D01*
X133951580Y-70902910D01*
X133956558Y-70900589D01*
X134129776Y-70779301D01*
X134279301Y-70629776D01*
X134400589Y-70456558D01*
X134403763Y-70449753D01*
X134487633Y-70269892D01*
X134487634Y-70269891D01*
X134489956Y-70264910D01*
X134491568Y-70258896D01*
X134543262Y-70065970D01*
X134543262Y-70065968D01*
X134544686Y-70060655D01*
X134563116Y-69850000D01*
X134544686Y-69639345D01*
X134489956Y-69435090D01*
X134478239Y-69409962D01*
X134402912Y-69248423D01*
X134402910Y-69248420D01*
X134400589Y-69243442D01*
X134279301Y-69070224D01*
X134129776Y-68920699D01*
X133956558Y-68799411D01*
X133951580Y-68797090D01*
X133951577Y-68797088D01*
X133769892Y-68712367D01*
X133769891Y-68712366D01*
X133764910Y-68710044D01*
X133759602Y-68708622D01*
X133759600Y-68708621D01*
X133565970Y-68656738D01*
X133565968Y-68656738D01*
X133560655Y-68655314D01*
X133350000Y-68636884D01*
X133344525Y-68637363D01*
X133214371Y-68648750D01*
X133144766Y-68634761D01*
X133114294Y-68612324D01*
X128004450Y-63502480D01*
X127998596Y-63496215D01*
X127997018Y-63494406D01*
X127960561Y-63452615D01*
X127908280Y-63415871D01*
X127902986Y-63411939D01*
X127858693Y-63377209D01*
X127852718Y-63372524D01*
X127845802Y-63369401D01*
X127843516Y-63368017D01*
X127828835Y-63359643D01*
X127826475Y-63358378D01*
X127820261Y-63354010D01*
X127813182Y-63351250D01*
X127813180Y-63351249D01*
X127760725Y-63330798D01*
X127754656Y-63328247D01*
X127696427Y-63301955D01*
X127688960Y-63300571D01*
X127686405Y-63299770D01*
X127670152Y-63295141D01*
X127667572Y-63294478D01*
X127660491Y-63291718D01*
X127652960Y-63290727D01*
X127652958Y-63290726D01*
X127623339Y-63286827D01*
X127597139Y-63283378D01*
X127590641Y-63282348D01*
X127527814Y-63270704D01*
X127520234Y-63271141D01*
X127520233Y-63271141D01*
X127465608Y-63274291D01*
X127458354Y-63274500D01*
X110727286Y-63274500D01*
X110659165Y-63254498D01*
X110621494Y-63216941D01*
X110579014Y-63151277D01*
X110428670Y-62986051D01*
X110424619Y-62982852D01*
X110424615Y-62982848D01*
X110257414Y-62850800D01*
X110257410Y-62850798D01*
X110253359Y-62847598D01*
X110057789Y-62739638D01*
X110052920Y-62737914D01*
X110052916Y-62737912D01*
X109852087Y-62666795D01*
X109852083Y-62666794D01*
X109847212Y-62665069D01*
X109842119Y-62664162D01*
X109842116Y-62664161D01*
X109632373Y-62626800D01*
X109632367Y-62626799D01*
X109627284Y-62625894D01*
X109553452Y-62624992D01*
X109409081Y-62623228D01*
X109409079Y-62623228D01*
X109403911Y-62623165D01*
X109183091Y-62656955D01*
X108970756Y-62726357D01*
X108772607Y-62829507D01*
X108768474Y-62832610D01*
X108768471Y-62832612D01*
X108744247Y-62850800D01*
X108593965Y-62963635D01*
X108439629Y-63125138D01*
X108332201Y-63282621D01*
X108277293Y-63327621D01*
X108206768Y-63335792D01*
X108143021Y-63304538D01*
X108122324Y-63280054D01*
X108041822Y-63155617D01*
X108041818Y-63155612D01*
X108039014Y-63151277D01*
X107888670Y-62986051D01*
X107884619Y-62982852D01*
X107884615Y-62982848D01*
X107717414Y-62850800D01*
X107717410Y-62850798D01*
X107713359Y-62847598D01*
X107517789Y-62739638D01*
X107512920Y-62737914D01*
X107512916Y-62737912D01*
X107312087Y-62666795D01*
X107312083Y-62666794D01*
X107307212Y-62665069D01*
X107302119Y-62664162D01*
X107302116Y-62664161D01*
X107092373Y-62626800D01*
X107092367Y-62626799D01*
X107087284Y-62625894D01*
X107013452Y-62624992D01*
X106869081Y-62623228D01*
X106869079Y-62623228D01*
X106863911Y-62623165D01*
X106643091Y-62656955D01*
X106430756Y-62726357D01*
X106232607Y-62829507D01*
X106228474Y-62832610D01*
X106228471Y-62832612D01*
X106204247Y-62850800D01*
X106053965Y-62963635D01*
X105899629Y-63125138D01*
X105792201Y-63282621D01*
X105737293Y-63327621D01*
X105666768Y-63335792D01*
X105603021Y-63304538D01*
X105582324Y-63280054D01*
X105501822Y-63155617D01*
X105501818Y-63155612D01*
X105499014Y-63151277D01*
X105348670Y-62986051D01*
X105344619Y-62982852D01*
X105344615Y-62982848D01*
X105177414Y-62850800D01*
X105177410Y-62850798D01*
X105173359Y-62847598D01*
X104977789Y-62739638D01*
X104972920Y-62737914D01*
X104972916Y-62737912D01*
X104772087Y-62666795D01*
X104772083Y-62666794D01*
X104767212Y-62665069D01*
X104762119Y-62664162D01*
X104762116Y-62664161D01*
X104552373Y-62626800D01*
X104552367Y-62626799D01*
X104547284Y-62625894D01*
X104473452Y-62624992D01*
X104329081Y-62623228D01*
X104329079Y-62623228D01*
X104323911Y-62623165D01*
X104103091Y-62656955D01*
X103890756Y-62726357D01*
X103692607Y-62829507D01*
X103688474Y-62832610D01*
X103688471Y-62832612D01*
X103664247Y-62850800D01*
X103513965Y-62963635D01*
X103359629Y-63125138D01*
X103252201Y-63282621D01*
X103197293Y-63327621D01*
X103126768Y-63335792D01*
X103063021Y-63304538D01*
X103042324Y-63280054D01*
X102961822Y-63155617D01*
X102961818Y-63155612D01*
X102959014Y-63151277D01*
X102808670Y-62986051D01*
X102804619Y-62982852D01*
X102804615Y-62982848D01*
X102637414Y-62850800D01*
X102637410Y-62850798D01*
X102633359Y-62847598D01*
X102437789Y-62739638D01*
X102432920Y-62737914D01*
X102432916Y-62737912D01*
X102232087Y-62666795D01*
X102232083Y-62666794D01*
X102227212Y-62665069D01*
X102222119Y-62664162D01*
X102222116Y-62664161D01*
X102012373Y-62626800D01*
X102012367Y-62626799D01*
X102007284Y-62625894D01*
X101933452Y-62624992D01*
X101789081Y-62623228D01*
X101789079Y-62623228D01*
X101783911Y-62623165D01*
X101563091Y-62656955D01*
X101350756Y-62726357D01*
X101152607Y-62829507D01*
X101148474Y-62832610D01*
X101148471Y-62832612D01*
X101124247Y-62850800D01*
X100973965Y-62963635D01*
X100819629Y-63125138D01*
X100712201Y-63282621D01*
X100657293Y-63327621D01*
X100586768Y-63335792D01*
X100523021Y-63304538D01*
X100502324Y-63280054D01*
X100421822Y-63155617D01*
X100421818Y-63155612D01*
X100419014Y-63151277D01*
X100268670Y-62986051D01*
X100264619Y-62982852D01*
X100264615Y-62982848D01*
X100097414Y-62850800D01*
X100097410Y-62850798D01*
X100093359Y-62847598D01*
X99897789Y-62739638D01*
X99892920Y-62737914D01*
X99892916Y-62737912D01*
X99692087Y-62666795D01*
X99692083Y-62666794D01*
X99687212Y-62665069D01*
X99682119Y-62664162D01*
X99682116Y-62664161D01*
X99472373Y-62626800D01*
X99472367Y-62626799D01*
X99467284Y-62625894D01*
X99393452Y-62624992D01*
X99249081Y-62623228D01*
X99249079Y-62623228D01*
X99243911Y-62623165D01*
X99079059Y-62648391D01*
X99008698Y-62638923D01*
X98970906Y-62612936D01*
X98610939Y-62252969D01*
X98605085Y-62246704D01*
X98603301Y-62244659D01*
X98567050Y-62203104D01*
X98514769Y-62166360D01*
X98509475Y-62162428D01*
X98465182Y-62127698D01*
X98459207Y-62123013D01*
X98452291Y-62119890D01*
X98450005Y-62118506D01*
X98435324Y-62110132D01*
X98432964Y-62108867D01*
X98426750Y-62104499D01*
X98419671Y-62101739D01*
X98419669Y-62101738D01*
X98367214Y-62081287D01*
X98361145Y-62078736D01*
X98302916Y-62052444D01*
X98295449Y-62051060D01*
X98292894Y-62050259D01*
X98276641Y-62045630D01*
X98274061Y-62044967D01*
X98266980Y-62042207D01*
X98259449Y-62041216D01*
X98259447Y-62041215D01*
X98229828Y-62037316D01*
X98203628Y-62033867D01*
X98197130Y-62032837D01*
X98134303Y-62021193D01*
X98126723Y-62021630D01*
X98126722Y-62021630D01*
X98072097Y-62024780D01*
X98064843Y-62024989D01*
X83345423Y-62024989D01*
X83336853Y-62024697D01*
X83286735Y-62021280D01*
X83286731Y-62021280D01*
X83279159Y-62020764D01*
X83271682Y-62022069D01*
X83271681Y-62022069D01*
X83254951Y-62024989D01*
X83216214Y-62031750D01*
X83209697Y-62032711D01*
X83146269Y-62040387D01*
X83139161Y-62043073D01*
X83136567Y-62043710D01*
X83120261Y-62048171D01*
X83117710Y-62048941D01*
X83110227Y-62050247D01*
X83103275Y-62053299D01*
X83103274Y-62053299D01*
X83051723Y-62075928D01*
X83045616Y-62078420D01*
X83038029Y-62081287D01*
X82985855Y-62101002D01*
X82979594Y-62105305D01*
X82977228Y-62106542D01*
X82962448Y-62114769D01*
X82960163Y-62116120D01*
X82953206Y-62119174D01*
X82947186Y-62123794D01*
X82947180Y-62123797D01*
X82916053Y-62147683D01*
X82902509Y-62158076D01*
X82897179Y-62161948D01*
X82850791Y-62193828D01*
X82850786Y-62193833D01*
X82844530Y-62198132D01*
X82839479Y-62203802D01*
X82839477Y-62203803D01*
X82803076Y-62244659D01*
X82798095Y-62249935D01*
X76435706Y-68612324D01*
X76373394Y-68646350D01*
X76335629Y-68648750D01*
X76205475Y-68637363D01*
X76200000Y-68636884D01*
X75989345Y-68655314D01*
X75984032Y-68656738D01*
X75984030Y-68656738D01*
X75790400Y-68708621D01*
X75790398Y-68708622D01*
X75785090Y-68710044D01*
X75780109Y-68712366D01*
X75780108Y-68712367D01*
X75598423Y-68797088D01*
X75598420Y-68797090D01*
X75593442Y-68799411D01*
X75420224Y-68920699D01*
X75270699Y-69070224D01*
X75149411Y-69243442D01*
X75147090Y-69248420D01*
X75147088Y-69248423D01*
X75071761Y-69409962D01*
X75060044Y-69435090D01*
X75005314Y-69639345D01*
X74986884Y-69850000D01*
X75005314Y-70060655D01*
X75006738Y-70065968D01*
X75006738Y-70065970D01*
X75058433Y-70258896D01*
X75060044Y-70264910D01*
X75062366Y-70269891D01*
X75062367Y-70269892D01*
X75146238Y-70449753D01*
X75149411Y-70456558D01*
X75270699Y-70629776D01*
X75420224Y-70779301D01*
X75593442Y-70900589D01*
X75598420Y-70902910D01*
X75598423Y-70902912D01*
X75654213Y-70928927D01*
X75707498Y-70975844D01*
X75726959Y-71044122D01*
X75706417Y-71112082D01*
X75683791Y-71138072D01*
X75675340Y-71145444D01*
X75675337Y-71145447D01*
X75669615Y-71150439D01*
X75665248Y-71156653D01*
X75632872Y-71202719D01*
X75628939Y-71208014D01*
X75589524Y-71258282D01*
X75586401Y-71265198D01*
X75585017Y-71267484D01*
X75576643Y-71282165D01*
X75575378Y-71284525D01*
X75571010Y-71290739D01*
X75568250Y-71297818D01*
X75568249Y-71297820D01*
X75547798Y-71350275D01*
X75545247Y-71356344D01*
X75518955Y-71414573D01*
X75517571Y-71422040D01*
X75516770Y-71424595D01*
X75512141Y-71440848D01*
X75511478Y-71443428D01*
X75508718Y-71450509D01*
X75507727Y-71458040D01*
X75507726Y-71458042D01*
X75500379Y-71513852D01*
X75499348Y-71520359D01*
X75487704Y-71583186D01*
X75488141Y-71590766D01*
X75488141Y-71590767D01*
X75491291Y-71645392D01*
X75491500Y-71652646D01*
X75491500Y-76425199D01*
X75471498Y-76493320D01*
X75437772Y-76528411D01*
X75424738Y-76537538D01*
X75420224Y-76540699D01*
X75270699Y-76690224D01*
X75149411Y-76863442D01*
X75060044Y-77055090D01*
X75058622Y-77060398D01*
X75058621Y-77060400D01*
X75021514Y-77198886D01*
X75005314Y-77259345D01*
X74986884Y-77470000D01*
X75005314Y-77680655D01*
X75006738Y-77685968D01*
X75006738Y-77685970D01*
X75048760Y-77842796D01*
X75060044Y-77884910D01*
X75062366Y-77889891D01*
X75062367Y-77889892D01*
X75141602Y-78059811D01*
X75149411Y-78076558D01*
X75270699Y-78249776D01*
X75420224Y-78399301D01*
X75593442Y-78520589D01*
X75598420Y-78522910D01*
X75598423Y-78522912D01*
X75652879Y-78548305D01*
X75785090Y-78609956D01*
X75790398Y-78611378D01*
X75790400Y-78611379D01*
X75984030Y-78663262D01*
X75984032Y-78663262D01*
X75989345Y-78664686D01*
X76200000Y-78683116D01*
X76410655Y-78664686D01*
X76415968Y-78663262D01*
X76415970Y-78663262D01*
X76609600Y-78611379D01*
X76609602Y-78611378D01*
X76614910Y-78609956D01*
X76747121Y-78548305D01*
X76801577Y-78522912D01*
X76801580Y-78522910D01*
X76806558Y-78520589D01*
X76858440Y-78484261D01*
X80630294Y-78484261D01*
X80639590Y-78496276D01*
X80669189Y-78517001D01*
X80678677Y-78522479D01*
X80860277Y-78607159D01*
X80870571Y-78610907D01*
X81064122Y-78662769D01*
X81074909Y-78664671D01*
X81274525Y-78682135D01*
X81285475Y-78682135D01*
X81485091Y-78664671D01*
X81495878Y-78662769D01*
X81689429Y-78610907D01*
X81699723Y-78607159D01*
X81881323Y-78522479D01*
X81890811Y-78517001D01*
X81921248Y-78495689D01*
X81929623Y-78485212D01*
X81922554Y-78471764D01*
X81292812Y-77842022D01*
X81278868Y-77834408D01*
X81277035Y-77834539D01*
X81270420Y-77838790D01*
X80636724Y-78472486D01*
X80630294Y-78484261D01*
X76858440Y-78484261D01*
X76979776Y-78399301D01*
X77129301Y-78249776D01*
X77250589Y-78076558D01*
X77258399Y-78059811D01*
X77337633Y-77889892D01*
X77337634Y-77889891D01*
X77339956Y-77884910D01*
X77351241Y-77842796D01*
X77393262Y-77685970D01*
X77393262Y-77685968D01*
X77394686Y-77680655D01*
X77412637Y-77475475D01*
X80067865Y-77475475D01*
X80085329Y-77675091D01*
X80087231Y-77685878D01*
X80139093Y-77879429D01*
X80142841Y-77889723D01*
X80227521Y-78071323D01*
X80232999Y-78080811D01*
X80254311Y-78111248D01*
X80264788Y-78119623D01*
X80278236Y-78112554D01*
X80907978Y-77482812D01*
X80914356Y-77471132D01*
X81644408Y-77471132D01*
X81644539Y-77472965D01*
X81648790Y-77479580D01*
X82282486Y-78113276D01*
X82294261Y-78119706D01*
X82306276Y-78110410D01*
X82327001Y-78080811D01*
X82332479Y-78071323D01*
X82417159Y-77889723D01*
X82420907Y-77879429D01*
X82472769Y-77685878D01*
X82474671Y-77675091D01*
X82492135Y-77475475D01*
X82492135Y-77464525D01*
X82474671Y-77264909D01*
X82472769Y-77254122D01*
X82420907Y-77060571D01*
X82417159Y-77050277D01*
X82332479Y-76868677D01*
X82327001Y-76859189D01*
X82305689Y-76828752D01*
X82295212Y-76820377D01*
X82281764Y-76827446D01*
X81652022Y-77457188D01*
X81644408Y-77471132D01*
X80914356Y-77471132D01*
X80915592Y-77468868D01*
X80915461Y-77467035D01*
X80911210Y-77460420D01*
X80277514Y-76826724D01*
X80265739Y-76820294D01*
X80253724Y-76829590D01*
X80232999Y-76859189D01*
X80227521Y-76868677D01*
X80142841Y-77050277D01*
X80139093Y-77060571D01*
X80087231Y-77254122D01*
X80085329Y-77264909D01*
X80067865Y-77464525D01*
X80067865Y-77475475D01*
X77412637Y-77475475D01*
X77413116Y-77470000D01*
X77394686Y-77259345D01*
X77378486Y-77198886D01*
X77341379Y-77060400D01*
X77341378Y-77060398D01*
X77339956Y-77055090D01*
X77250589Y-76863442D01*
X77129301Y-76690224D01*
X76979776Y-76540699D01*
X76975262Y-76537538D01*
X76962228Y-76528411D01*
X76917900Y-76472953D01*
X76914324Y-76454788D01*
X80630377Y-76454788D01*
X80637446Y-76468236D01*
X81267188Y-77097978D01*
X81281132Y-77105592D01*
X81282965Y-77105461D01*
X81289580Y-77101210D01*
X81923276Y-76467514D01*
X81929706Y-76455739D01*
X81920410Y-76443724D01*
X81890811Y-76422999D01*
X81881323Y-76417521D01*
X81699723Y-76332841D01*
X81689429Y-76329093D01*
X81495878Y-76277231D01*
X81485091Y-76275329D01*
X81285475Y-76257865D01*
X81274525Y-76257865D01*
X81074909Y-76275329D01*
X81064122Y-76277231D01*
X80870571Y-76329093D01*
X80860277Y-76332841D01*
X80678677Y-76417521D01*
X80669189Y-76422999D01*
X80638752Y-76444311D01*
X80630377Y-76454788D01*
X76914324Y-76454788D01*
X76908500Y-76425199D01*
X76908500Y-71973660D01*
X76928502Y-71905539D01*
X76945405Y-71884565D01*
X80521585Y-68308385D01*
X93407517Y-68308385D01*
X93408222Y-68322470D01*
X93417101Y-68326000D01*
X94723885Y-68326000D01*
X94739124Y-68321525D01*
X94740329Y-68320135D01*
X94742000Y-68312452D01*
X94742000Y-68307885D01*
X95250000Y-68307885D01*
X95254475Y-68323124D01*
X95255865Y-68324329D01*
X95263548Y-68326000D01*
X96570597Y-68326000D01*
X96584128Y-68322027D01*
X96585488Y-68312569D01*
X96531183Y-68086376D01*
X96528134Y-68076991D01*
X96435064Y-67852300D01*
X96430583Y-67843506D01*
X96303504Y-67636133D01*
X96297711Y-67628160D01*
X96139751Y-67443213D01*
X96132787Y-67436249D01*
X95947840Y-67278289D01*
X95939867Y-67272496D01*
X95732494Y-67145417D01*
X95723700Y-67140936D01*
X95499009Y-67047866D01*
X95489624Y-67044817D01*
X95267615Y-66991517D01*
X95253530Y-66992222D01*
X95250000Y-67001101D01*
X95250000Y-68307885D01*
X94742000Y-68307885D01*
X94742000Y-67005403D01*
X94738027Y-66991872D01*
X94728569Y-66990512D01*
X94502376Y-67044817D01*
X94492991Y-67047866D01*
X94268300Y-67140936D01*
X94259506Y-67145417D01*
X94052133Y-67272496D01*
X94044160Y-67278289D01*
X93859213Y-67436249D01*
X93852249Y-67443213D01*
X93694289Y-67628160D01*
X93688496Y-67636133D01*
X93561417Y-67843506D01*
X93556936Y-67852300D01*
X93463866Y-68076991D01*
X93460817Y-68086376D01*
X93407517Y-68308385D01*
X80521585Y-68308385D01*
X84101565Y-64728405D01*
X84163877Y-64694379D01*
X84190660Y-64691500D01*
X95314500Y-64691500D01*
X95382621Y-64711502D01*
X95429114Y-64765158D01*
X95440500Y-64817500D01*
X95440500Y-64881134D01*
X95447255Y-64943316D01*
X95498385Y-65079705D01*
X95585739Y-65196261D01*
X95702295Y-65283615D01*
X95838684Y-65334745D01*
X95900866Y-65341500D01*
X97697134Y-65341500D01*
X97759316Y-65334745D01*
X97895705Y-65283615D01*
X98012261Y-65196261D01*
X98099615Y-65079705D01*
X98121799Y-65020529D01*
X98143598Y-64962382D01*
X98186240Y-64905618D01*
X98252802Y-64880918D01*
X98322150Y-64896126D01*
X98356817Y-64924114D01*
X98385250Y-64956938D01*
X98557126Y-65099632D01*
X98750000Y-65212338D01*
X98754825Y-65214180D01*
X98754826Y-65214181D01*
X98827612Y-65241975D01*
X98958692Y-65292030D01*
X98963760Y-65293061D01*
X98963763Y-65293062D01*
X99023891Y-65305295D01*
X99177597Y-65336567D01*
X99182772Y-65336757D01*
X99182774Y-65336757D01*
X99395673Y-65344564D01*
X99395677Y-65344564D01*
X99400837Y-65344753D01*
X99405957Y-65344097D01*
X99405959Y-65344097D01*
X99617288Y-65317025D01*
X99617289Y-65317025D01*
X99622416Y-65316368D01*
X99659324Y-65305295D01*
X99831429Y-65253661D01*
X99831434Y-65253659D01*
X99836384Y-65252174D01*
X100036994Y-65153896D01*
X100218860Y-65024173D01*
X100377096Y-64866489D01*
X100465132Y-64743974D01*
X100507453Y-64685077D01*
X100508776Y-64686028D01*
X100555645Y-64642857D01*
X100625580Y-64630625D01*
X100691026Y-64658144D01*
X100718875Y-64689994D01*
X100732055Y-64711502D01*
X100778987Y-64788088D01*
X100925250Y-64956938D01*
X101097126Y-65099632D01*
X101108070Y-65106027D01*
X101156793Y-65157664D01*
X101170500Y-65214815D01*
X101170500Y-72640088D01*
X101170208Y-72648658D01*
X101168496Y-72673776D01*
X101166275Y-72706352D01*
X101167580Y-72713829D01*
X101167580Y-72713830D01*
X101177261Y-72769299D01*
X101178223Y-72775821D01*
X101185898Y-72839242D01*
X101188581Y-72846343D01*
X101189222Y-72848952D01*
X101193685Y-72865262D01*
X101194450Y-72867798D01*
X101195757Y-72875284D01*
X101210468Y-72908795D01*
X101221442Y-72933795D01*
X101223933Y-72939899D01*
X101246513Y-72999656D01*
X101250817Y-73005919D01*
X101252054Y-73008285D01*
X101260299Y-73023097D01*
X101261632Y-73025351D01*
X101264685Y-73032305D01*
X101288494Y-73063332D01*
X101303579Y-73082991D01*
X101307459Y-73088332D01*
X101339339Y-73134720D01*
X101339344Y-73134725D01*
X101343643Y-73140981D01*
X101349313Y-73146032D01*
X101349314Y-73146034D01*
X101390170Y-73182435D01*
X101395446Y-73187416D01*
X105442324Y-77234295D01*
X105476350Y-77296607D01*
X105478750Y-77334371D01*
X105466884Y-77470000D01*
X105485314Y-77680655D01*
X105486738Y-77685968D01*
X105486738Y-77685970D01*
X105528760Y-77842796D01*
X105540044Y-77884910D01*
X105542366Y-77889891D01*
X105542367Y-77889892D01*
X105621602Y-78059811D01*
X105629411Y-78076558D01*
X105750699Y-78249776D01*
X105900224Y-78399301D01*
X106073442Y-78520589D01*
X106078420Y-78522910D01*
X106078423Y-78522912D01*
X106132879Y-78548305D01*
X106265090Y-78609956D01*
X106270398Y-78611378D01*
X106270400Y-78611379D01*
X106464030Y-78663262D01*
X106464032Y-78663262D01*
X106469345Y-78664686D01*
X106680000Y-78683116D01*
X106890655Y-78664686D01*
X106895968Y-78663262D01*
X106895970Y-78663262D01*
X107089600Y-78611379D01*
X107089602Y-78611378D01*
X107094910Y-78609956D01*
X107227121Y-78548305D01*
X107281577Y-78522912D01*
X107281580Y-78522910D01*
X107286558Y-78520589D01*
X107338440Y-78484261D01*
X111110294Y-78484261D01*
X111119590Y-78496276D01*
X111149189Y-78517001D01*
X111158677Y-78522479D01*
X111340277Y-78607159D01*
X111350571Y-78610907D01*
X111544122Y-78662769D01*
X111554909Y-78664671D01*
X111754525Y-78682135D01*
X111765475Y-78682135D01*
X111965091Y-78664671D01*
X111975878Y-78662769D01*
X112169429Y-78610907D01*
X112179723Y-78607159D01*
X112361323Y-78522479D01*
X112370811Y-78517001D01*
X112401248Y-78495689D01*
X112409623Y-78485212D01*
X112402554Y-78471764D01*
X111772812Y-77842022D01*
X111758868Y-77834408D01*
X111757035Y-77834539D01*
X111750420Y-77838790D01*
X111116724Y-78472486D01*
X111110294Y-78484261D01*
X107338440Y-78484261D01*
X107459776Y-78399301D01*
X107609301Y-78249776D01*
X107730589Y-78076558D01*
X107738399Y-78059811D01*
X107817633Y-77889892D01*
X107817634Y-77889891D01*
X107819956Y-77884910D01*
X107831241Y-77842796D01*
X107873262Y-77685970D01*
X107873262Y-77685968D01*
X107874686Y-77680655D01*
X107892637Y-77475475D01*
X110547865Y-77475475D01*
X110565329Y-77675091D01*
X110567231Y-77685878D01*
X110619093Y-77879429D01*
X110622841Y-77889723D01*
X110707521Y-78071323D01*
X110712999Y-78080811D01*
X110734311Y-78111248D01*
X110744788Y-78119623D01*
X110758236Y-78112554D01*
X111387978Y-77482812D01*
X111394356Y-77471132D01*
X112124408Y-77471132D01*
X112124539Y-77472965D01*
X112128790Y-77479580D01*
X112762486Y-78113276D01*
X112774261Y-78119706D01*
X112786276Y-78110410D01*
X112807001Y-78080811D01*
X112812479Y-78071323D01*
X112897159Y-77889723D01*
X112900907Y-77879429D01*
X112952769Y-77685878D01*
X112954671Y-77675091D01*
X112972135Y-77475475D01*
X112972135Y-77464525D01*
X112954671Y-77264909D01*
X112952769Y-77254122D01*
X112900907Y-77060571D01*
X112897159Y-77050277D01*
X112812479Y-76868677D01*
X112807001Y-76859189D01*
X112785689Y-76828752D01*
X112775212Y-76820377D01*
X112761764Y-76827446D01*
X112132022Y-77457188D01*
X112124408Y-77471132D01*
X111394356Y-77471132D01*
X111395592Y-77468868D01*
X111395461Y-77467035D01*
X111391210Y-77460420D01*
X110757514Y-76826724D01*
X110745739Y-76820294D01*
X110733724Y-76829590D01*
X110712999Y-76859189D01*
X110707521Y-76868677D01*
X110622841Y-77050277D01*
X110619093Y-77060571D01*
X110567231Y-77254122D01*
X110565329Y-77264909D01*
X110547865Y-77464525D01*
X110547865Y-77475475D01*
X107892637Y-77475475D01*
X107893116Y-77470000D01*
X107874686Y-77259345D01*
X107858486Y-77198886D01*
X107821379Y-77060400D01*
X107821378Y-77060398D01*
X107819956Y-77055090D01*
X107730589Y-76863442D01*
X107609301Y-76690224D01*
X107459776Y-76540699D01*
X107337082Y-76454788D01*
X111110377Y-76454788D01*
X111117446Y-76468236D01*
X111747188Y-77097978D01*
X111761132Y-77105592D01*
X111762965Y-77105461D01*
X111769580Y-77101210D01*
X112403276Y-76467514D01*
X112409706Y-76455739D01*
X112400410Y-76443724D01*
X112370811Y-76422999D01*
X112361323Y-76417521D01*
X112179723Y-76332841D01*
X112169429Y-76329093D01*
X111975878Y-76277231D01*
X111965091Y-76275329D01*
X111765475Y-76257865D01*
X111754525Y-76257865D01*
X111554909Y-76275329D01*
X111544122Y-76277231D01*
X111350571Y-76329093D01*
X111340277Y-76332841D01*
X111158677Y-76417521D01*
X111149189Y-76422999D01*
X111118752Y-76444311D01*
X111110377Y-76454788D01*
X107337082Y-76454788D01*
X107286558Y-76419411D01*
X107281580Y-76417090D01*
X107281577Y-76417088D01*
X107099892Y-76332367D01*
X107099891Y-76332366D01*
X107094910Y-76330044D01*
X107089602Y-76328622D01*
X107089600Y-76328621D01*
X106895970Y-76276738D01*
X106895968Y-76276738D01*
X106890655Y-76275314D01*
X106680000Y-76256884D01*
X106674525Y-76257363D01*
X106544371Y-76268750D01*
X106474766Y-76254761D01*
X106444294Y-76232324D01*
X102624405Y-72412435D01*
X102590379Y-72350123D01*
X102587500Y-72323340D01*
X102587500Y-65211297D01*
X102607502Y-65143176D01*
X102640332Y-65108718D01*
X102754656Y-65027172D01*
X102754659Y-65027170D01*
X102758860Y-65024173D01*
X102917096Y-64866489D01*
X103005132Y-64743974D01*
X103047453Y-64685077D01*
X103048776Y-64686028D01*
X103095645Y-64642857D01*
X103165580Y-64630625D01*
X103231026Y-64658144D01*
X103258875Y-64689994D01*
X103272055Y-64711502D01*
X103318987Y-64788088D01*
X103465250Y-64956938D01*
X103637126Y-65099632D01*
X103648070Y-65106027D01*
X103696793Y-65157664D01*
X103710500Y-65214815D01*
X103710500Y-67560088D01*
X103710208Y-67568658D01*
X103706275Y-67626352D01*
X103707580Y-67633829D01*
X103707580Y-67633830D01*
X103717261Y-67689299D01*
X103718223Y-67695821D01*
X103725898Y-67759242D01*
X103728581Y-67766343D01*
X103729222Y-67768952D01*
X103733685Y-67785262D01*
X103734450Y-67787798D01*
X103735757Y-67795284D01*
X103738811Y-67802241D01*
X103761442Y-67853795D01*
X103763933Y-67859899D01*
X103786513Y-67919656D01*
X103790817Y-67925919D01*
X103792054Y-67928285D01*
X103800299Y-67943097D01*
X103801632Y-67945351D01*
X103804685Y-67952305D01*
X103810394Y-67959744D01*
X103843579Y-68002991D01*
X103847459Y-68008332D01*
X103879339Y-68054720D01*
X103879344Y-68054725D01*
X103883643Y-68060981D01*
X103889313Y-68066032D01*
X103889314Y-68066034D01*
X103930170Y-68102435D01*
X103935446Y-68107416D01*
X105442324Y-69614294D01*
X105476350Y-69676606D01*
X105478750Y-69714371D01*
X105469815Y-69816502D01*
X105466884Y-69850000D01*
X105485314Y-70060655D01*
X105486738Y-70065968D01*
X105486738Y-70065970D01*
X105538433Y-70258896D01*
X105540044Y-70264910D01*
X105542366Y-70269891D01*
X105542367Y-70269892D01*
X105626238Y-70449753D01*
X105629411Y-70456558D01*
X105750699Y-70629776D01*
X105900224Y-70779301D01*
X106073442Y-70900589D01*
X106078420Y-70902910D01*
X106078423Y-70902912D01*
X106259092Y-70987159D01*
X106265090Y-70989956D01*
X106270398Y-70991378D01*
X106270400Y-70991379D01*
X106464030Y-71043262D01*
X106464032Y-71043262D01*
X106469345Y-71044686D01*
X106680000Y-71063116D01*
X106890655Y-71044686D01*
X106895968Y-71043262D01*
X106895970Y-71043262D01*
X107089600Y-70991379D01*
X107089602Y-70991378D01*
X107094910Y-70989956D01*
X107100908Y-70987159D01*
X107281577Y-70902912D01*
X107281580Y-70902910D01*
X107286558Y-70900589D01*
X107459776Y-70779301D01*
X107609301Y-70629776D01*
X107730589Y-70456558D01*
X107733763Y-70449753D01*
X107817633Y-70269892D01*
X107817634Y-70269891D01*
X107819956Y-70264910D01*
X107821568Y-70258896D01*
X107873262Y-70065970D01*
X107873262Y-70065968D01*
X107874686Y-70060655D01*
X107893116Y-69850000D01*
X107874686Y-69639345D01*
X107819956Y-69435090D01*
X107808239Y-69409962D01*
X107732912Y-69248423D01*
X107732910Y-69248420D01*
X107730589Y-69243442D01*
X107609301Y-69070224D01*
X107459776Y-68920699D01*
X107286558Y-68799411D01*
X107281580Y-68797090D01*
X107281577Y-68797088D01*
X107099892Y-68712367D01*
X107099891Y-68712366D01*
X107094910Y-68710044D01*
X107089602Y-68708622D01*
X107089600Y-68708621D01*
X106895970Y-68656738D01*
X106895968Y-68656738D01*
X106890655Y-68655314D01*
X106680000Y-68636884D01*
X106674525Y-68637363D01*
X106544371Y-68648750D01*
X106474766Y-68634761D01*
X106444294Y-68612324D01*
X105164405Y-67332435D01*
X105130379Y-67270123D01*
X105127500Y-67243340D01*
X105127500Y-65211297D01*
X105147502Y-65143176D01*
X105180332Y-65108718D01*
X105294656Y-65027172D01*
X105294659Y-65027170D01*
X105298860Y-65024173D01*
X105457096Y-64866489D01*
X105545132Y-64743974D01*
X105587453Y-64685077D01*
X105588776Y-64686028D01*
X105635645Y-64642857D01*
X105705580Y-64630625D01*
X105771026Y-64658144D01*
X105798875Y-64689994D01*
X105812055Y-64711502D01*
X105858987Y-64788088D01*
X106005250Y-64956938D01*
X106177126Y-65099632D01*
X106370000Y-65212338D01*
X106374825Y-65214180D01*
X106374826Y-65214181D01*
X106447612Y-65241975D01*
X106578692Y-65292030D01*
X106583760Y-65293061D01*
X106583763Y-65293062D01*
X106643891Y-65305295D01*
X106797597Y-65336567D01*
X106802772Y-65336757D01*
X106802774Y-65336757D01*
X107015673Y-65344564D01*
X107015677Y-65344564D01*
X107020837Y-65344753D01*
X107025957Y-65344097D01*
X107025959Y-65344097D01*
X107223589Y-65318780D01*
X107293699Y-65329965D01*
X107328694Y-65354664D01*
X109002550Y-67028520D01*
X109008404Y-67034785D01*
X109046439Y-67078385D01*
X109052657Y-67082755D01*
X109098697Y-67115112D01*
X109103993Y-67119045D01*
X109154282Y-67158477D01*
X109161204Y-67161602D01*
X109163452Y-67162964D01*
X109178185Y-67171368D01*
X109180524Y-67172622D01*
X109186739Y-67176990D01*
X109193815Y-67179749D01*
X109193819Y-67179751D01*
X109246269Y-67200200D01*
X109252334Y-67202749D01*
X109310573Y-67229045D01*
X109318038Y-67230429D01*
X109320582Y-67231226D01*
X109336848Y-67235859D01*
X109339428Y-67236521D01*
X109346509Y-67239282D01*
X109354042Y-67240274D01*
X109354043Y-67240274D01*
X109386699Y-67244573D01*
X109409857Y-67247622D01*
X109416355Y-67248650D01*
X109479187Y-67260296D01*
X109486767Y-67259859D01*
X109486768Y-67259859D01*
X109541393Y-67256709D01*
X109548647Y-67256500D01*
X120154401Y-67256500D01*
X120222522Y-67276502D01*
X120269015Y-67330158D01*
X120279119Y-67400432D01*
X120250212Y-67464331D01*
X120110289Y-67628160D01*
X120104496Y-67636133D01*
X119977417Y-67843506D01*
X119972936Y-67852300D01*
X119879866Y-68076991D01*
X119876817Y-68086376D01*
X119823517Y-68308385D01*
X119824222Y-68322470D01*
X119833101Y-68326000D01*
X122986597Y-68326000D01*
X123000128Y-68322027D01*
X123001488Y-68312569D01*
X122947183Y-68086376D01*
X122944134Y-68076991D01*
X122851064Y-67852300D01*
X122846583Y-67843506D01*
X122719504Y-67636133D01*
X122713711Y-67628160D01*
X122573788Y-67464331D01*
X122544757Y-67399541D01*
X122555362Y-67329341D01*
X122602237Y-67276018D01*
X122669599Y-67256500D01*
X126146340Y-67256500D01*
X126214461Y-67276502D01*
X126235435Y-67293405D01*
X127778595Y-68836565D01*
X127812621Y-68898877D01*
X127815500Y-68925660D01*
X127815500Y-72615088D01*
X127815208Y-72623658D01*
X127811275Y-72681352D01*
X127812580Y-72688829D01*
X127812580Y-72688830D01*
X127822261Y-72744299D01*
X127823223Y-72750821D01*
X127830898Y-72814242D01*
X127833581Y-72821343D01*
X127834222Y-72823952D01*
X127838685Y-72840262D01*
X127839450Y-72842798D01*
X127840757Y-72850284D01*
X127866276Y-72908416D01*
X127866442Y-72908795D01*
X127868933Y-72914899D01*
X127891513Y-72974656D01*
X127895817Y-72980919D01*
X127897054Y-72983285D01*
X127905299Y-72998097D01*
X127906632Y-73000351D01*
X127909685Y-73007305D01*
X127933491Y-73038328D01*
X127948579Y-73057991D01*
X127952459Y-73063332D01*
X127984339Y-73109720D01*
X127984344Y-73109725D01*
X127988643Y-73115981D01*
X127994313Y-73121032D01*
X127994314Y-73121034D01*
X128035170Y-73157435D01*
X128040446Y-73162416D01*
X132112324Y-77234294D01*
X132146350Y-77296606D01*
X132148750Y-77334371D01*
X132136884Y-77470000D01*
X132155314Y-77680655D01*
X132156738Y-77685968D01*
X132156738Y-77685970D01*
X132198760Y-77842796D01*
X132210044Y-77884910D01*
X132212366Y-77889891D01*
X132212367Y-77889892D01*
X132291602Y-78059811D01*
X132299411Y-78076558D01*
X132374257Y-78183450D01*
X132381648Y-78194005D01*
X132404336Y-78261279D01*
X132387051Y-78330139D01*
X132335281Y-78378723D01*
X132265463Y-78391605D01*
X132199764Y-78364697D01*
X132189340Y-78355370D01*
X129045450Y-75211480D01*
X129039596Y-75205215D01*
X129020889Y-75183771D01*
X129001561Y-75161615D01*
X128949280Y-75124871D01*
X128943986Y-75120939D01*
X128899693Y-75086209D01*
X128893718Y-75081524D01*
X128886802Y-75078401D01*
X128884516Y-75077017D01*
X128869835Y-75068643D01*
X128867475Y-75067378D01*
X128861261Y-75063010D01*
X128854182Y-75060250D01*
X128854180Y-75060249D01*
X128801725Y-75039798D01*
X128795656Y-75037247D01*
X128737427Y-75010955D01*
X128729960Y-75009571D01*
X128727405Y-75008770D01*
X128711152Y-75004141D01*
X128708572Y-75003478D01*
X128701491Y-75000718D01*
X128693960Y-74999727D01*
X128693958Y-74999726D01*
X128664339Y-74995827D01*
X128638139Y-74992378D01*
X128631641Y-74991348D01*
X128568814Y-74979704D01*
X128561234Y-74980141D01*
X128561233Y-74980141D01*
X128506608Y-74983291D01*
X128499354Y-74983500D01*
X117947661Y-74983500D01*
X117879540Y-74963498D01*
X117858566Y-74946595D01*
X113776231Y-70864261D01*
X116190294Y-70864261D01*
X116199590Y-70876276D01*
X116229189Y-70897001D01*
X116238677Y-70902479D01*
X116420277Y-70987159D01*
X116430571Y-70990907D01*
X116624122Y-71042769D01*
X116634909Y-71044671D01*
X116834525Y-71062135D01*
X116845475Y-71062135D01*
X117045091Y-71044671D01*
X117055878Y-71042769D01*
X117249429Y-70990907D01*
X117259723Y-70987159D01*
X117441323Y-70902479D01*
X117450811Y-70897001D01*
X117481248Y-70875689D01*
X117489623Y-70865212D01*
X117489123Y-70864261D01*
X125080294Y-70864261D01*
X125089590Y-70876276D01*
X125119189Y-70897001D01*
X125128677Y-70902479D01*
X125310277Y-70987159D01*
X125320571Y-70990907D01*
X125514122Y-71042769D01*
X125524909Y-71044671D01*
X125724525Y-71062135D01*
X125735475Y-71062135D01*
X125935091Y-71044671D01*
X125945878Y-71042769D01*
X126139429Y-70990907D01*
X126149723Y-70987159D01*
X126331323Y-70902479D01*
X126340811Y-70897001D01*
X126371248Y-70875689D01*
X126379623Y-70865212D01*
X126372554Y-70851764D01*
X125742812Y-70222022D01*
X125728868Y-70214408D01*
X125727035Y-70214539D01*
X125720420Y-70218790D01*
X125086724Y-70852486D01*
X125080294Y-70864261D01*
X117489123Y-70864261D01*
X117482554Y-70851764D01*
X116852812Y-70222022D01*
X116838868Y-70214408D01*
X116837035Y-70214539D01*
X116830420Y-70218790D01*
X116196724Y-70852486D01*
X116190294Y-70864261D01*
X113776231Y-70864261D01*
X112997676Y-70085706D01*
X112963650Y-70023394D01*
X112961250Y-69985629D01*
X112972637Y-69855475D01*
X115627865Y-69855475D01*
X115645329Y-70055091D01*
X115647231Y-70065878D01*
X115699093Y-70259429D01*
X115702841Y-70269723D01*
X115787521Y-70451323D01*
X115792999Y-70460811D01*
X115814311Y-70491248D01*
X115824788Y-70499623D01*
X115838236Y-70492554D01*
X116467978Y-69862812D01*
X116474356Y-69851132D01*
X117204408Y-69851132D01*
X117204539Y-69852965D01*
X117208790Y-69859580D01*
X117842486Y-70493276D01*
X117854261Y-70499706D01*
X117866276Y-70490410D01*
X117887001Y-70460811D01*
X117892479Y-70451323D01*
X117977159Y-70269723D01*
X117980907Y-70259429D01*
X118032769Y-70065878D01*
X118034671Y-70055091D01*
X118052135Y-69855475D01*
X118052135Y-69844525D01*
X118034671Y-69644909D01*
X118032769Y-69634122D01*
X117980907Y-69440571D01*
X117977159Y-69430277D01*
X117892479Y-69248677D01*
X117887001Y-69239189D01*
X117865689Y-69208752D01*
X117855212Y-69200377D01*
X117841764Y-69207446D01*
X117212022Y-69837188D01*
X117204408Y-69851132D01*
X116474356Y-69851132D01*
X116475592Y-69848868D01*
X116475461Y-69847035D01*
X116471210Y-69840420D01*
X115837514Y-69206724D01*
X115825739Y-69200294D01*
X115813724Y-69209590D01*
X115792999Y-69239189D01*
X115787521Y-69248677D01*
X115702841Y-69430277D01*
X115699093Y-69440571D01*
X115647231Y-69634122D01*
X115645329Y-69644909D01*
X115627865Y-69844525D01*
X115627865Y-69855475D01*
X112972637Y-69855475D01*
X112973116Y-69850000D01*
X112954686Y-69639345D01*
X112899956Y-69435090D01*
X112888239Y-69409962D01*
X112812912Y-69248423D01*
X112812910Y-69248420D01*
X112810589Y-69243442D01*
X112689301Y-69070224D01*
X112539776Y-68920699D01*
X112417082Y-68834788D01*
X116190377Y-68834788D01*
X116197446Y-68848236D01*
X116827188Y-69477978D01*
X116841132Y-69485592D01*
X116842965Y-69485461D01*
X116849580Y-69481210D01*
X117483276Y-68847514D01*
X117483321Y-68847431D01*
X119822512Y-68847431D01*
X119876817Y-69073624D01*
X119879866Y-69083009D01*
X119972936Y-69307700D01*
X119977417Y-69316494D01*
X120104496Y-69523867D01*
X120110289Y-69531840D01*
X120268249Y-69716787D01*
X120275213Y-69723751D01*
X120460160Y-69881711D01*
X120468133Y-69887504D01*
X120675506Y-70014583D01*
X120684300Y-70019064D01*
X120908991Y-70112134D01*
X120918376Y-70115183D01*
X121140385Y-70168483D01*
X121154470Y-70167778D01*
X121158000Y-70158899D01*
X121158000Y-70154597D01*
X121666000Y-70154597D01*
X121669973Y-70168128D01*
X121679431Y-70169488D01*
X121905624Y-70115183D01*
X121915009Y-70112134D01*
X122139700Y-70019064D01*
X122148494Y-70014583D01*
X122355867Y-69887504D01*
X122363840Y-69881711D01*
X122394558Y-69855475D01*
X124517865Y-69855475D01*
X124535329Y-70055091D01*
X124537231Y-70065878D01*
X124589093Y-70259429D01*
X124592841Y-70269723D01*
X124677521Y-70451323D01*
X124682999Y-70460811D01*
X124704311Y-70491248D01*
X124714788Y-70499623D01*
X124728236Y-70492554D01*
X125357978Y-69862812D01*
X125364356Y-69851132D01*
X126094408Y-69851132D01*
X126094539Y-69852965D01*
X126098790Y-69859580D01*
X126732486Y-70493276D01*
X126744261Y-70499706D01*
X126756276Y-70490410D01*
X126777001Y-70460811D01*
X126782479Y-70451323D01*
X126867159Y-70269723D01*
X126870907Y-70259429D01*
X126922769Y-70065878D01*
X126924671Y-70055091D01*
X126942135Y-69855475D01*
X126942135Y-69844525D01*
X126924671Y-69644909D01*
X126922769Y-69634122D01*
X126870907Y-69440571D01*
X126867159Y-69430277D01*
X126782479Y-69248677D01*
X126777001Y-69239189D01*
X126755689Y-69208752D01*
X126745212Y-69200377D01*
X126731764Y-69207446D01*
X126102022Y-69837188D01*
X126094408Y-69851132D01*
X125364356Y-69851132D01*
X125365592Y-69848868D01*
X125365461Y-69847035D01*
X125361210Y-69840420D01*
X124727514Y-69206724D01*
X124715739Y-69200294D01*
X124703724Y-69209590D01*
X124682999Y-69239189D01*
X124677521Y-69248677D01*
X124592841Y-69430277D01*
X124589093Y-69440571D01*
X124537231Y-69634122D01*
X124535329Y-69644909D01*
X124517865Y-69844525D01*
X124517865Y-69855475D01*
X122394558Y-69855475D01*
X122548787Y-69723751D01*
X122555751Y-69716787D01*
X122713711Y-69531840D01*
X122719504Y-69523867D01*
X122846583Y-69316494D01*
X122851064Y-69307700D01*
X122944134Y-69083009D01*
X122947183Y-69073624D01*
X123000483Y-68851615D01*
X122999778Y-68837530D01*
X122992881Y-68834788D01*
X125080377Y-68834788D01*
X125087446Y-68848236D01*
X125717188Y-69477978D01*
X125731132Y-69485592D01*
X125732965Y-69485461D01*
X125739580Y-69481210D01*
X126373276Y-68847514D01*
X126379706Y-68835739D01*
X126370410Y-68823724D01*
X126340811Y-68802999D01*
X126331323Y-68797521D01*
X126149723Y-68712841D01*
X126139429Y-68709093D01*
X125945878Y-68657231D01*
X125935091Y-68655329D01*
X125735475Y-68637865D01*
X125724525Y-68637865D01*
X125524909Y-68655329D01*
X125514122Y-68657231D01*
X125320571Y-68709093D01*
X125310277Y-68712841D01*
X125128677Y-68797521D01*
X125119189Y-68802999D01*
X125088752Y-68824311D01*
X125080377Y-68834788D01*
X122992881Y-68834788D01*
X122990899Y-68834000D01*
X121684115Y-68834000D01*
X121668876Y-68838475D01*
X121667671Y-68839865D01*
X121666000Y-68847548D01*
X121666000Y-70154597D01*
X121158000Y-70154597D01*
X121158000Y-68852115D01*
X121153525Y-68836876D01*
X121152135Y-68835671D01*
X121144452Y-68834000D01*
X119837403Y-68834000D01*
X119823872Y-68837973D01*
X119822512Y-68847431D01*
X117483321Y-68847431D01*
X117489706Y-68835739D01*
X117480410Y-68823724D01*
X117450811Y-68802999D01*
X117441323Y-68797521D01*
X117259723Y-68712841D01*
X117249429Y-68709093D01*
X117055878Y-68657231D01*
X117045091Y-68655329D01*
X116845475Y-68637865D01*
X116834525Y-68637865D01*
X116634909Y-68655329D01*
X116624122Y-68657231D01*
X116430571Y-68709093D01*
X116420277Y-68712841D01*
X116238677Y-68797521D01*
X116229189Y-68802999D01*
X116198752Y-68824311D01*
X116190377Y-68834788D01*
X112417082Y-68834788D01*
X112366558Y-68799411D01*
X112361580Y-68797090D01*
X112361577Y-68797088D01*
X112179892Y-68712367D01*
X112179891Y-68712366D01*
X112174910Y-68710044D01*
X112169602Y-68708622D01*
X112169600Y-68708621D01*
X111975970Y-68656738D01*
X111975968Y-68656738D01*
X111970655Y-68655314D01*
X111760000Y-68636884D01*
X111549345Y-68655314D01*
X111544032Y-68656738D01*
X111544030Y-68656738D01*
X111350400Y-68708621D01*
X111350398Y-68708622D01*
X111345090Y-68710044D01*
X111340109Y-68712366D01*
X111340108Y-68712367D01*
X111158423Y-68797088D01*
X111158420Y-68797090D01*
X111153442Y-68799411D01*
X110980224Y-68920699D01*
X110830699Y-69070224D01*
X110709411Y-69243442D01*
X110707090Y-69248420D01*
X110707088Y-69248423D01*
X110631761Y-69409962D01*
X110620044Y-69435090D01*
X110565314Y-69639345D01*
X110546884Y-69850000D01*
X110565314Y-70060655D01*
X110566738Y-70065968D01*
X110566738Y-70065970D01*
X110618433Y-70258896D01*
X110620044Y-70264910D01*
X110622366Y-70269891D01*
X110622367Y-70269892D01*
X110706238Y-70449753D01*
X110709411Y-70456558D01*
X110830699Y-70629776D01*
X110980224Y-70779301D01*
X110984736Y-70782460D01*
X110984738Y-70782462D01*
X110997772Y-70791589D01*
X111042100Y-70847047D01*
X111051500Y-70894801D01*
X111051500Y-72361088D01*
X111051208Y-72369658D01*
X111047275Y-72427352D01*
X111048580Y-72434829D01*
X111048580Y-72434830D01*
X111058261Y-72490299D01*
X111059223Y-72496821D01*
X111066898Y-72560242D01*
X111069581Y-72567343D01*
X111070222Y-72569952D01*
X111074685Y-72586262D01*
X111075450Y-72588798D01*
X111076757Y-72596284D01*
X111088774Y-72623658D01*
X111102442Y-72654795D01*
X111104933Y-72660899D01*
X111127513Y-72720656D01*
X111131817Y-72726919D01*
X111133054Y-72729285D01*
X111141299Y-72744097D01*
X111142632Y-72746351D01*
X111145685Y-72753305D01*
X111150307Y-72759328D01*
X111184579Y-72803991D01*
X111188459Y-72809332D01*
X111220339Y-72855720D01*
X111220344Y-72855725D01*
X111224643Y-72861981D01*
X111230313Y-72867032D01*
X111230314Y-72867034D01*
X111271170Y-72903435D01*
X111276446Y-72908416D01*
X113702422Y-75334393D01*
X113702425Y-75334396D01*
X113702432Y-75334402D01*
X115602324Y-77234294D01*
X115636350Y-77296606D01*
X115638750Y-77334371D01*
X115626884Y-77470000D01*
X115627363Y-77475475D01*
X115638750Y-77605629D01*
X115624761Y-77675234D01*
X115602324Y-77705706D01*
X113789435Y-79518595D01*
X113727123Y-79552621D01*
X113700340Y-79555500D01*
X106009660Y-79555500D01*
X105941539Y-79535498D01*
X105920565Y-79518595D01*
X101105450Y-74703480D01*
X101099596Y-74697215D01*
X101099201Y-74696762D01*
X101061561Y-74653615D01*
X101009280Y-74616871D01*
X101003986Y-74612939D01*
X100959693Y-74578209D01*
X100953718Y-74573524D01*
X100946802Y-74570401D01*
X100944516Y-74569017D01*
X100929835Y-74560643D01*
X100927475Y-74559378D01*
X100921261Y-74555010D01*
X100914182Y-74552250D01*
X100914180Y-74552249D01*
X100861725Y-74531798D01*
X100855656Y-74529247D01*
X100797427Y-74502955D01*
X100789960Y-74501571D01*
X100787405Y-74500770D01*
X100771152Y-74496141D01*
X100768572Y-74495478D01*
X100761491Y-74492718D01*
X100753960Y-74491727D01*
X100753958Y-74491726D01*
X100724339Y-74487827D01*
X100698139Y-74484378D01*
X100691641Y-74483348D01*
X100628814Y-74471704D01*
X100621234Y-74472141D01*
X100621233Y-74472141D01*
X100566608Y-74475291D01*
X100559354Y-74475500D01*
X86959660Y-74475500D01*
X86891539Y-74455498D01*
X86870565Y-74438595D01*
X83296231Y-70864261D01*
X85710294Y-70864261D01*
X85719590Y-70876276D01*
X85749189Y-70897001D01*
X85758677Y-70902479D01*
X85940277Y-70987159D01*
X85950571Y-70990907D01*
X86144122Y-71042769D01*
X86154909Y-71044671D01*
X86354525Y-71062135D01*
X86365475Y-71062135D01*
X86565091Y-71044671D01*
X86575878Y-71042769D01*
X86769429Y-70990907D01*
X86779723Y-70987159D01*
X86961323Y-70902479D01*
X86970811Y-70897001D01*
X87001248Y-70875689D01*
X87009623Y-70865212D01*
X87009123Y-70864261D01*
X98410294Y-70864261D01*
X98419590Y-70876276D01*
X98449189Y-70897001D01*
X98458677Y-70902479D01*
X98640277Y-70987159D01*
X98650571Y-70990907D01*
X98844122Y-71042769D01*
X98854909Y-71044671D01*
X99054525Y-71062135D01*
X99065475Y-71062135D01*
X99265091Y-71044671D01*
X99275878Y-71042769D01*
X99469429Y-70990907D01*
X99479723Y-70987159D01*
X99661323Y-70902479D01*
X99670811Y-70897001D01*
X99701248Y-70875689D01*
X99709623Y-70865212D01*
X99702554Y-70851764D01*
X99072812Y-70222022D01*
X99058868Y-70214408D01*
X99057035Y-70214539D01*
X99050420Y-70218790D01*
X98416724Y-70852486D01*
X98410294Y-70864261D01*
X87009123Y-70864261D01*
X87002554Y-70851764D01*
X86372812Y-70222022D01*
X86358868Y-70214408D01*
X86357035Y-70214539D01*
X86350420Y-70218790D01*
X85716724Y-70852486D01*
X85710294Y-70864261D01*
X83296231Y-70864261D01*
X82517676Y-70085706D01*
X82483650Y-70023394D01*
X82481250Y-69985629D01*
X82492637Y-69855475D01*
X85147865Y-69855475D01*
X85165329Y-70055091D01*
X85167231Y-70065878D01*
X85219093Y-70259429D01*
X85222841Y-70269723D01*
X85307521Y-70451323D01*
X85312999Y-70460811D01*
X85334311Y-70491248D01*
X85344788Y-70499623D01*
X85358236Y-70492554D01*
X85987978Y-69862812D01*
X85994356Y-69851132D01*
X86724408Y-69851132D01*
X86724539Y-69852965D01*
X86728790Y-69859580D01*
X87362486Y-70493276D01*
X87374261Y-70499706D01*
X87386276Y-70490410D01*
X87407001Y-70460811D01*
X87412479Y-70451323D01*
X87497159Y-70269723D01*
X87500907Y-70259429D01*
X87552769Y-70065878D01*
X87554671Y-70055091D01*
X87572135Y-69855475D01*
X87572135Y-69844525D01*
X87554671Y-69644909D01*
X87552769Y-69634122D01*
X87500907Y-69440571D01*
X87497159Y-69430277D01*
X87412479Y-69248677D01*
X87407001Y-69239189D01*
X87385689Y-69208752D01*
X87375212Y-69200377D01*
X87361764Y-69207446D01*
X86732022Y-69837188D01*
X86724408Y-69851132D01*
X85994356Y-69851132D01*
X85995592Y-69848868D01*
X85995461Y-69847035D01*
X85991210Y-69840420D01*
X85357514Y-69206724D01*
X85345739Y-69200294D01*
X85333724Y-69209590D01*
X85312999Y-69239189D01*
X85307521Y-69248677D01*
X85222841Y-69430277D01*
X85219093Y-69440571D01*
X85167231Y-69634122D01*
X85165329Y-69644909D01*
X85147865Y-69844525D01*
X85147865Y-69855475D01*
X82492637Y-69855475D01*
X82493116Y-69850000D01*
X82474686Y-69639345D01*
X82419956Y-69435090D01*
X82408239Y-69409962D01*
X82332912Y-69248423D01*
X82332910Y-69248420D01*
X82330589Y-69243442D01*
X82209301Y-69070224D01*
X82059776Y-68920699D01*
X81937082Y-68834788D01*
X85710377Y-68834788D01*
X85717446Y-68848236D01*
X86347188Y-69477978D01*
X86361132Y-69485592D01*
X86362965Y-69485461D01*
X86369580Y-69481210D01*
X87003276Y-68847514D01*
X87003321Y-68847431D01*
X93406512Y-68847431D01*
X93460817Y-69073624D01*
X93463866Y-69083009D01*
X93556936Y-69307700D01*
X93561417Y-69316494D01*
X93688496Y-69523867D01*
X93694289Y-69531840D01*
X93852249Y-69716787D01*
X93859213Y-69723751D01*
X94044160Y-69881711D01*
X94052133Y-69887504D01*
X94259506Y-70014583D01*
X94268300Y-70019064D01*
X94492991Y-70112134D01*
X94502376Y-70115183D01*
X94724385Y-70168483D01*
X94738470Y-70167778D01*
X94742000Y-70158899D01*
X94742000Y-70154597D01*
X95250000Y-70154597D01*
X95253973Y-70168128D01*
X95263431Y-70169488D01*
X95489624Y-70115183D01*
X95499009Y-70112134D01*
X95723700Y-70019064D01*
X95732494Y-70014583D01*
X95939867Y-69887504D01*
X95947840Y-69881711D01*
X95978558Y-69855475D01*
X97847865Y-69855475D01*
X97865329Y-70055091D01*
X97867231Y-70065878D01*
X97919093Y-70259429D01*
X97922841Y-70269723D01*
X98007521Y-70451323D01*
X98012999Y-70460811D01*
X98034311Y-70491248D01*
X98044788Y-70499623D01*
X98058236Y-70492554D01*
X98687978Y-69862812D01*
X98694356Y-69851132D01*
X99424408Y-69851132D01*
X99424539Y-69852965D01*
X99428790Y-69859580D01*
X100062486Y-70493276D01*
X100074261Y-70499706D01*
X100086276Y-70490410D01*
X100107001Y-70460811D01*
X100112479Y-70451323D01*
X100197159Y-70269723D01*
X100200907Y-70259429D01*
X100252769Y-70065878D01*
X100254671Y-70055091D01*
X100272135Y-69855475D01*
X100272135Y-69844525D01*
X100254671Y-69644909D01*
X100252769Y-69634122D01*
X100200907Y-69440571D01*
X100197159Y-69430277D01*
X100112479Y-69248677D01*
X100107001Y-69239189D01*
X100085689Y-69208752D01*
X100075212Y-69200377D01*
X100061764Y-69207446D01*
X99432022Y-69837188D01*
X99424408Y-69851132D01*
X98694356Y-69851132D01*
X98695592Y-69848868D01*
X98695461Y-69847035D01*
X98691210Y-69840420D01*
X98057514Y-69206724D01*
X98045739Y-69200294D01*
X98033724Y-69209590D01*
X98012999Y-69239189D01*
X98007521Y-69248677D01*
X97922841Y-69430277D01*
X97919093Y-69440571D01*
X97867231Y-69634122D01*
X97865329Y-69644909D01*
X97847865Y-69844525D01*
X97847865Y-69855475D01*
X95978558Y-69855475D01*
X96132787Y-69723751D01*
X96139751Y-69716787D01*
X96297711Y-69531840D01*
X96303504Y-69523867D01*
X96430583Y-69316494D01*
X96435064Y-69307700D01*
X96528134Y-69083009D01*
X96531183Y-69073624D01*
X96584483Y-68851615D01*
X96583778Y-68837530D01*
X96576881Y-68834788D01*
X98410377Y-68834788D01*
X98417446Y-68848236D01*
X99047188Y-69477978D01*
X99061132Y-69485592D01*
X99062965Y-69485461D01*
X99069580Y-69481210D01*
X99703276Y-68847514D01*
X99709706Y-68835739D01*
X99700410Y-68823724D01*
X99670811Y-68802999D01*
X99661323Y-68797521D01*
X99479723Y-68712841D01*
X99469429Y-68709093D01*
X99275878Y-68657231D01*
X99265091Y-68655329D01*
X99065475Y-68637865D01*
X99054525Y-68637865D01*
X98854909Y-68655329D01*
X98844122Y-68657231D01*
X98650571Y-68709093D01*
X98640277Y-68712841D01*
X98458677Y-68797521D01*
X98449189Y-68802999D01*
X98418752Y-68824311D01*
X98410377Y-68834788D01*
X96576881Y-68834788D01*
X96574899Y-68834000D01*
X95268115Y-68834000D01*
X95252876Y-68838475D01*
X95251671Y-68839865D01*
X95250000Y-68847548D01*
X95250000Y-70154597D01*
X94742000Y-70154597D01*
X94742000Y-68852115D01*
X94737525Y-68836876D01*
X94736135Y-68835671D01*
X94728452Y-68834000D01*
X93421403Y-68834000D01*
X93407872Y-68837973D01*
X93406512Y-68847431D01*
X87003321Y-68847431D01*
X87009706Y-68835739D01*
X87000410Y-68823724D01*
X86970811Y-68802999D01*
X86961323Y-68797521D01*
X86779723Y-68712841D01*
X86769429Y-68709093D01*
X86575878Y-68657231D01*
X86565091Y-68655329D01*
X86365475Y-68637865D01*
X86354525Y-68637865D01*
X86154909Y-68655329D01*
X86144122Y-68657231D01*
X85950571Y-68709093D01*
X85940277Y-68712841D01*
X85758677Y-68797521D01*
X85749189Y-68802999D01*
X85718752Y-68824311D01*
X85710377Y-68834788D01*
X81937082Y-68834788D01*
X81886558Y-68799411D01*
X81881580Y-68797090D01*
X81881577Y-68797088D01*
X81699892Y-68712367D01*
X81699891Y-68712366D01*
X81694910Y-68710044D01*
X81689602Y-68708622D01*
X81689600Y-68708621D01*
X81495970Y-68656738D01*
X81495968Y-68656738D01*
X81490655Y-68655314D01*
X81280000Y-68636884D01*
X81069345Y-68655314D01*
X81064032Y-68656738D01*
X81064030Y-68656738D01*
X80870400Y-68708621D01*
X80870398Y-68708622D01*
X80865090Y-68710044D01*
X80860109Y-68712366D01*
X80860108Y-68712367D01*
X80678423Y-68797088D01*
X80678420Y-68797090D01*
X80673442Y-68799411D01*
X80500224Y-68920699D01*
X80350699Y-69070224D01*
X80229411Y-69243442D01*
X80227090Y-69248420D01*
X80227088Y-69248423D01*
X80151761Y-69409962D01*
X80140044Y-69435090D01*
X80085314Y-69639345D01*
X80066884Y-69850000D01*
X80085314Y-70060655D01*
X80086738Y-70065968D01*
X80086738Y-70065970D01*
X80138433Y-70258896D01*
X80140044Y-70264910D01*
X80142366Y-70269891D01*
X80142367Y-70269892D01*
X80226238Y-70449753D01*
X80229411Y-70456558D01*
X80350699Y-70629776D01*
X80500224Y-70779301D01*
X80504736Y-70782460D01*
X80504738Y-70782462D01*
X80517772Y-70791589D01*
X80562100Y-70847047D01*
X80571500Y-70894801D01*
X80571500Y-72361088D01*
X80571208Y-72369658D01*
X80567275Y-72427352D01*
X80568580Y-72434829D01*
X80568580Y-72434830D01*
X80578261Y-72490299D01*
X80579223Y-72496821D01*
X80586898Y-72560242D01*
X80589581Y-72567343D01*
X80590222Y-72569952D01*
X80594685Y-72586262D01*
X80595450Y-72588798D01*
X80596757Y-72596284D01*
X80608774Y-72623658D01*
X80622442Y-72654795D01*
X80624933Y-72660899D01*
X80647513Y-72720656D01*
X80651817Y-72726919D01*
X80653054Y-72729285D01*
X80661299Y-72744097D01*
X80662632Y-72746351D01*
X80665685Y-72753305D01*
X80670307Y-72759328D01*
X80704579Y-72803991D01*
X80708459Y-72809332D01*
X80740339Y-72855720D01*
X80740344Y-72855725D01*
X80744643Y-72861981D01*
X80750313Y-72867032D01*
X80750314Y-72867034D01*
X80791170Y-72903435D01*
X80796446Y-72908416D01*
X85122324Y-77234294D01*
X85156350Y-77296606D01*
X85158750Y-77334371D01*
X85146884Y-77470000D01*
X85147363Y-77475475D01*
X85158750Y-77605629D01*
X85144761Y-77675234D01*
X85122324Y-77705706D01*
X83817435Y-79010595D01*
X83755123Y-79044621D01*
X83728340Y-79047500D01*
X72989660Y-79047500D01*
X72921539Y-79027498D01*
X72900565Y-79010595D01*
X64754231Y-70864261D01*
X67930294Y-70864261D01*
X67939590Y-70876276D01*
X67969189Y-70897001D01*
X67978677Y-70902479D01*
X68160277Y-70987159D01*
X68170571Y-70990907D01*
X68364122Y-71042769D01*
X68374909Y-71044671D01*
X68574525Y-71062135D01*
X68585475Y-71062135D01*
X68785091Y-71044671D01*
X68795878Y-71042769D01*
X68989429Y-70990907D01*
X68999723Y-70987159D01*
X69181323Y-70902479D01*
X69190811Y-70897001D01*
X69221248Y-70875689D01*
X69229623Y-70865212D01*
X69222554Y-70851764D01*
X68592812Y-70222022D01*
X68578868Y-70214408D01*
X68577035Y-70214539D01*
X68570420Y-70218790D01*
X67936724Y-70852486D01*
X67930294Y-70864261D01*
X64754231Y-70864261D01*
X64247243Y-70357273D01*
X64213217Y-70294961D01*
X64218282Y-70224146D01*
X64255273Y-70175819D01*
X64262000Y-70158899D01*
X64262000Y-70154597D01*
X64770000Y-70154597D01*
X64773973Y-70168128D01*
X64783431Y-70169488D01*
X65009624Y-70115183D01*
X65019009Y-70112134D01*
X65243700Y-70019064D01*
X65252494Y-70014583D01*
X65459867Y-69887504D01*
X65467840Y-69881711D01*
X65498558Y-69855475D01*
X67367865Y-69855475D01*
X67385329Y-70055091D01*
X67387231Y-70065878D01*
X67439093Y-70259429D01*
X67442841Y-70269723D01*
X67527521Y-70451323D01*
X67532999Y-70460811D01*
X67554311Y-70491248D01*
X67564788Y-70499623D01*
X67578236Y-70492554D01*
X68207978Y-69862812D01*
X68214356Y-69851132D01*
X68944408Y-69851132D01*
X68944539Y-69852965D01*
X68948790Y-69859580D01*
X69582486Y-70493276D01*
X69594261Y-70499706D01*
X69606276Y-70490410D01*
X69627001Y-70460811D01*
X69632479Y-70451323D01*
X69717159Y-70269723D01*
X69720907Y-70259429D01*
X69772769Y-70065878D01*
X69774671Y-70055091D01*
X69792135Y-69855475D01*
X69792135Y-69844525D01*
X69774671Y-69644909D01*
X69772769Y-69634122D01*
X69720907Y-69440571D01*
X69717159Y-69430277D01*
X69632479Y-69248677D01*
X69627001Y-69239189D01*
X69605689Y-69208752D01*
X69595212Y-69200377D01*
X69581764Y-69207446D01*
X68952022Y-69837188D01*
X68944408Y-69851132D01*
X68214356Y-69851132D01*
X68215592Y-69848868D01*
X68215461Y-69847035D01*
X68211210Y-69840420D01*
X67577514Y-69206724D01*
X67565739Y-69200294D01*
X67553724Y-69209590D01*
X67532999Y-69239189D01*
X67527521Y-69248677D01*
X67442841Y-69430277D01*
X67439093Y-69440571D01*
X67387231Y-69634122D01*
X67385329Y-69644909D01*
X67367865Y-69844525D01*
X67367865Y-69855475D01*
X65498558Y-69855475D01*
X65652787Y-69723751D01*
X65659751Y-69716787D01*
X65817711Y-69531840D01*
X65823504Y-69523867D01*
X65950583Y-69316494D01*
X65955064Y-69307700D01*
X66048134Y-69083009D01*
X66051183Y-69073624D01*
X66104483Y-68851615D01*
X66103778Y-68837530D01*
X66096881Y-68834788D01*
X67930377Y-68834788D01*
X67937446Y-68848236D01*
X68567188Y-69477978D01*
X68581132Y-69485592D01*
X68582965Y-69485461D01*
X68589580Y-69481210D01*
X69223276Y-68847514D01*
X69229706Y-68835739D01*
X69220410Y-68823724D01*
X69190811Y-68802999D01*
X69181323Y-68797521D01*
X68999723Y-68712841D01*
X68989429Y-68709093D01*
X68795878Y-68657231D01*
X68785091Y-68655329D01*
X68585475Y-68637865D01*
X68574525Y-68637865D01*
X68374909Y-68655329D01*
X68364122Y-68657231D01*
X68170571Y-68709093D01*
X68160277Y-68712841D01*
X67978677Y-68797521D01*
X67969189Y-68802999D01*
X67938752Y-68824311D01*
X67930377Y-68834788D01*
X66096881Y-68834788D01*
X66094899Y-68834000D01*
X64788115Y-68834000D01*
X64772876Y-68838475D01*
X64771671Y-68839865D01*
X64770000Y-68847548D01*
X64770000Y-70154597D01*
X64262000Y-70154597D01*
X64262000Y-68852115D01*
X64257525Y-68836876D01*
X64256135Y-68835671D01*
X64248452Y-68834000D01*
X62941403Y-68834000D01*
X62926165Y-68838474D01*
X62923001Y-68842126D01*
X62863275Y-68880511D01*
X62792278Y-68880512D01*
X62738680Y-68848710D01*
X62497450Y-68607480D01*
X62491596Y-68601215D01*
X62490834Y-68600342D01*
X62453561Y-68557615D01*
X62401280Y-68520871D01*
X62395986Y-68516939D01*
X62351693Y-68482209D01*
X62345718Y-68477524D01*
X62338802Y-68474401D01*
X62336516Y-68473017D01*
X62321835Y-68464643D01*
X62319475Y-68463378D01*
X62313261Y-68459010D01*
X62306182Y-68456250D01*
X62306180Y-68456249D01*
X62253725Y-68435798D01*
X62247656Y-68433247D01*
X62189427Y-68406955D01*
X62181960Y-68405571D01*
X62179405Y-68404770D01*
X62163152Y-68400141D01*
X62160572Y-68399478D01*
X62153491Y-68396718D01*
X62145960Y-68395727D01*
X62145958Y-68395726D01*
X62116339Y-68391827D01*
X62090139Y-68388378D01*
X62083641Y-68387348D01*
X62020814Y-68375704D01*
X62013234Y-68376141D01*
X62013233Y-68376141D01*
X61958608Y-68379291D01*
X61951354Y-68379500D01*
X58632286Y-68379500D01*
X58564165Y-68359498D01*
X58526494Y-68321941D01*
X58517724Y-68308385D01*
X62927517Y-68308385D01*
X62928222Y-68322470D01*
X62937101Y-68326000D01*
X64243885Y-68326000D01*
X64259124Y-68321525D01*
X64260329Y-68320135D01*
X64262000Y-68312452D01*
X64262000Y-68307885D01*
X64770000Y-68307885D01*
X64774475Y-68323124D01*
X64775865Y-68324329D01*
X64783548Y-68326000D01*
X66090597Y-68326000D01*
X66104128Y-68322027D01*
X66105488Y-68312569D01*
X66051183Y-68086376D01*
X66048134Y-68076991D01*
X65955064Y-67852300D01*
X65950583Y-67843506D01*
X65823504Y-67636133D01*
X65817711Y-67628160D01*
X65659751Y-67443213D01*
X65652787Y-67436249D01*
X65467840Y-67278289D01*
X65459867Y-67272496D01*
X65252494Y-67145417D01*
X65243700Y-67140936D01*
X65019009Y-67047866D01*
X65009624Y-67044817D01*
X64787615Y-66991517D01*
X64773530Y-66992222D01*
X64770000Y-67001101D01*
X64770000Y-68307885D01*
X64262000Y-68307885D01*
X64262000Y-67005403D01*
X64258027Y-66991872D01*
X64248569Y-66990512D01*
X64022376Y-67044817D01*
X64012991Y-67047866D01*
X63788300Y-67140936D01*
X63779506Y-67145417D01*
X63572133Y-67272496D01*
X63564160Y-67278289D01*
X63379213Y-67436249D01*
X63372249Y-67443213D01*
X63214289Y-67628160D01*
X63208496Y-67636133D01*
X63081417Y-67843506D01*
X63076936Y-67852300D01*
X62983866Y-68076991D01*
X62980817Y-68086376D01*
X62927517Y-68308385D01*
X58517724Y-68308385D01*
X58486818Y-68260612D01*
X58484014Y-68256277D01*
X58480540Y-68252459D01*
X58480533Y-68252450D01*
X58336435Y-68094088D01*
X58305383Y-68030242D01*
X58313779Y-67959744D01*
X58358956Y-67904976D01*
X58385400Y-67891307D01*
X58492052Y-67851325D01*
X58507649Y-67842786D01*
X58609724Y-67766285D01*
X58622285Y-67753724D01*
X58698786Y-67651649D01*
X58707324Y-67636054D01*
X58752478Y-67515606D01*
X58756105Y-67500351D01*
X58761631Y-67449486D01*
X58762000Y-67442672D01*
X58762000Y-66820115D01*
X58757525Y-66804876D01*
X58756135Y-66803671D01*
X58748452Y-66802000D01*
X56064116Y-66802000D01*
X56048877Y-66806475D01*
X56047672Y-66807865D01*
X56046001Y-66815548D01*
X56046001Y-67442669D01*
X56046371Y-67449490D01*
X56051895Y-67500352D01*
X56055521Y-67515604D01*
X56100676Y-67636054D01*
X56109214Y-67651649D01*
X56185715Y-67753724D01*
X56198276Y-67766285D01*
X56300351Y-67842786D01*
X56315946Y-67851324D01*
X56424827Y-67892142D01*
X56481591Y-67934784D01*
X56506291Y-68001345D01*
X56491083Y-68070694D01*
X56471691Y-68097175D01*
X56411016Y-68160668D01*
X56344629Y-68230138D01*
X56341715Y-68234410D01*
X56341714Y-68234411D01*
X56288661Y-68312184D01*
X56218743Y-68414680D01*
X56187397Y-68482209D01*
X56129249Y-68607480D01*
X56124688Y-68617305D01*
X56064989Y-68832570D01*
X56041251Y-69054695D01*
X56041548Y-69059848D01*
X56041548Y-69059851D01*
X56049646Y-69200294D01*
X56054110Y-69277715D01*
X56055247Y-69282761D01*
X56055248Y-69282767D01*
X56067946Y-69339110D01*
X56063410Y-69409962D01*
X56034124Y-69455906D01*
X54891480Y-70598550D01*
X54885215Y-70604404D01*
X54841615Y-70642439D01*
X54837248Y-70648653D01*
X54804872Y-70694719D01*
X54800939Y-70700014D01*
X54761524Y-70750282D01*
X54758401Y-70757198D01*
X54757017Y-70759484D01*
X54748643Y-70774165D01*
X54747378Y-70776525D01*
X54743010Y-70782739D01*
X54740250Y-70789818D01*
X54740249Y-70789820D01*
X54719798Y-70842275D01*
X54717247Y-70848344D01*
X54690955Y-70906573D01*
X54689571Y-70914040D01*
X54688770Y-70916595D01*
X54684141Y-70932848D01*
X54683478Y-70935428D01*
X54680718Y-70942509D01*
X54679727Y-70950040D01*
X54679726Y-70950042D01*
X54672379Y-71005852D01*
X54671348Y-71012359D01*
X54659704Y-71075186D01*
X54660141Y-71082766D01*
X54660141Y-71082767D01*
X54663291Y-71137392D01*
X54663500Y-71144646D01*
X54663500Y-93443088D01*
X54663208Y-93451658D01*
X54659275Y-93509352D01*
X49784500Y-93509352D01*
X49784500Y-66275885D01*
X56046000Y-66275885D01*
X56050475Y-66291124D01*
X56051865Y-66292329D01*
X56059548Y-66294000D01*
X57131885Y-66294000D01*
X57147124Y-66289525D01*
X57148329Y-66288135D01*
X57150000Y-66280452D01*
X57150000Y-66275885D01*
X57658000Y-66275885D01*
X57662475Y-66291124D01*
X57663865Y-66292329D01*
X57671548Y-66294000D01*
X58743884Y-66294000D01*
X58759123Y-66289525D01*
X58760328Y-66288135D01*
X58761999Y-66280452D01*
X58761999Y-65653331D01*
X58761629Y-65646510D01*
X58756105Y-65595648D01*
X58752479Y-65580396D01*
X58707324Y-65459946D01*
X58698786Y-65444351D01*
X58622285Y-65342276D01*
X58609724Y-65329715D01*
X58507649Y-65253214D01*
X58492054Y-65244676D01*
X58371606Y-65199522D01*
X58356351Y-65195895D01*
X58305486Y-65190369D01*
X58298672Y-65190000D01*
X57676115Y-65190000D01*
X57660876Y-65194475D01*
X57659671Y-65195865D01*
X57658000Y-65203548D01*
X57658000Y-66275885D01*
X57150000Y-66275885D01*
X57150000Y-65208116D01*
X57145525Y-65192877D01*
X57144135Y-65191672D01*
X57136452Y-65190001D01*
X56509331Y-65190001D01*
X56502510Y-65190371D01*
X56451648Y-65195895D01*
X56436396Y-65199521D01*
X56315946Y-65244676D01*
X56300351Y-65253214D01*
X56198276Y-65329715D01*
X56185715Y-65342276D01*
X56109214Y-65444351D01*
X56100676Y-65459946D01*
X56055522Y-65580394D01*
X56051895Y-65595649D01*
X56046369Y-65646514D01*
X56046000Y-65653328D01*
X56046000Y-66275885D01*
X49784500Y-66275885D01*
X49784500Y-58981250D01*
X49786246Y-58960345D01*
X49788770Y-58945344D01*
X49788770Y-58945341D01*
X49789576Y-58940552D01*
X49789729Y-58928000D01*
X49789039Y-58923179D01*
X49788157Y-58917019D01*
X49787206Y-58890172D01*
X49799364Y-58720175D01*
X49801922Y-58702380D01*
X49844298Y-58507580D01*
X49849360Y-58490339D01*
X49919032Y-58303545D01*
X49926493Y-58287210D01*
X50022033Y-58112242D01*
X50031752Y-58097118D01*
X50151218Y-57937531D01*
X50162991Y-57923945D01*
X50303945Y-57782991D01*
X50317531Y-57771218D01*
X50477118Y-57651752D01*
X50492242Y-57642033D01*
X50667210Y-57546493D01*
X50683545Y-57539032D01*
X50870339Y-57469360D01*
X50887580Y-57464298D01*
X51082380Y-57421922D01*
X51100174Y-57419364D01*
X51266601Y-57407461D01*
X51284561Y-57408207D01*
X51292846Y-57408308D01*
X51301724Y-57409691D01*
X51333286Y-57405564D01*
X51349621Y-57404500D01*
X148794633Y-57404500D01*
X148814018Y-57406000D01*
G37*
%TD.AperFunction*%
%TD*%
M02*
