M48
; DRILL file {KiCad (6.0.4)} date Wed Apr 13 05:55:12 2022
; FORMAT={-:-/ absolute / metric / decimal}
; #@! TF.CreationDate,2022-04-13T05:55:12+02:00
; #@! TF.GenerationSoftware,Kicad,Pcbnew,(6.0.4)
; #@! TF.FileFunction,MixedPlating,1,2
FMAT,2
METRIC
; #@! TA.AperFunction,Plated,PTH,ComponentDrill
T1C0.900
; #@! TA.AperFunction,Plated,PTH,ComponentDrill
T2C1.000
; #@! TA.AperFunction,Plated,PTH,ComponentDrill
T3C1.100
%
G90
G05
T1
X64.77Y-88.646
X64.77Y-96.266
X68.58Y-69.85
X68.58Y-77.47
X69.85Y-88.646
X69.85Y-96.266
X74.93Y-88.646
X74.93Y-96.266
X76.2Y-69.85
X76.2Y-77.47
X81.28Y-69.85
X81.28Y-77.47
X82.55Y-88.646
X82.55Y-96.266
X86.36Y-69.85
X86.36Y-77.47
X94.996Y-88.9
X94.996Y-96.52
X99.06Y-69.85
X99.06Y-77.47
X100.076Y-88.9
X100.076Y-96.52
X105.156Y-88.9
X105.156Y-96.52
X106.68Y-69.85
X106.68Y-77.47
X111.76Y-69.85
X111.76Y-77.47
X112.776Y-88.9
X112.776Y-96.52
X116.84Y-69.85
X116.84Y-77.47
X125.476Y-88.9
X125.476Y-96.52
X125.73Y-69.85
X125.73Y-77.47
X130.556Y-88.9
X130.556Y-96.52
X133.35Y-69.85
X133.35Y-77.47
X135.636Y-88.9
X135.636Y-96.52
X138.43Y-69.85
X138.43Y-77.47
X143.256Y-88.9
X143.256Y-96.52
X143.51Y-69.85
X143.51Y-77.47
T2
X57.404Y-66.548
X57.404Y-69.088
X57.429Y-76.479
X57.429Y-79.019
X57.429Y-81.559
X57.429Y-84.099
X57.429Y-86.639
X57.429Y-89.179
X96.52Y-102.641
X96.799Y-63.983
X99.06Y-102.641
X99.339Y-63.983
X101.6Y-102.641
X101.879Y-63.983
X104.14Y-102.641
X104.419Y-63.983
X106.68Y-102.641
X106.959Y-63.983
X109.22Y-102.641
X109.499Y-63.983
T3
X64.516Y-68.58
X64.516Y-78.74
X86.868Y-87.376
X86.868Y-97.536
X94.996Y-68.58
X94.996Y-78.74
X116.84Y-87.63
X116.84Y-97.79
X121.412Y-68.58
X121.412Y-78.74
X147.32Y-87.884
X147.32Y-98.044
T0
M30
