M48
; DRILL file {KiCad (6.0.4)} date Tue Jun 28 14:13:12 2022
; FORMAT={-:-/ absolute / metric / decimal}
; #@! TF.CreationDate,2022-06-28T14:13:12+02:00
; #@! TF.GenerationSoftware,Kicad,Pcbnew,(6.0.4)
; #@! TF.FileFunction,MixedPlating,1,2
FMAT,2
METRIC
; #@! TA.AperFunction,Plated,PTH,ComponentDrill
T1C0.800
; #@! TA.AperFunction,Plated,PTH,ComponentDrill
T2C1.000
; #@! TA.AperFunction,NonPlated,NPTH,ComponentDrill
T3C4.000
%
G90
G05
T1
X124.841Y-43.053
X132.461Y-46.223
X132.461Y-48.763
X132.461Y-51.303
X132.461Y-53.843
X132.461Y-56.383
X132.461Y-58.923
X132.461Y-61.463
X135.001Y-43.053
X137.16Y-43.053
X140.081Y-46.223
X140.081Y-48.763
X140.081Y-51.303
X140.081Y-53.843
X140.081Y-56.383
X140.081Y-58.923
X140.081Y-61.463
X147.32Y-43.053
T2
X127.762Y-46.888
X127.762Y-49.428
X127.762Y-57.277
X127.762Y-59.817
X127.762Y-62.357
X145.567Y-48.539
X145.567Y-51.079
X145.567Y-53.619
X145.567Y-56.159
X145.567Y-58.699
X145.567Y-61.239
T3
X124.866Y-53.442
T0
M30
