%TF.GenerationSoftware,KiCad,Pcbnew,(6.0.4)*%
%TF.CreationDate,2022-06-28T14:13:10+02:00*%
%TF.ProjectId,safety board opamp,73616665-7479-4206-926f-617264206f70,rev?*%
%TF.SameCoordinates,Original*%
%TF.FileFunction,Copper,L2,Bot*%
%TF.FilePolarity,Positive*%
%FSLAX46Y46*%
G04 Gerber Fmt 4.6, Leading zero omitted, Abs format (unit mm)*
G04 Created by KiCad (PCBNEW (6.0.4)) date 2022-06-28 14:13:10*
%MOMM*%
%LPD*%
G01*
G04 APERTURE LIST*
G04 Aperture macros list*
%AMRoundRect*
0 Rectangle with rounded corners*
0 $1 Rounding radius*
0 $2 $3 $4 $5 $6 $7 $8 $9 X,Y pos of 4 corners*
0 Add a 4 corners polygon primitive as box body*
4,1,4,$2,$3,$4,$5,$6,$7,$8,$9,$2,$3,0*
0 Add four circle primitives for the rounded corners*
1,1,$1+$1,$2,$3*
1,1,$1+$1,$4,$5*
1,1,$1+$1,$6,$7*
1,1,$1+$1,$8,$9*
0 Add four rect primitives between the rounded corners*
20,1,$1+$1,$2,$3,$4,$5,0*
20,1,$1+$1,$4,$5,$6,$7,0*
20,1,$1+$1,$6,$7,$8,$9,0*
20,1,$1+$1,$8,$9,$2,$3,0*%
G04 Aperture macros list end*
%TA.AperFunction,ComponentPad*%
%ADD10O,1.600000X1.600000*%
%TD*%
%TA.AperFunction,ComponentPad*%
%ADD11C,1.600000*%
%TD*%
%TA.AperFunction,SMDPad,CuDef*%
%ADD12RoundRect,0.250000X0.250000X0.475000X-0.250000X0.475000X-0.250000X-0.475000X0.250000X-0.475000X0*%
%TD*%
%TA.AperFunction,ComponentPad*%
%ADD13R,1.700000X1.700000*%
%TD*%
%TA.AperFunction,ComponentPad*%
%ADD14O,1.700000X1.700000*%
%TD*%
%TA.AperFunction,ComponentPad*%
%ADD15R,1.600000X1.600000*%
%TD*%
%TA.AperFunction,Conductor*%
%ADD16C,0.500000*%
%TD*%
G04 APERTURE END LIST*
D10*
%TO.P,R1,2*%
%TO.N,Vcomp*%
X135001000Y-43053000D03*
D11*
%TO.P,R1,1*%
%TO.N,+24V*%
X124841000Y-43053000D03*
%TD*%
D12*
%TO.P,C1,2*%
%TO.N,GND*%
X128275000Y-53721000D03*
%TO.P,C1,1*%
%TO.N,+24V*%
X130175000Y-53721000D03*
%TD*%
D13*
%TO.P,J1,1,Pin_1*%
%TO.N,Vplc_1*%
X145567000Y-48539000D03*
D14*
%TO.P,J1,2,Pin_2*%
%TO.N,Vinv_1*%
X145567000Y-51079000D03*
%TO.P,J1,3,Pin_3*%
%TO.N,Vplc_2*%
X145567000Y-53619000D03*
%TO.P,J1,4,Pin_4*%
%TO.N,Vinv_2*%
X145567000Y-56159000D03*
%TO.P,J1,5,Pin_5*%
%TO.N,Vplc_3*%
X145567000Y-58699000D03*
%TO.P,J1,6,Pin_6*%
%TO.N,Vinv_3*%
X145567000Y-61239000D03*
%TD*%
D10*
%TO.P,R2,2*%
%TO.N,GND*%
X147320000Y-43053000D03*
D11*
%TO.P,R2,1*%
%TO.N,Vcomp*%
X137160000Y-43053000D03*
%TD*%
D14*
%TO.P,J3,3,Pin_3*%
%TO.N,Vplc_3*%
X127762000Y-62357000D03*
%TO.P,J3,2,Pin_2*%
%TO.N,Vplc_2*%
X127762000Y-59817000D03*
D13*
%TO.P,J3,1,Pin_1*%
%TO.N,Vplc_1*%
X127762000Y-57277000D03*
%TD*%
D15*
%TO.P,U1,1*%
%TO.N,Vinv_1*%
X132461000Y-46223000D03*
D10*
%TO.P,U1,2,-*%
%TO.N,Vplc_1*%
X132461000Y-48763000D03*
%TO.P,U1,3,+*%
%TO.N,Vcomp*%
X132461000Y-51303000D03*
%TO.P,U1,4,V+*%
%TO.N,+24V*%
X132461000Y-53843000D03*
%TO.P,U1,5,+*%
%TO.N,Vcomp*%
X132461000Y-56383000D03*
%TO.P,U1,6,-*%
%TO.N,Vplc_2*%
X132461000Y-58923000D03*
%TO.P,U1,7*%
%TO.N,Vinv_2*%
X132461000Y-61463000D03*
%TO.P,U1,8*%
%TO.N,Vinv_3*%
X140081000Y-61463000D03*
%TO.P,U1,9,-*%
%TO.N,Vplc_3*%
X140081000Y-58923000D03*
%TO.P,U1,10,+*%
%TO.N,Vcomp*%
X140081000Y-56383000D03*
%TO.P,U1,11,V-*%
%TO.N,GND*%
X140081000Y-53843000D03*
%TO.P,U1,12,+*%
X140081000Y-51303000D03*
%TO.P,U1,13,-*%
X140081000Y-48763000D03*
%TO.P,U1,14*%
X140081000Y-46223000D03*
%TD*%
D14*
%TO.P,J2,2,Pin_2*%
%TO.N,+24V*%
X127762000Y-46888400D03*
D13*
%TO.P,J2,1,Pin_1*%
%TO.N,GND*%
X127762000Y-49428400D03*
%TD*%
D16*
%TO.N,+24V*%
X124841000Y-43053000D02*
X127762000Y-45974000D01*
X127762000Y-45974000D02*
X127762000Y-46888400D01*
X130251200Y-49377600D02*
X127762000Y-46888400D01*
X132461000Y-53843000D02*
X130251200Y-51633200D01*
X130251200Y-51633200D02*
X130251200Y-49377600D01*
%TO.N,Vplc_1*%
X133710511Y-54388169D02*
X133710511Y-50012511D01*
X133710511Y-50012511D02*
X132461000Y-48763000D01*
X129905511Y-55133489D02*
X132965191Y-55133489D01*
X127762000Y-57277000D02*
X129905511Y-55133489D01*
X132965191Y-55133489D02*
X133710511Y-54388169D01*
%TO.N,Vplc_2*%
X131567000Y-59817000D02*
X132461000Y-58923000D01*
X127762000Y-59817000D02*
X131567000Y-59817000D01*
%TO.N,Vplc_1*%
X125762969Y-59276031D02*
X127762000Y-57277000D01*
X127054238Y-64621038D02*
X125762969Y-63329769D01*
X145012019Y-64621038D02*
X127054238Y-64621038D01*
X147566030Y-50538030D02*
X147566030Y-62067027D01*
X147566030Y-62067027D02*
X145012019Y-64621038D01*
X125762969Y-63329769D02*
X125762969Y-59276031D01*
X145567000Y-48539000D02*
X147566030Y-50538030D01*
%TO.N,Vplc_2*%
X146866511Y-54918511D02*
X145567000Y-53619000D01*
X144722269Y-63921518D02*
X146866511Y-61777276D01*
X127421518Y-63921518D02*
X144722269Y-63921518D01*
X146866511Y-61777276D02*
X146866511Y-54918511D01*
X126462489Y-62962489D02*
X127421518Y-63921518D01*
X126462489Y-61116511D02*
X126462489Y-62962489D01*
X127762000Y-59817000D02*
X126462489Y-61116511D01*
%TO.N,Vplc_3*%
X135797000Y-63207000D02*
X140081000Y-58923000D01*
X127762000Y-62357000D02*
X128612000Y-63207000D01*
X128612000Y-63207000D02*
X135797000Y-63207000D01*
%TO.N,Vcomp*%
X131211489Y-44973489D02*
X131211489Y-50053489D01*
X133131978Y-43053000D02*
X131211489Y-44973489D01*
X133131978Y-43053000D02*
X137160000Y-43053000D01*
X137160000Y-43053000D02*
X135001000Y-43053000D01*
%TO.N,Vinv_1*%
X132964000Y-46223000D02*
X132461000Y-46223000D01*
X135192520Y-48451520D02*
X132964000Y-46223000D01*
X139293511Y-55092511D02*
X135192520Y-50991520D01*
X139598489Y-55092511D02*
X139293511Y-55092511D01*
X135192520Y-50991520D02*
X135192520Y-48451520D01*
%TO.N,Vcomp*%
X131211489Y-47960022D02*
X131211489Y-50053489D01*
X131673511Y-47498000D02*
X131211489Y-47960022D01*
X134493000Y-49027924D02*
X132963076Y-47498000D01*
X134493000Y-54610000D02*
X134493000Y-49027924D01*
X132720000Y-56383000D02*
X134493000Y-54610000D01*
X132963076Y-47498000D02*
X131673511Y-47498000D01*
X132461000Y-56383000D02*
X132720000Y-56383000D01*
%TO.N,+24V*%
X132339000Y-53721000D02*
X132461000Y-53843000D01*
X130175000Y-53721000D02*
X132339000Y-53721000D01*
%TO.N,Vinv_1*%
X139598489Y-55092511D02*
X139573000Y-55118000D01*
X145567000Y-51079000D02*
X141553489Y-55092511D01*
X141553489Y-55092511D02*
X139598489Y-55092511D01*
%TO.N,Vinv_2*%
X145567000Y-56159000D02*
X144093489Y-57632511D01*
X144093489Y-57632511D02*
X139598489Y-57632511D01*
X135768000Y-61463000D02*
X132461000Y-61463000D01*
X139598489Y-57632511D02*
X135768000Y-61463000D01*
%TO.N,Vplc_3*%
X140081000Y-58923000D02*
X145343000Y-58923000D01*
X145343000Y-58923000D02*
X145567000Y-58699000D01*
%TO.N,Vinv_3*%
X140081000Y-61463000D02*
X145343000Y-61463000D01*
X145343000Y-61463000D02*
X145567000Y-61239000D01*
%TO.N,Vcomp*%
X132461000Y-51303000D02*
X131211489Y-50053489D01*
X132461000Y-56383000D02*
X140081000Y-56383000D01*
%TD*%
%TA.AperFunction,Conductor*%
%TO.N,GND*%
G36*
X148734821Y-40533502D02*
G01*
X148781314Y-40587158D01*
X148792700Y-40639500D01*
X148792700Y-42547874D01*
X148772698Y-42615995D01*
X148719042Y-42662488D01*
X148648768Y-42672592D01*
X148584188Y-42643098D01*
X148552505Y-42601124D01*
X148459414Y-42401489D01*
X148453931Y-42391993D01*
X148328972Y-42213533D01*
X148321916Y-42205125D01*
X148167875Y-42051084D01*
X148159467Y-42044028D01*
X147981007Y-41919069D01*
X147971511Y-41913586D01*
X147774053Y-41821510D01*
X147763761Y-41817764D01*
X147591497Y-41771606D01*
X147577401Y-41771942D01*
X147574000Y-41779884D01*
X147574000Y-44320967D01*
X147577973Y-44334498D01*
X147586522Y-44335727D01*
X147763761Y-44288236D01*
X147774053Y-44284490D01*
X147971511Y-44192414D01*
X147981007Y-44186931D01*
X148159467Y-44061972D01*
X148167875Y-44054916D01*
X148321916Y-43900875D01*
X148328972Y-43892467D01*
X148453931Y-43714007D01*
X148459414Y-43704511D01*
X148552505Y-43504876D01*
X148599422Y-43451591D01*
X148667700Y-43432130D01*
X148735660Y-43452672D01*
X148781725Y-43506695D01*
X148792700Y-43558126D01*
X148792700Y-65024500D01*
X148772698Y-65092621D01*
X148719042Y-65139114D01*
X148666700Y-65150500D01*
X145859428Y-65150500D01*
X145791307Y-65130498D01*
X145744814Y-65076842D01*
X145734710Y-65006568D01*
X145764204Y-64941988D01*
X145770333Y-64935405D01*
X148054941Y-62650797D01*
X148069353Y-62638411D01*
X148080948Y-62629878D01*
X148080953Y-62629873D01*
X148086848Y-62625535D01*
X148091587Y-62619957D01*
X148091590Y-62619954D01*
X148121065Y-62585259D01*
X148127995Y-62577743D01*
X148133690Y-62572048D01*
X148151311Y-62549776D01*
X148154102Y-62546372D01*
X148196621Y-62496324D01*
X148196622Y-62496322D01*
X148201363Y-62490742D01*
X148204691Y-62484226D01*
X148208058Y-62479177D01*
X148211225Y-62474048D01*
X148215764Y-62468311D01*
X148246685Y-62402152D01*
X148248591Y-62398252D01*
X148281799Y-62333219D01*
X148283538Y-62326111D01*
X148285637Y-62320468D01*
X148287554Y-62314705D01*
X148290652Y-62308077D01*
X148305517Y-62236610D01*
X148306487Y-62232326D01*
X148322503Y-62166872D01*
X148323838Y-62161417D01*
X148324530Y-62150263D01*
X148324566Y-62150265D01*
X148324805Y-62146272D01*
X148325179Y-62142080D01*
X148326670Y-62134912D01*
X148324576Y-62057506D01*
X148324530Y-62054099D01*
X148324530Y-50605093D01*
X148325963Y-50586144D01*
X148328127Y-50571916D01*
X148329228Y-50564681D01*
X148324945Y-50512020D01*
X148324530Y-50501807D01*
X148324530Y-50493737D01*
X148324108Y-50490117D01*
X148324107Y-50490099D01*
X148321238Y-50465491D01*
X148320805Y-50461116D01*
X148315484Y-50395691D01*
X148315483Y-50395688D01*
X148314890Y-50388393D01*
X148312634Y-50381429D01*
X148311443Y-50375470D01*
X148310059Y-50369615D01*
X148309212Y-50362349D01*
X148284295Y-50293703D01*
X148282878Y-50289575D01*
X148262637Y-50227094D01*
X148262636Y-50227092D01*
X148260381Y-50220131D01*
X148256585Y-50213876D01*
X148254079Y-50208402D01*
X148251360Y-50202972D01*
X148248863Y-50196093D01*
X148208839Y-50135046D01*
X148206502Y-50131342D01*
X148171539Y-50073723D01*
X148171535Y-50073718D01*
X148168625Y-50068922D01*
X148161227Y-50060546D01*
X148161253Y-50060523D01*
X148158604Y-50057533D01*
X148155896Y-50054294D01*
X148151886Y-50048178D01*
X148146579Y-50043151D01*
X148146576Y-50043147D01*
X148095647Y-49994902D01*
X148093205Y-49992524D01*
X146962405Y-48861724D01*
X146928379Y-48799412D01*
X146925500Y-48772629D01*
X146925500Y-47640866D01*
X146918745Y-47578684D01*
X146867615Y-47442295D01*
X146780261Y-47325739D01*
X146663705Y-47238385D01*
X146527316Y-47187255D01*
X146465134Y-47180500D01*
X144668866Y-47180500D01*
X144606684Y-47187255D01*
X144470295Y-47238385D01*
X144353739Y-47325739D01*
X144266385Y-47442295D01*
X144215255Y-47578684D01*
X144208500Y-47640866D01*
X144208500Y-49437134D01*
X144215255Y-49499316D01*
X144266385Y-49635705D01*
X144353739Y-49752261D01*
X144470295Y-49839615D01*
X144478704Y-49842767D01*
X144478705Y-49842768D01*
X144587451Y-49883535D01*
X144644216Y-49926176D01*
X144668916Y-49992738D01*
X144653709Y-50062087D01*
X144634316Y-50088568D01*
X144531563Y-50196093D01*
X144507629Y-50221138D01*
X144504715Y-50225410D01*
X144504714Y-50225411D01*
X144438096Y-50323069D01*
X144381743Y-50405680D01*
X144339174Y-50497388D01*
X144297975Y-50586144D01*
X144287688Y-50608305D01*
X144227989Y-50823570D01*
X144204251Y-51045695D01*
X144217110Y-51268715D01*
X144218247Y-51273760D01*
X144218966Y-51278877D01*
X144217518Y-51279081D01*
X144213398Y-51343274D01*
X144184119Y-51389200D01*
X141499981Y-54073338D01*
X141437669Y-54107364D01*
X141361288Y-54100071D01*
X141354116Y-54097000D01*
X139953000Y-54097000D01*
X139884879Y-54076998D01*
X139838386Y-54023342D01*
X139827000Y-53971000D01*
X139827000Y-53570885D01*
X140335000Y-53570885D01*
X140339475Y-53586124D01*
X140340865Y-53587329D01*
X140348548Y-53589000D01*
X141348967Y-53589000D01*
X141362498Y-53585027D01*
X141363727Y-53576478D01*
X141316236Y-53399239D01*
X141312490Y-53388947D01*
X141220414Y-53191489D01*
X141214931Y-53181993D01*
X141089972Y-53003533D01*
X141082916Y-52995125D01*
X140928875Y-52841084D01*
X140920467Y-52834028D01*
X140742007Y-52709069D01*
X140732511Y-52703586D01*
X140697359Y-52687195D01*
X140644074Y-52640278D01*
X140624613Y-52572001D01*
X140645155Y-52504041D01*
X140697359Y-52458805D01*
X140732511Y-52442414D01*
X140742007Y-52436931D01*
X140920467Y-52311972D01*
X140928875Y-52304916D01*
X141082916Y-52150875D01*
X141089972Y-52142467D01*
X141214931Y-51964007D01*
X141220414Y-51954511D01*
X141312490Y-51757053D01*
X141316236Y-51746761D01*
X141362394Y-51574497D01*
X141362058Y-51560401D01*
X141354116Y-51557000D01*
X140353115Y-51557000D01*
X140337876Y-51561475D01*
X140336671Y-51562865D01*
X140335000Y-51570548D01*
X140335000Y-53570885D01*
X139827000Y-53570885D01*
X139827000Y-51575115D01*
X139822525Y-51559876D01*
X139821135Y-51558671D01*
X139813452Y-51557000D01*
X138813033Y-51557000D01*
X138799502Y-51560973D01*
X138798273Y-51569522D01*
X138845764Y-51746761D01*
X138849510Y-51757053D01*
X138941586Y-51954511D01*
X138947069Y-51964007D01*
X139072028Y-52142467D01*
X139079084Y-52150875D01*
X139233125Y-52304916D01*
X139241533Y-52311972D01*
X139419993Y-52436931D01*
X139429489Y-52442414D01*
X139464641Y-52458805D01*
X139517926Y-52505722D01*
X139537387Y-52573999D01*
X139516845Y-52641959D01*
X139464641Y-52687195D01*
X139429489Y-52703586D01*
X139419993Y-52709069D01*
X139241533Y-52834028D01*
X139233125Y-52841084D01*
X139079084Y-52995125D01*
X139072028Y-53003533D01*
X138947069Y-53181993D01*
X138941586Y-53191489D01*
X138866127Y-53353311D01*
X138819209Y-53406596D01*
X138750932Y-53426057D01*
X138682972Y-53405515D01*
X138662837Y-53389156D01*
X135987925Y-50714244D01*
X135953899Y-50651932D01*
X135951020Y-50625149D01*
X135951020Y-49029522D01*
X138798273Y-49029522D01*
X138845764Y-49206761D01*
X138849510Y-49217053D01*
X138941586Y-49414511D01*
X138947069Y-49424007D01*
X139072028Y-49602467D01*
X139079084Y-49610875D01*
X139233125Y-49764916D01*
X139241533Y-49771972D01*
X139419993Y-49896931D01*
X139429489Y-49902414D01*
X139464641Y-49918805D01*
X139517926Y-49965722D01*
X139537387Y-50033999D01*
X139516845Y-50101959D01*
X139464641Y-50147195D01*
X139429489Y-50163586D01*
X139419993Y-50169069D01*
X139241533Y-50294028D01*
X139233125Y-50301084D01*
X139079084Y-50455125D01*
X139072028Y-50463533D01*
X138947069Y-50641993D01*
X138941586Y-50651489D01*
X138849510Y-50848947D01*
X138845764Y-50859239D01*
X138799606Y-51031503D01*
X138799942Y-51045599D01*
X138807884Y-51049000D01*
X139808885Y-51049000D01*
X139824124Y-51044525D01*
X139825329Y-51043135D01*
X139827000Y-51035452D01*
X139827000Y-51030885D01*
X140335000Y-51030885D01*
X140339475Y-51046124D01*
X140340865Y-51047329D01*
X140348548Y-51049000D01*
X141348967Y-51049000D01*
X141362498Y-51045027D01*
X141363727Y-51036478D01*
X141316236Y-50859239D01*
X141312490Y-50848947D01*
X141220414Y-50651489D01*
X141214931Y-50641993D01*
X141089972Y-50463533D01*
X141082916Y-50455125D01*
X140928875Y-50301084D01*
X140920467Y-50294028D01*
X140742007Y-50169069D01*
X140732511Y-50163586D01*
X140697359Y-50147195D01*
X140644074Y-50100278D01*
X140624613Y-50032001D01*
X140645155Y-49964041D01*
X140697359Y-49918805D01*
X140732511Y-49902414D01*
X140742007Y-49896931D01*
X140920467Y-49771972D01*
X140928875Y-49764916D01*
X141082916Y-49610875D01*
X141089972Y-49602467D01*
X141214931Y-49424007D01*
X141220414Y-49414511D01*
X141312490Y-49217053D01*
X141316236Y-49206761D01*
X141362394Y-49034497D01*
X141362058Y-49020401D01*
X141354116Y-49017000D01*
X140353115Y-49017000D01*
X140337876Y-49021475D01*
X140336671Y-49022865D01*
X140335000Y-49030548D01*
X140335000Y-51030885D01*
X139827000Y-51030885D01*
X139827000Y-49035115D01*
X139822525Y-49019876D01*
X139821135Y-49018671D01*
X139813452Y-49017000D01*
X138813033Y-49017000D01*
X138799502Y-49020973D01*
X138798273Y-49029522D01*
X135951020Y-49029522D01*
X135951020Y-48518589D01*
X135952453Y-48499638D01*
X135954619Y-48485403D01*
X135954619Y-48485401D01*
X135955719Y-48478171D01*
X135951435Y-48425502D01*
X135951020Y-48415287D01*
X135951020Y-48407227D01*
X135947731Y-48379013D01*
X135947298Y-48374638D01*
X135941974Y-48309181D01*
X135941973Y-48309178D01*
X135941380Y-48301883D01*
X135939124Y-48294919D01*
X135937933Y-48288960D01*
X135936549Y-48283105D01*
X135935702Y-48275839D01*
X135910785Y-48207193D01*
X135909368Y-48203065D01*
X135889127Y-48140584D01*
X135889126Y-48140582D01*
X135886871Y-48133621D01*
X135883075Y-48127366D01*
X135880569Y-48121892D01*
X135877850Y-48116462D01*
X135875353Y-48109583D01*
X135835329Y-48048536D01*
X135832992Y-48044832D01*
X135798029Y-47987213D01*
X135798025Y-47987208D01*
X135795115Y-47982412D01*
X135787717Y-47974036D01*
X135787743Y-47974013D01*
X135785094Y-47971023D01*
X135782386Y-47967784D01*
X135778376Y-47961668D01*
X135773069Y-47956641D01*
X135773066Y-47956637D01*
X135722137Y-47908392D01*
X135719695Y-47906014D01*
X134303203Y-46489522D01*
X138798273Y-46489522D01*
X138845764Y-46666761D01*
X138849510Y-46677053D01*
X138941586Y-46874511D01*
X138947069Y-46884007D01*
X139072028Y-47062467D01*
X139079084Y-47070875D01*
X139233125Y-47224916D01*
X139241533Y-47231972D01*
X139419993Y-47356931D01*
X139429489Y-47362414D01*
X139464641Y-47378805D01*
X139517926Y-47425722D01*
X139537387Y-47493999D01*
X139516845Y-47561959D01*
X139464641Y-47607195D01*
X139429489Y-47623586D01*
X139419993Y-47629069D01*
X139241533Y-47754028D01*
X139233125Y-47761084D01*
X139079084Y-47915125D01*
X139072028Y-47923533D01*
X138947069Y-48101993D01*
X138941586Y-48111489D01*
X138849510Y-48308947D01*
X138845764Y-48319239D01*
X138799606Y-48491503D01*
X138799942Y-48505599D01*
X138807884Y-48509000D01*
X139808885Y-48509000D01*
X139824124Y-48504525D01*
X139825329Y-48503135D01*
X139827000Y-48495452D01*
X139827000Y-48490885D01*
X140335000Y-48490885D01*
X140339475Y-48506124D01*
X140340865Y-48507329D01*
X140348548Y-48509000D01*
X141348967Y-48509000D01*
X141362498Y-48505027D01*
X141363727Y-48496478D01*
X141316236Y-48319239D01*
X141312490Y-48308947D01*
X141220414Y-48111489D01*
X141214931Y-48101993D01*
X141089972Y-47923533D01*
X141082916Y-47915125D01*
X140928875Y-47761084D01*
X140920467Y-47754028D01*
X140742007Y-47629069D01*
X140732511Y-47623586D01*
X140697359Y-47607195D01*
X140644074Y-47560278D01*
X140624613Y-47492001D01*
X140645155Y-47424041D01*
X140697359Y-47378805D01*
X140732511Y-47362414D01*
X140742007Y-47356931D01*
X140920467Y-47231972D01*
X140928875Y-47224916D01*
X141082916Y-47070875D01*
X141089972Y-47062467D01*
X141214931Y-46884007D01*
X141220414Y-46874511D01*
X141312490Y-46677053D01*
X141316236Y-46666761D01*
X141362394Y-46494497D01*
X141362058Y-46480401D01*
X141354116Y-46477000D01*
X140353115Y-46477000D01*
X140337876Y-46481475D01*
X140336671Y-46482865D01*
X140335000Y-46490548D01*
X140335000Y-48490885D01*
X139827000Y-48490885D01*
X139827000Y-46495115D01*
X139822525Y-46479876D01*
X139821135Y-46478671D01*
X139813452Y-46477000D01*
X138813033Y-46477000D01*
X138799502Y-46480973D01*
X138798273Y-46489522D01*
X134303203Y-46489522D01*
X133806405Y-45992724D01*
X133783896Y-45951503D01*
X138799606Y-45951503D01*
X138799942Y-45965599D01*
X138807884Y-45969000D01*
X139808885Y-45969000D01*
X139824124Y-45964525D01*
X139825329Y-45963135D01*
X139827000Y-45955452D01*
X139827000Y-45950885D01*
X140335000Y-45950885D01*
X140339475Y-45966124D01*
X140340865Y-45967329D01*
X140348548Y-45969000D01*
X141348967Y-45969000D01*
X141362498Y-45965027D01*
X141363727Y-45956478D01*
X141316236Y-45779239D01*
X141312490Y-45768947D01*
X141220414Y-45571489D01*
X141214931Y-45561993D01*
X141089972Y-45383533D01*
X141082916Y-45375125D01*
X140928875Y-45221084D01*
X140920467Y-45214028D01*
X140742007Y-45089069D01*
X140732511Y-45083586D01*
X140535053Y-44991510D01*
X140524761Y-44987764D01*
X140352497Y-44941606D01*
X140338401Y-44941942D01*
X140335000Y-44949884D01*
X140335000Y-45950885D01*
X139827000Y-45950885D01*
X139827000Y-44955033D01*
X139823027Y-44941502D01*
X139814478Y-44940273D01*
X139637239Y-44987764D01*
X139626947Y-44991510D01*
X139429489Y-45083586D01*
X139419993Y-45089069D01*
X139241533Y-45214028D01*
X139233125Y-45221084D01*
X139079084Y-45375125D01*
X139072028Y-45383533D01*
X138947069Y-45561993D01*
X138941586Y-45571489D01*
X138849510Y-45768947D01*
X138845764Y-45779239D01*
X138799606Y-45951503D01*
X133783896Y-45951503D01*
X133772379Y-45930412D01*
X133769500Y-45903629D01*
X133769500Y-45374866D01*
X133762745Y-45312684D01*
X133711615Y-45176295D01*
X133624261Y-45059739D01*
X133507705Y-44972385D01*
X133371316Y-44921255D01*
X133309134Y-44914500D01*
X132647349Y-44914500D01*
X132579228Y-44894498D01*
X132532735Y-44840842D01*
X132522631Y-44770568D01*
X132552125Y-44705988D01*
X132558254Y-44699405D01*
X133409254Y-43848405D01*
X133471566Y-43814379D01*
X133498349Y-43811500D01*
X133869133Y-43811500D01*
X133937254Y-43831502D01*
X133972345Y-43865228D01*
X133994802Y-43897300D01*
X134156700Y-44059198D01*
X134161208Y-44062355D01*
X134161211Y-44062357D01*
X134239389Y-44117098D01*
X134344251Y-44190523D01*
X134349233Y-44192846D01*
X134349238Y-44192849D01*
X134545765Y-44284490D01*
X134551757Y-44287284D01*
X134557065Y-44288706D01*
X134557067Y-44288707D01*
X134767598Y-44345119D01*
X134767600Y-44345119D01*
X134772913Y-44346543D01*
X135001000Y-44366498D01*
X135229087Y-44346543D01*
X135234400Y-44345119D01*
X135234402Y-44345119D01*
X135444933Y-44288707D01*
X135444935Y-44288706D01*
X135450243Y-44287284D01*
X135456235Y-44284490D01*
X135652762Y-44192849D01*
X135652767Y-44192846D01*
X135657749Y-44190523D01*
X135762611Y-44117098D01*
X135840789Y-44062357D01*
X135840792Y-44062355D01*
X135845300Y-44059198D01*
X135991405Y-43913093D01*
X136053717Y-43879067D01*
X136124532Y-43884132D01*
X136169595Y-43913093D01*
X136315700Y-44059198D01*
X136320208Y-44062355D01*
X136320211Y-44062357D01*
X136398389Y-44117098D01*
X136503251Y-44190523D01*
X136508233Y-44192846D01*
X136508238Y-44192849D01*
X136704765Y-44284490D01*
X136710757Y-44287284D01*
X136716065Y-44288706D01*
X136716067Y-44288707D01*
X136926598Y-44345119D01*
X136926600Y-44345119D01*
X136931913Y-44346543D01*
X137160000Y-44366498D01*
X137388087Y-44346543D01*
X137393400Y-44345119D01*
X137393402Y-44345119D01*
X137603933Y-44288707D01*
X137603935Y-44288706D01*
X137609243Y-44287284D01*
X137615235Y-44284490D01*
X137811762Y-44192849D01*
X137811767Y-44192846D01*
X137816749Y-44190523D01*
X137921611Y-44117098D01*
X137999789Y-44062357D01*
X137999792Y-44062355D01*
X138004300Y-44059198D01*
X138166198Y-43897300D01*
X138175419Y-43884132D01*
X138294366Y-43714257D01*
X138297523Y-43709749D01*
X138299846Y-43704767D01*
X138299849Y-43704762D01*
X138391961Y-43507225D01*
X138391961Y-43507224D01*
X138394284Y-43502243D01*
X138443244Y-43319522D01*
X146037273Y-43319522D01*
X146084764Y-43496761D01*
X146088510Y-43507053D01*
X146180586Y-43704511D01*
X146186069Y-43714007D01*
X146311028Y-43892467D01*
X146318084Y-43900875D01*
X146472125Y-44054916D01*
X146480533Y-44061972D01*
X146658993Y-44186931D01*
X146668489Y-44192414D01*
X146865947Y-44284490D01*
X146876239Y-44288236D01*
X147048503Y-44334394D01*
X147062599Y-44334058D01*
X147066000Y-44326116D01*
X147066000Y-43325115D01*
X147061525Y-43309876D01*
X147060135Y-43308671D01*
X147052452Y-43307000D01*
X146052033Y-43307000D01*
X146038502Y-43310973D01*
X146037273Y-43319522D01*
X138443244Y-43319522D01*
X138453543Y-43281087D01*
X138473498Y-43053000D01*
X138453543Y-42824913D01*
X138445028Y-42793135D01*
X138441911Y-42781503D01*
X146038606Y-42781503D01*
X146038942Y-42795599D01*
X146046884Y-42799000D01*
X147047885Y-42799000D01*
X147063124Y-42794525D01*
X147064329Y-42793135D01*
X147066000Y-42785452D01*
X147066000Y-41785033D01*
X147062027Y-41771502D01*
X147053478Y-41770273D01*
X146876239Y-41817764D01*
X146865947Y-41821510D01*
X146668489Y-41913586D01*
X146658993Y-41919069D01*
X146480533Y-42044028D01*
X146472125Y-42051084D01*
X146318084Y-42205125D01*
X146311028Y-42213533D01*
X146186069Y-42391993D01*
X146180586Y-42401489D01*
X146088510Y-42598947D01*
X146084764Y-42609239D01*
X146038606Y-42781503D01*
X138441911Y-42781503D01*
X138395707Y-42609067D01*
X138395706Y-42609065D01*
X138394284Y-42603757D01*
X138357372Y-42524598D01*
X138299849Y-42401238D01*
X138299846Y-42401233D01*
X138297523Y-42396251D01*
X138178965Y-42226933D01*
X138169357Y-42213211D01*
X138169355Y-42213208D01*
X138166198Y-42208700D01*
X138004300Y-42046802D01*
X137999792Y-42043645D01*
X137999789Y-42043643D01*
X137921611Y-41988902D01*
X137816749Y-41915477D01*
X137811767Y-41913154D01*
X137811762Y-41913151D01*
X137614225Y-41821039D01*
X137614224Y-41821039D01*
X137609243Y-41818716D01*
X137603935Y-41817294D01*
X137603933Y-41817293D01*
X137393402Y-41760881D01*
X137393400Y-41760881D01*
X137388087Y-41759457D01*
X137160000Y-41739502D01*
X136931913Y-41759457D01*
X136926600Y-41760881D01*
X136926598Y-41760881D01*
X136716067Y-41817293D01*
X136716065Y-41817294D01*
X136710757Y-41818716D01*
X136705776Y-41821039D01*
X136705775Y-41821039D01*
X136508238Y-41913151D01*
X136508233Y-41913154D01*
X136503251Y-41915477D01*
X136398389Y-41988902D01*
X136320211Y-42043643D01*
X136320208Y-42043645D01*
X136315700Y-42046802D01*
X136169595Y-42192907D01*
X136107283Y-42226933D01*
X136036468Y-42221868D01*
X135991405Y-42192907D01*
X135845300Y-42046802D01*
X135840792Y-42043645D01*
X135840789Y-42043643D01*
X135762611Y-41988902D01*
X135657749Y-41915477D01*
X135652767Y-41913154D01*
X135652762Y-41913151D01*
X135455225Y-41821039D01*
X135455224Y-41821039D01*
X135450243Y-41818716D01*
X135444935Y-41817294D01*
X135444933Y-41817293D01*
X135234402Y-41760881D01*
X135234400Y-41760881D01*
X135229087Y-41759457D01*
X135001000Y-41739502D01*
X134772913Y-41759457D01*
X134767600Y-41760881D01*
X134767598Y-41760881D01*
X134557067Y-41817293D01*
X134557065Y-41817294D01*
X134551757Y-41818716D01*
X134546776Y-41821039D01*
X134546775Y-41821039D01*
X134349238Y-41913151D01*
X134349233Y-41913154D01*
X134344251Y-41915477D01*
X134239389Y-41988902D01*
X134161211Y-42043643D01*
X134161208Y-42043645D01*
X134156700Y-42046802D01*
X133994802Y-42208700D01*
X133972345Y-42240771D01*
X133916890Y-42285099D01*
X133869133Y-42294500D01*
X133199048Y-42294500D01*
X133180098Y-42293067D01*
X133165863Y-42290901D01*
X133165859Y-42290901D01*
X133158629Y-42289801D01*
X133151337Y-42290394D01*
X133151334Y-42290394D01*
X133105960Y-42294085D01*
X133095745Y-42294500D01*
X133087685Y-42294500D01*
X133084051Y-42294924D01*
X133084045Y-42294924D01*
X133071020Y-42296443D01*
X133059458Y-42297791D01*
X133055110Y-42298221D01*
X133033037Y-42300016D01*
X132989640Y-42303546D01*
X132989637Y-42303547D01*
X132982342Y-42304140D01*
X132975378Y-42306396D01*
X132969439Y-42307583D01*
X132963568Y-42308970D01*
X132956297Y-42309818D01*
X132949421Y-42312314D01*
X132949412Y-42312316D01*
X132887680Y-42334725D01*
X132883576Y-42336135D01*
X132814079Y-42358648D01*
X132807824Y-42362444D01*
X132802365Y-42364943D01*
X132796917Y-42367671D01*
X132790041Y-42370167D01*
X132728988Y-42410195D01*
X132725315Y-42412513D01*
X132662871Y-42450405D01*
X132654495Y-42457802D01*
X132654471Y-42457775D01*
X132651477Y-42460430D01*
X132648246Y-42463132D01*
X132642126Y-42467144D01*
X132637094Y-42472456D01*
X132588850Y-42523383D01*
X132586472Y-42525825D01*
X130722578Y-44389719D01*
X130708166Y-44402105D01*
X130696571Y-44410638D01*
X130696566Y-44410643D01*
X130690671Y-44414981D01*
X130685932Y-44420559D01*
X130685929Y-44420562D01*
X130656454Y-44455257D01*
X130649524Y-44462773D01*
X130643829Y-44468468D01*
X130641549Y-44471350D01*
X130626208Y-44490740D01*
X130623417Y-44494144D01*
X130580898Y-44544192D01*
X130576156Y-44549774D01*
X130572828Y-44556290D01*
X130569461Y-44561339D01*
X130566294Y-44566468D01*
X130561755Y-44572205D01*
X130530834Y-44638364D01*
X130528931Y-44642258D01*
X130495720Y-44707297D01*
X130493981Y-44714405D01*
X130491882Y-44720048D01*
X130489965Y-44725811D01*
X130486867Y-44732439D01*
X130485377Y-44739601D01*
X130485377Y-44739602D01*
X130472003Y-44803901D01*
X130471033Y-44808185D01*
X130453681Y-44879099D01*
X130452989Y-44890253D01*
X130452953Y-44890251D01*
X130452714Y-44894244D01*
X130452340Y-44898436D01*
X130450849Y-44905604D01*
X130451047Y-44912921D01*
X130452943Y-44983010D01*
X130452989Y-44986417D01*
X130452989Y-47872081D01*
X130452490Y-47883282D01*
X130452339Y-47884972D01*
X130450849Y-47892137D01*
X130452594Y-47956637D01*
X130452943Y-47969543D01*
X130452989Y-47972950D01*
X130452989Y-48202518D01*
X130432987Y-48270639D01*
X130379331Y-48317132D01*
X130309057Y-48327236D01*
X130244477Y-48297742D01*
X130237894Y-48291613D01*
X129141609Y-47195328D01*
X129107583Y-47133016D01*
X129105782Y-47089789D01*
X129123529Y-46954990D01*
X129125156Y-46888400D01*
X129106852Y-46665761D01*
X129052431Y-46449102D01*
X128963354Y-46244240D01*
X128842014Y-46056677D01*
X128691670Y-45891451D01*
X128687619Y-45888252D01*
X128687615Y-45888248D01*
X128520419Y-45756204D01*
X128520416Y-45756202D01*
X128516359Y-45752998D01*
X128515846Y-45752715D01*
X128471032Y-45699381D01*
X128466561Y-45687617D01*
X128458607Y-45663063D01*
X128458605Y-45663058D01*
X128456351Y-45656101D01*
X128452556Y-45649847D01*
X128450049Y-45644372D01*
X128447330Y-45638942D01*
X128444833Y-45632063D01*
X128404814Y-45571024D01*
X128402467Y-45567305D01*
X128399244Y-45561993D01*
X128364595Y-45504893D01*
X128357197Y-45496516D01*
X128357224Y-45496492D01*
X128354571Y-45493500D01*
X128351868Y-45490267D01*
X128347856Y-45484148D01*
X128291617Y-45430872D01*
X128289175Y-45428494D01*
X126176671Y-43315990D01*
X126142645Y-43253678D01*
X126140245Y-43215913D01*
X126154019Y-43058475D01*
X126154498Y-43053000D01*
X126134543Y-42824913D01*
X126126028Y-42793135D01*
X126076707Y-42609067D01*
X126076706Y-42609065D01*
X126075284Y-42603757D01*
X126038372Y-42524598D01*
X125980849Y-42401238D01*
X125980846Y-42401233D01*
X125978523Y-42396251D01*
X125859965Y-42226933D01*
X125850357Y-42213211D01*
X125850355Y-42213208D01*
X125847198Y-42208700D01*
X125685300Y-42046802D01*
X125680792Y-42043645D01*
X125680789Y-42043643D01*
X125602611Y-41988902D01*
X125497749Y-41915477D01*
X125492767Y-41913154D01*
X125492762Y-41913151D01*
X125295225Y-41821039D01*
X125295224Y-41821039D01*
X125290243Y-41818716D01*
X125284935Y-41817294D01*
X125284933Y-41817293D01*
X125074402Y-41760881D01*
X125074400Y-41760881D01*
X125069087Y-41759457D01*
X124841000Y-41739502D01*
X124612913Y-41759457D01*
X124607600Y-41760881D01*
X124607598Y-41760881D01*
X124397067Y-41817293D01*
X124397065Y-41817294D01*
X124391757Y-41818716D01*
X124386776Y-41821039D01*
X124386775Y-41821039D01*
X124189238Y-41913151D01*
X124189233Y-41913154D01*
X124184251Y-41915477D01*
X124079389Y-41988902D01*
X124001211Y-42043643D01*
X124001208Y-42043645D01*
X123996700Y-42046802D01*
X123834802Y-42208700D01*
X123831645Y-42213208D01*
X123831643Y-42213211D01*
X123822035Y-42226933D01*
X123703477Y-42396251D01*
X123701154Y-42401233D01*
X123701151Y-42401238D01*
X123643628Y-42524598D01*
X123606716Y-42603757D01*
X123605294Y-42609065D01*
X123605293Y-42609067D01*
X123555972Y-42793135D01*
X123547457Y-42824913D01*
X123527502Y-43053000D01*
X123547457Y-43281087D01*
X123606716Y-43502243D01*
X123609039Y-43507224D01*
X123609039Y-43507225D01*
X123701151Y-43704762D01*
X123701154Y-43704767D01*
X123703477Y-43709749D01*
X123706634Y-43714257D01*
X123825582Y-43884132D01*
X123834802Y-43897300D01*
X123996700Y-44059198D01*
X124001208Y-44062355D01*
X124001211Y-44062357D01*
X124079389Y-44117098D01*
X124184251Y-44190523D01*
X124189233Y-44192846D01*
X124189238Y-44192849D01*
X124385765Y-44284490D01*
X124391757Y-44287284D01*
X124397065Y-44288706D01*
X124397067Y-44288707D01*
X124607598Y-44345119D01*
X124607600Y-44345119D01*
X124612913Y-44346543D01*
X124841000Y-44366498D01*
X124846475Y-44366019D01*
X125003913Y-44352245D01*
X125073518Y-44366234D01*
X125103990Y-44388671D01*
X126646322Y-45931003D01*
X126680348Y-45993315D01*
X126675283Y-46064130D01*
X126661315Y-46091102D01*
X126576743Y-46215080D01*
X126482688Y-46417705D01*
X126422989Y-46632970D01*
X126399251Y-46855095D01*
X126399548Y-46860248D01*
X126399548Y-46860251D01*
X126405011Y-46954990D01*
X126412110Y-47078115D01*
X126413247Y-47083161D01*
X126413248Y-47083167D01*
X126428624Y-47151391D01*
X126461222Y-47296039D01*
X126488174Y-47362414D01*
X126541605Y-47493999D01*
X126545266Y-47503016D01*
X126547965Y-47507420D01*
X126627659Y-47637469D01*
X126661987Y-47693488D01*
X126808250Y-47862338D01*
X126812225Y-47865638D01*
X126812231Y-47865644D01*
X126817425Y-47869956D01*
X126857059Y-47928860D01*
X126858555Y-47999841D01*
X126821439Y-48060362D01*
X126781168Y-48084880D01*
X126673946Y-48125076D01*
X126658351Y-48133614D01*
X126556276Y-48210115D01*
X126543715Y-48222676D01*
X126467214Y-48324751D01*
X126458676Y-48340346D01*
X126413522Y-48460794D01*
X126409895Y-48476049D01*
X126404369Y-48526914D01*
X126404000Y-48533728D01*
X126404000Y-49156285D01*
X126408475Y-49171524D01*
X126409865Y-49172729D01*
X126417548Y-49174400D01*
X127890000Y-49174400D01*
X127958121Y-49194402D01*
X128004614Y-49248058D01*
X128016000Y-49300400D01*
X128016000Y-50768284D01*
X128020475Y-50783523D01*
X128021865Y-50784728D01*
X128029548Y-50786399D01*
X128656669Y-50786399D01*
X128663490Y-50786029D01*
X128714352Y-50780505D01*
X128729604Y-50776879D01*
X128850054Y-50731724D01*
X128865649Y-50723186D01*
X128967724Y-50646685D01*
X128980285Y-50634124D01*
X129056786Y-50532049D01*
X129065324Y-50516454D01*
X129110478Y-50396006D01*
X129114105Y-50380751D01*
X129119631Y-50329886D01*
X129120000Y-50323072D01*
X129119999Y-49623270D01*
X129140001Y-49555149D01*
X129193657Y-49508656D01*
X129263930Y-49498552D01*
X129328511Y-49528045D01*
X129335094Y-49534175D01*
X129455795Y-49654876D01*
X129489821Y-49717188D01*
X129492700Y-49743971D01*
X129492700Y-51566130D01*
X129491267Y-51585080D01*
X129488001Y-51606549D01*
X129488594Y-51613841D01*
X129488594Y-51613844D01*
X129492285Y-51659218D01*
X129492700Y-51669433D01*
X129492700Y-51677493D01*
X129493125Y-51681137D01*
X129495989Y-51705707D01*
X129496422Y-51710082D01*
X129500243Y-51757053D01*
X129502340Y-51782837D01*
X129504596Y-51789801D01*
X129505787Y-51795760D01*
X129507171Y-51801615D01*
X129508018Y-51808881D01*
X129532935Y-51877527D01*
X129534352Y-51881655D01*
X129553589Y-51941035D01*
X129556849Y-51951099D01*
X129560645Y-51957354D01*
X129563151Y-51962828D01*
X129565870Y-51968258D01*
X129568367Y-51975137D01*
X129572380Y-51981257D01*
X129572380Y-51981258D01*
X129608386Y-52036176D01*
X129610723Y-52039880D01*
X129648605Y-52102307D01*
X129652321Y-52106515D01*
X129652322Y-52106516D01*
X129656003Y-52110684D01*
X129655976Y-52110708D01*
X129658629Y-52113700D01*
X129661332Y-52116933D01*
X129665344Y-52123052D01*
X129685839Y-52142467D01*
X129721583Y-52176328D01*
X129724025Y-52178706D01*
X129832133Y-52286814D01*
X129866159Y-52349126D01*
X129861094Y-52419941D01*
X129818547Y-52476777D01*
X129771565Y-52498191D01*
X129768834Y-52498474D01*
X129601054Y-52554450D01*
X129450652Y-52647522D01*
X129325695Y-52772697D01*
X129322898Y-52777235D01*
X129265647Y-52817824D01*
X129194724Y-52821054D01*
X129133313Y-52785428D01*
X129125938Y-52776932D01*
X129117902Y-52766793D01*
X129003171Y-52652261D01*
X128991760Y-52643249D01*
X128853757Y-52558184D01*
X128840576Y-52552037D01*
X128686290Y-52500862D01*
X128672914Y-52497995D01*
X128578562Y-52488328D01*
X128572145Y-52488000D01*
X128547115Y-52488000D01*
X128531876Y-52492475D01*
X128530671Y-52493865D01*
X128529000Y-52501548D01*
X128529000Y-54935884D01*
X128533475Y-54951123D01*
X128534865Y-54952328D01*
X128542548Y-54953999D01*
X128572095Y-54953999D01*
X128578614Y-54953662D01*
X128674206Y-54943743D01*
X128687600Y-54940851D01*
X128688017Y-54940712D01*
X128688290Y-54940702D01*
X128694343Y-54939395D01*
X128694576Y-54940473D01*
X128758967Y-54938128D01*
X128820051Y-54974312D01*
X128851875Y-55037776D01*
X128844336Y-55108371D01*
X128816988Y-55149331D01*
X128084724Y-55881595D01*
X128022412Y-55915621D01*
X127995629Y-55918500D01*
X126863866Y-55918500D01*
X126801684Y-55925255D01*
X126665295Y-55976385D01*
X126548739Y-56063739D01*
X126461385Y-56180295D01*
X126410255Y-56316684D01*
X126403500Y-56378866D01*
X126403500Y-57510629D01*
X126383498Y-57578750D01*
X126366595Y-57599724D01*
X125274058Y-58692261D01*
X125259646Y-58704647D01*
X125248051Y-58713180D01*
X125248046Y-58713185D01*
X125242151Y-58717523D01*
X125237412Y-58723101D01*
X125237409Y-58723104D01*
X125207934Y-58757799D01*
X125201004Y-58765315D01*
X125195309Y-58771010D01*
X125193029Y-58773892D01*
X125177688Y-58793282D01*
X125174897Y-58796686D01*
X125155047Y-58820051D01*
X125127636Y-58852316D01*
X125124308Y-58858832D01*
X125120941Y-58863881D01*
X125117774Y-58869010D01*
X125113235Y-58874747D01*
X125082314Y-58940906D01*
X125080411Y-58944800D01*
X125047200Y-59009839D01*
X125045461Y-59016947D01*
X125043362Y-59022590D01*
X125041445Y-59028353D01*
X125038347Y-59034981D01*
X125036857Y-59042143D01*
X125036857Y-59042144D01*
X125023483Y-59106443D01*
X125022513Y-59110727D01*
X125005161Y-59181641D01*
X125004469Y-59192795D01*
X125004433Y-59192793D01*
X125004194Y-59196786D01*
X125003820Y-59200978D01*
X125002329Y-59208146D01*
X125002527Y-59215463D01*
X125004423Y-59285552D01*
X125004469Y-59288959D01*
X125004469Y-63262699D01*
X125003036Y-63281649D01*
X124999770Y-63303118D01*
X125000363Y-63310410D01*
X125000363Y-63310413D01*
X125004054Y-63355787D01*
X125004469Y-63366002D01*
X125004469Y-63374062D01*
X125004894Y-63377706D01*
X125007758Y-63402276D01*
X125008191Y-63406651D01*
X125014109Y-63479406D01*
X125016365Y-63486370D01*
X125017556Y-63492329D01*
X125018940Y-63498184D01*
X125019787Y-63505450D01*
X125044704Y-63574096D01*
X125046121Y-63578224D01*
X125068618Y-63647668D01*
X125072414Y-63653923D01*
X125074920Y-63659397D01*
X125077639Y-63664827D01*
X125080136Y-63671706D01*
X125084149Y-63677826D01*
X125084149Y-63677827D01*
X125120155Y-63732745D01*
X125122492Y-63736449D01*
X125160374Y-63798876D01*
X125164090Y-63803084D01*
X125164091Y-63803085D01*
X125167772Y-63807253D01*
X125167745Y-63807277D01*
X125170398Y-63810269D01*
X125173101Y-63813502D01*
X125177113Y-63819621D01*
X125182425Y-63824653D01*
X125233352Y-63872897D01*
X125235794Y-63875275D01*
X126295924Y-64935405D01*
X126329950Y-64997717D01*
X126324885Y-65068532D01*
X126282338Y-65125368D01*
X126215818Y-65150179D01*
X126206829Y-65150500D01*
X122630700Y-65150500D01*
X122562579Y-65130498D01*
X122516086Y-65076842D01*
X122504700Y-65024500D01*
X122504700Y-54843438D01*
X122524702Y-54775317D01*
X122578358Y-54728824D01*
X122648632Y-54718720D01*
X122713212Y-54748214D01*
X122740177Y-54781576D01*
X122740189Y-54781569D01*
X122740254Y-54781672D01*
X122741112Y-54782733D01*
X122744216Y-54788379D01*
X122860285Y-54948135D01*
X122926514Y-55039291D01*
X122929746Y-55043740D01*
X123145818Y-55273833D01*
X123389025Y-55475032D01*
X123655531Y-55644162D01*
X123659110Y-55645846D01*
X123659117Y-55645850D01*
X123937544Y-55776867D01*
X123937548Y-55776869D01*
X123941134Y-55778556D01*
X123944906Y-55779782D01*
X123944907Y-55779782D01*
X123966697Y-55786862D01*
X124241328Y-55876095D01*
X124551380Y-55935241D01*
X124787562Y-55950100D01*
X124945238Y-55950100D01*
X125181420Y-55935241D01*
X125491472Y-55876095D01*
X125766103Y-55786862D01*
X125787893Y-55779782D01*
X125787894Y-55779782D01*
X125791666Y-55778556D01*
X125795252Y-55776869D01*
X125795256Y-55776867D01*
X126073683Y-55645850D01*
X126073690Y-55645846D01*
X126077269Y-55644162D01*
X126343775Y-55475032D01*
X126586982Y-55273833D01*
X126803054Y-55043740D01*
X126806287Y-55039291D01*
X126872515Y-54948135D01*
X126988584Y-54788379D01*
X127125271Y-54539748D01*
X127175614Y-54489692D01*
X127245031Y-54474799D01*
X127311480Y-54499800D01*
X127342827Y-54534148D01*
X127423066Y-54663810D01*
X127432099Y-54675208D01*
X127546829Y-54789739D01*
X127558240Y-54798751D01*
X127696243Y-54883816D01*
X127709424Y-54889963D01*
X127863710Y-54941138D01*
X127877086Y-54944005D01*
X127971438Y-54953672D01*
X127977854Y-54954000D01*
X128002885Y-54954000D01*
X128018124Y-54949525D01*
X128019329Y-54948135D01*
X128021000Y-54940452D01*
X128021000Y-52506116D01*
X128016525Y-52490877D01*
X128015135Y-52489672D01*
X128007452Y-52488001D01*
X127977905Y-52488001D01*
X127971386Y-52488338D01*
X127875794Y-52498257D01*
X127862400Y-52501149D01*
X127708216Y-52552588D01*
X127695038Y-52558761D01*
X127557193Y-52644063D01*
X127545792Y-52653099D01*
X127469771Y-52729252D01*
X127407488Y-52763331D01*
X127336668Y-52758328D01*
X127279795Y-52715830D01*
X127258557Y-52671572D01*
X127257826Y-52668724D01*
X127257823Y-52668714D01*
X127256843Y-52664898D01*
X127255390Y-52661228D01*
X127142102Y-52375095D01*
X127142100Y-52375090D01*
X127140647Y-52371421D01*
X127127867Y-52348174D01*
X126990493Y-52098293D01*
X126990491Y-52098290D01*
X126988584Y-52094821D01*
X126803054Y-51839460D01*
X126623823Y-51648599D01*
X126589697Y-51612258D01*
X126589696Y-51612257D01*
X126586982Y-51609367D01*
X126546238Y-51575660D01*
X126346827Y-51410693D01*
X126343775Y-51408168D01*
X126077269Y-51239038D01*
X126073690Y-51237354D01*
X126073683Y-51237350D01*
X125795256Y-51106333D01*
X125795252Y-51106331D01*
X125791666Y-51104644D01*
X125491472Y-51007105D01*
X125181420Y-50947959D01*
X124945238Y-50933100D01*
X124787562Y-50933100D01*
X124551380Y-50947959D01*
X124241328Y-51007105D01*
X123941134Y-51104644D01*
X123937548Y-51106331D01*
X123937544Y-51106333D01*
X123659117Y-51237350D01*
X123659110Y-51237354D01*
X123655531Y-51239038D01*
X123389025Y-51408168D01*
X123385973Y-51410693D01*
X123186563Y-51575660D01*
X123145818Y-51609367D01*
X123143104Y-51612257D01*
X123143103Y-51612258D01*
X123108977Y-51648599D01*
X122929746Y-51839460D01*
X122744216Y-52094821D01*
X122742308Y-52098292D01*
X122741112Y-52100467D01*
X122740613Y-52100964D01*
X122740189Y-52101631D01*
X122740038Y-52101535D01*
X122690765Y-52150524D01*
X122621348Y-52165414D01*
X122554899Y-52140411D01*
X122512517Y-52083453D01*
X122504700Y-52039762D01*
X122504700Y-50323069D01*
X126404001Y-50323069D01*
X126404371Y-50329890D01*
X126409895Y-50380752D01*
X126413521Y-50396004D01*
X126458676Y-50516454D01*
X126467214Y-50532049D01*
X126543715Y-50634124D01*
X126556276Y-50646685D01*
X126658351Y-50723186D01*
X126673946Y-50731724D01*
X126794394Y-50776878D01*
X126809649Y-50780505D01*
X126860514Y-50786031D01*
X126867328Y-50786400D01*
X127489885Y-50786400D01*
X127505124Y-50781925D01*
X127506329Y-50780535D01*
X127508000Y-50772852D01*
X127508000Y-49700515D01*
X127503525Y-49685276D01*
X127502135Y-49684071D01*
X127494452Y-49682400D01*
X126422116Y-49682400D01*
X126406877Y-49686875D01*
X126405672Y-49688265D01*
X126404001Y-49695948D01*
X126404001Y-50323069D01*
X122504700Y-50323069D01*
X122504700Y-40639500D01*
X122524702Y-40571379D01*
X122578358Y-40524886D01*
X122630700Y-40513500D01*
X148666700Y-40513500D01*
X148734821Y-40533502D01*
G37*
%TD.AperFunction*%
%TD*%
M02*
